<svg width="50" height="50" viewBox="0 0 50 50" fill="none" xmlns="http://www.w3.org/2000/svg">
<rect width="50" height="50" rx="10" fill="black"/>
<path d="M35.4423 31.67C35.2956 31.8753 34.9656 32.0513 34.4523 32.198C33.9389 32.3447 33.3523 32.4547 32.6923 32.528C32.0469 32.6013 31.3869 32.6307 30.7123 32.616C30.0523 32.6013 29.4949 32.5353 29.0403 32.418C28.8789 31.978 28.6956 31.538 28.4903 31.098C28.2849 30.6433 28.1236 30.2107 28.0063 29.8C27.9476 29.5507 27.8523 29.36 27.7203 29.228C27.6029 29.096 27.4416 29.0007 27.2363 28.942C27.0456 28.8687 26.7963 28.8247 26.4883 28.81C26.1949 28.7953 25.8356 28.788 25.4103 28.788C25.2049 28.788 24.9629 28.788 24.6843 28.788C24.4056 28.7733 24.1343 28.7733 23.8703 28.788C23.6063 28.8027 23.3643 28.832 23.1443 28.876C22.9243 28.9053 22.7776 28.964 22.7043 29.052C22.6309 29.14 22.5649 29.228 22.5063 29.316C22.4476 29.3893 22.3889 29.4847 22.3303 29.602C22.2716 29.7193 22.2056 29.866 22.1323 30.042C22.0736 30.218 21.9929 30.4527 21.8903 30.746C21.8023 31.01 21.7289 31.2447 21.6703 31.45C21.6116 31.6553 21.5603 31.8387 21.5163 32C21.4723 32.1467 21.4283 32.286 21.3843 32.418C21.3403 32.55 21.2816 32.6747 21.2083 32.792C20.7536 32.836 20.2476 32.8287 19.6903 32.77C19.1329 32.726 18.5829 32.6453 18.0403 32.528C17.4976 32.4253 16.9916 32.2933 16.5223 32.132C16.0676 31.9707 15.7083 31.7947 15.4443 31.604C15.4443 31.428 15.4663 31.23 15.5103 31.01C15.5543 30.7753 15.5983 30.5407 15.6423 30.306C15.7009 30.0567 15.7596 29.822 15.8183 29.602C15.8769 29.3673 15.9283 29.162 15.9723 28.986C16.1923 28.018 16.4563 26.9327 16.7643 25.73C17.0869 24.5127 17.4536 23.3027 17.8643 22.1C18.2896 20.8827 18.7516 19.7387 19.2503 18.668C19.7636 17.5973 20.3283 16.732 20.9443 16.072C21.1496 15.852 21.4209 15.6687 21.7583 15.522C22.1103 15.3753 22.5063 15.258 22.9463 15.17C23.3863 15.0673 23.8483 14.994 24.3323 14.95C24.8163 14.906 25.3003 14.884 25.7843 14.884C26.1216 14.884 26.5103 14.9133 26.9503 14.972C27.4049 15.0307 27.8523 15.126 28.2923 15.258C28.7469 15.39 29.1723 15.5733 29.5683 15.808C29.9789 16.028 30.3016 16.314 30.5363 16.666C30.8736 17.15 31.2036 17.7367 31.5263 18.426C31.8489 19.1007 32.1569 19.8413 32.4503 20.648C32.7583 21.4547 33.0516 22.3053 33.3303 23.2C33.6089 24.0947 33.8656 24.9893 34.1003 25.884C34.3496 26.7787 34.5696 27.6587 34.7603 28.524C34.9656 29.3893 35.1489 30.196 35.3103 30.944C35.3396 31.0613 35.3689 31.186 35.3983 31.318C35.4423 31.4353 35.4569 31.5527 35.4423 31.67ZM23.7603 24.388C23.6869 24.7547 23.7676 24.9673 24.0023 25.026C24.2516 25.0993 24.5009 25.136 24.7503 25.136C25.0143 25.1213 25.2709 25.114 25.5203 25.114C25.9163 25.114 26.2389 25.0993 26.4883 25.07C26.7523 25.026 26.9503 24.9747 27.0823 24.916C27.2143 24.8427 27.2949 24.7693 27.3243 24.696C27.3683 24.608 27.3756 24.5127 27.3463 24.41C27.3023 24.2193 27.2363 23.8967 27.1483 23.442C27.0603 22.9727 26.9429 22.496 26.7963 22.012C26.6496 21.528 26.4663 21.1027 26.2463 20.736C26.0409 20.3693 25.7916 20.186 25.4983 20.186C25.2783 20.186 25.0729 20.362 24.8823 20.714C24.6916 21.0513 24.5229 21.4547 24.3763 21.924C24.2296 22.3933 24.0976 22.8627 23.9803 23.332C23.8776 23.7867 23.8043 24.1387 23.7603 24.388Z" fill="white"/>
</svg>
