<svg width="50" height="50" viewBox="0 0 50 50" fill="none" xmlns="http://www.w3.org/2000/svg">
<rect x="0.5" y="0.5" width="49" height="49" rx="9.5" fill="black"/>
<rect x="0.5" y="0.5" width="49" height="49" rx="9.5" stroke="black"/>
<path d="M23.8657 19.966C23.5577 19.966 23.3084 20.0393 23.1177 20.186C22.9417 20.3327 22.8024 20.5673 22.6997 20.89C22.6117 21.198 22.553 21.594 22.5237 22.078C22.4944 22.562 22.4797 23.134 22.4797 23.794C22.4797 25.1287 22.5677 26.1407 22.7437 26.83C22.9344 27.5047 23.3304 27.842 23.9317 27.842C24.3277 27.842 24.7164 27.7393 25.0977 27.534C25.4937 27.314 25.8457 27.006 26.1537 26.61C26.4617 26.214 26.7037 25.7447 26.8797 25.202C27.0704 24.6593 27.1657 24.058 27.1657 23.398C27.1657 22.2687 26.865 21.418 26.2637 20.846C25.6624 20.2593 24.863 19.966 23.8657 19.966ZM16.8477 19.526C16.569 19.5407 16.349 19.438 16.1877 19.218C16.0264 18.998 15.9017 18.734 15.8137 18.426C15.7404 18.118 15.689 17.8027 15.6597 17.48C15.645 17.1427 15.6377 16.8713 15.6377 16.666C15.6377 16.358 15.6597 16.0867 15.7037 15.852C15.7477 15.6173 15.843 15.4267 15.9897 15.28C16.1364 15.1187 16.3344 15.0013 16.5837 14.928C16.8477 14.84 17.185 14.796 17.5957 14.796C18.1824 14.796 18.7617 14.8033 19.3337 14.818C19.9204 14.8327 20.507 14.8767 21.0937 14.95C22.0177 15.0527 22.9417 15.1407 23.8657 15.214C24.7897 15.2873 25.7064 15.4267 26.6157 15.632C27.7744 15.8813 28.757 16.2773 29.5637 16.82C30.3704 17.348 31.023 17.9787 31.5217 18.712C32.0204 19.4453 32.3797 20.252 32.5997 21.132C32.8197 22.012 32.9297 22.9287 32.9297 23.882C32.9297 25.07 32.739 26.1333 32.3577 27.072C31.9764 27.996 31.463 28.8173 30.8177 29.536C30.1724 30.24 29.4244 30.8413 28.5737 31.34C27.723 31.8387 26.8284 32.242 25.8897 32.55C24.9657 32.858 24.0197 33.0853 23.0517 33.232C22.0837 33.3787 21.167 33.452 20.3017 33.452C19.451 33.452 18.7544 33.2393 18.2117 32.814C17.6837 32.4033 17.3537 31.846 17.2217 31.142C17.1337 30.658 17.0604 30.1007 17.0017 29.47C16.9577 28.8247 16.921 28.1573 16.8917 27.468C16.8624 26.7787 16.8404 26.0967 16.8257 25.422C16.811 24.7473 16.8037 24.1387 16.8037 23.596C16.8037 23.2 16.8037 22.8407 16.8037 22.518C16.8184 22.1807 16.8257 21.858 16.8257 21.55C16.8257 21.242 16.8257 20.9267 16.8257 20.604C16.8404 20.2813 16.8477 19.922 16.8477 19.526Z" fill="white"/>
</svg>
