<svg width="133" height="45" viewBox="0 0 133 45" fill="none" xmlns="http://www.w3.org/2000/svg">
<rect x="0.270264" y="4.15576" width="132.158" height="37.8443" rx="18.9222" fill="#774936"/>
<rect y="2" width="132.158" height="37.8443" rx="18.9222" fill="#CD9777"/>
<rect x="3.24316" y="3.67676" width="126.212" height="34.2515" rx="17.1257" fill="url(#paint0_linear_132_4104)"/>
<ellipse cx="2.91995" cy="4.62224" rx="2.91995" ry="4.62224" transform="matrix(0.716419 -0.69767 0.778371 0.627804 114.32 10.3857)" fill="white"/>
<ellipse cx="1.79601" cy="2.60916" rx="1.79601" ry="2.60916" transform="matrix(0.918775 -0.394781 0.47993 0.877307 122.883 15.7891)" fill="white"/>
<g filter="url(#filter0_dd_132_4104)">
<path d="M43.5103 19.168C43.5103 16.56 43.9503 14.496 44.8303 12.976C45.7103 11.456 46.9023 10.4 48.4063 9.808C48.8063 9.648 49.2463 9.528 49.7263 9.448C50.2063 9.352 50.6943 9.28 51.1903 9.232C51.7023 9.184 52.2063 9.152 52.7023 9.136C53.1983 9.12 53.6623 9.112 54.0943 9.112C54.5103 9.112 54.9503 9.12 55.4143 9.136C55.8783 9.152 56.3503 9.192 56.8303 9.256C57.3103 9.304 57.7743 9.376 58.2223 9.472C58.6863 9.552 59.1023 9.664 59.4703 9.808C60.2223 10.112 60.8943 10.528 61.4863 11.056C62.0943 11.568 62.6063 12.208 63.0223 12.976C63.4543 13.744 63.7823 14.648 64.0063 15.688C64.2303 16.712 64.3423 17.872 64.3423 19.168C64.3423 21.088 64.1023 22.72 63.6223 24.064C63.1423 25.392 62.4703 26.472 61.6063 27.304C60.7423 28.12 59.7023 28.712 58.4863 29.08C57.2863 29.448 55.9503 29.632 54.4783 29.632H53.3743C51.9183 29.632 50.5823 29.448 49.3663 29.08C48.1503 28.712 47.1103 28.12 46.2463 27.304C45.3823 26.472 44.7103 25.392 44.2303 24.064C43.7503 22.72 43.5103 21.088 43.5103 19.168ZM53.9263 14.464C53.4303 14.464 52.9503 14.568 52.4863 14.776C52.0223 14.984 51.6063 15.28 51.2383 15.664C50.8863 16.048 50.5983 16.52 50.3743 17.08C50.1663 17.624 50.0623 18.24 50.0623 18.928C50.0623 20.288 50.3663 21.352 50.9743 22.12C51.5983 22.872 52.5823 23.248 53.9263 23.248C55.2863 23.248 56.2703 22.872 56.8783 22.12C57.5023 21.352 57.8143 20.288 57.8143 18.928C57.8143 18.24 57.7023 17.624 57.4783 17.08C57.2703 16.52 56.9823 16.048 56.6143 15.664C56.2623 15.28 55.8543 14.984 55.3903 14.776C54.9263 14.568 54.4383 14.464 53.9263 14.464ZM87.5156 28.168C87.3716 28.328 87.1076 28.456 86.7236 28.552C86.3396 28.648 85.9076 28.704 85.4276 28.72C84.9476 28.752 84.4516 28.744 83.9396 28.696C83.4276 28.664 82.9716 28.584 82.5716 28.456C81.8036 27.912 81.1316 27.264 80.5556 26.512C79.9956 25.76 79.4916 25.048 79.0436 24.376C78.6116 23.688 78.2276 23.112 77.8916 22.648C77.5556 22.168 77.2516 21.928 76.9796 21.928C76.7236 21.928 76.5636 21.976 76.4996 22.072C76.4516 22.152 76.4276 22.344 76.4276 22.648C76.4276 22.984 76.4516 23.352 76.4996 23.752C76.5636 24.152 76.6276 24.56 76.6916 24.976C76.7716 25.376 76.8356 25.776 76.8836 26.176C76.9476 26.576 76.9796 26.944 76.9796 27.28C76.9796 27.504 76.9636 27.72 76.9316 27.928C76.8996 28.136 76.8116 28.328 76.6676 28.504C76.2996 28.728 75.8356 28.888 75.2756 28.984C74.7316 29.096 74.1636 29.16 73.5716 29.176C72.9796 29.208 72.4116 29.2 71.8676 29.152C71.3236 29.12 70.8676 29.064 70.4996 28.984C70.3556 28.792 70.2676 28.608 70.2356 28.432C70.1556 28.112 70.0836 27.744 70.0196 27.328C69.9556 26.896 69.8996 26.464 69.8516 26.032C69.8196 25.584 69.7876 25.152 69.7556 24.736C69.7396 24.304 69.7316 23.92 69.7316 23.584C69.7316 22.192 69.7556 20.832 69.8036 19.504C69.8676 18.16 70.0356 16.848 70.3076 15.568C70.3396 15.44 70.3556 15.352 70.3556 15.304C70.3716 15.24 70.3796 15.184 70.3796 15.136C70.3796 14.944 70.3316 14.808 70.2356 14.728C70.1556 14.632 70.0516 14.552 69.9236 14.488C69.8116 14.408 69.6916 14.328 69.5636 14.248C69.4516 14.152 69.3556 14.008 69.2756 13.816C69.2436 13.736 69.2116 13.616 69.1796 13.456C69.1636 13.296 69.1476 13.136 69.1316 12.976C69.1156 12.8 69.0996 12.64 69.0836 12.496C69.0836 12.336 69.0836 12.208 69.0836 12.112C69.0836 11.44 69.1236 10.92 69.2036 10.552C69.2836 10.184 69.4356 9.912 69.6596 9.736C69.8836 9.56 70.1876 9.456 70.5716 9.424C70.9556 9.392 71.4436 9.376 72.0356 9.376C72.5156 9.376 72.9956 9.392 73.4756 9.424C73.9556 9.44 74.4356 9.448 74.9156 9.448C75.3316 9.448 75.7636 9.472 76.2116 9.52C76.6756 9.568 77.0836 9.728 77.4356 10C77.6916 10.192 77.9396 10.528 78.1796 11.008C78.4196 11.488 78.6516 12.032 78.8756 12.64C79.1156 13.248 79.3396 13.888 79.5476 14.56C79.7716 15.216 79.9956 15.824 80.2196 16.384C80.4436 16.928 80.6596 17.376 80.8676 17.728C81.0916 18.08 81.3156 18.256 81.5396 18.256C81.7636 18.256 81.8916 18.136 81.9236 17.896C81.9716 17.656 81.9956 17.408 81.9956 17.152C81.9956 16.16 81.9556 15.224 81.8756 14.344C81.8116 13.464 81.7796 12.536 81.7796 11.56C81.7796 11.272 81.7956 10.944 81.8276 10.576C81.8756 10.208 82.0116 9.92 82.2356 9.712C82.5716 9.568 82.9716 9.464 83.4356 9.4C83.9156 9.336 84.4116 9.304 84.9236 9.304C85.4516 9.304 85.9636 9.344 86.4596 9.424C86.9716 9.504 87.4196 9.616 87.8036 9.76C88.0756 9.984 88.2676 10.256 88.3796 10.576C88.5556 11.024 88.6916 11.536 88.7876 12.112C88.8836 12.688 88.9556 13.28 89.0036 13.888C89.0516 14.48 89.0836 15.072 89.0996 15.664C89.1156 16.256 89.1236 16.792 89.1236 17.272C89.1236 17.704 89.1156 18.224 89.0996 18.832C89.0996 19.424 89.0836 20.064 89.0516 20.752C89.0196 21.424 88.9716 22.112 88.9076 22.816C88.8596 23.52 88.7796 24.2 88.6676 24.856C88.5556 25.496 88.4116 26.096 88.2356 26.656C88.0756 27.2 87.8756 27.648 87.6356 28C87.6036 28.032 87.5796 28.056 87.5636 28.072C87.5636 28.104 87.5476 28.136 87.5156 28.168Z" fill="white"/>
</g>
<defs>
<filter id="filter0_dd_132_4104" x="31.5103" y="0.111816" width="69.6133" height="44.52" filterUnits="userSpaceOnUse" color-interpolation-filters="sRGB">
<feFlood flood-opacity="0" result="BackgroundImageFix"/>
<feColorMatrix in="SourceAlpha" type="matrix" values="0 0 0 0 0 0 0 0 0 0 0 0 0 0 0 0 0 0 127 0" result="hardAlpha"/>
<feOffset dy="3"/>
<feGaussianBlur stdDeviation="6"/>
<feComposite in2="hardAlpha" operator="out"/>
<feColorMatrix type="matrix" values="0 0 0 0 0 0 0 0 0 0 0 0 0 0 0 0 0 0 0.25 0"/>
<feBlend mode="normal" in2="BackgroundImageFix" result="effect1_dropShadow_132_4104"/>
<feColorMatrix in="SourceAlpha" type="matrix" values="0 0 0 0 0 0 0 0 0 0 0 0 0 0 0 0 0 0 127 0" result="hardAlpha"/>
<feOffset dy="3"/>
<feComposite in2="hardAlpha" operator="out"/>
<feColorMatrix type="matrix" values="0 0 0 0 0.309804 0 0 0 0 0.309804 0 0 0 0 0.309804 0 0 0 0.6 0"/>
<feBlend mode="normal" in2="effect1_dropShadow_132_4104" result="effect2_dropShadow_132_4104"/>
<feBlend mode="normal" in="SourceGraphic" in2="effect2_dropShadow_132_4104" result="shape"/>
</filter>
<linearGradient id="paint0_linear_132_4104" x1="66.4842" y1="3.67676" x2="67.7584" y2="37.9412" gradientUnits="userSpaceOnUse">
<stop stop-color="#AFD8A0"/>
<stop offset="1" stop-color="#4A8136"/>
</linearGradient>
</defs>
</svg>
