<svg width="133" height="46" viewBox="0 0 133 46" fill="none" xmlns="http://www.w3.org/2000/svg">
<rect x="0.270264" y="4.15576" width="132.158" height="37.8443" rx="18.9222" fill="#774936"/>
<rect y="2" width="132.158" height="37.8443" rx="18.9222" fill="#CD9777"/>
<rect x="3.24316" y="3.67676" width="126.212" height="34.2515" rx="17.1257" fill="url(#paint0_linear_132_4320)"/>
<ellipse cx="2.91995" cy="4.62224" rx="2.91995" ry="4.62224" transform="matrix(0.716419 -0.69767 0.778371 0.627804 114.32 10.3857)" fill="white"/>
<ellipse cx="1.79601" cy="2.60916" rx="1.79601" ry="2.60916" transform="matrix(0.918775 -0.394781 0.47993 0.877307 122.883 15.7891)" fill="white"/>
<g filter="url(#filter0_dd_132_4320)">
<path d="M35.8073 19.168C35.8073 16.56 36.2473 14.496 37.1273 12.976C38.0073 11.456 39.1993 10.4 40.7033 9.808C41.1033 9.648 41.5433 9.528 42.0233 9.448C42.5033 9.352 42.9913 9.28 43.4873 9.232C43.9993 9.184 44.5033 9.152 44.9993 9.136C45.4953 9.12 45.9593 9.112 46.3913 9.112C46.8073 9.112 47.2473 9.12 47.7113 9.136C48.1753 9.152 48.6473 9.192 49.1273 9.256C49.6073 9.304 50.0713 9.376 50.5193 9.472C50.9833 9.552 51.3993 9.664 51.7673 9.808C52.5193 10.112 53.1913 10.528 53.7833 11.056C54.3913 11.568 54.9033 12.208 55.3193 12.976C55.7513 13.744 56.0793 14.648 56.3033 15.688C56.5273 16.712 56.6393 17.872 56.6393 19.168C56.6393 21.088 56.3993 22.72 55.9193 24.064C55.4393 25.392 54.7673 26.472 53.9033 27.304C53.0393 28.12 51.9993 28.712 50.7833 29.08C49.5833 29.448 48.2473 29.632 46.7753 29.632H45.6713C44.2153 29.632 42.8793 29.448 41.6633 29.08C40.4473 28.712 39.4073 28.12 38.5433 27.304C37.6793 26.472 37.0073 25.392 36.5273 24.064C36.0473 22.72 35.8073 21.088 35.8073 19.168ZM46.2233 14.464C45.7273 14.464 45.2473 14.568 44.7833 14.776C44.3193 14.984 43.9033 15.28 43.5353 15.664C43.1833 16.048 42.8953 16.52 42.6713 17.08C42.4633 17.624 42.3593 18.24 42.3593 18.928C42.3593 20.288 42.6633 21.352 43.2713 22.12C43.8953 22.872 44.8793 23.248 46.2233 23.248C47.5833 23.248 48.5673 22.872 49.1753 22.12C49.7993 21.352 50.1113 20.288 50.1113 18.928C50.1113 18.24 49.9993 17.624 49.7753 17.08C49.5673 16.52 49.2793 16.048 48.9113 15.664C48.5593 15.28 48.1513 14.984 47.6873 14.776C47.2233 14.568 46.7353 14.464 46.2233 14.464ZM69.1566 29.296C68.7406 29.488 68.2606 29.64 67.7166 29.752C67.1886 29.88 66.6366 29.952 66.0606 29.968C65.5006 30 64.9326 29.984 64.3566 29.92C63.7806 29.872 63.2446 29.776 62.7486 29.632C62.6526 29.536 62.5566 29.328 62.4606 29.008C62.3806 28.704 62.3006 28.272 62.2206 27.712C62.1406 27.152 62.0766 26.448 62.0286 25.6C61.9806 24.736 61.9566 23.704 61.9566 22.504C61.9566 22.056 61.9326 21.456 61.8846 20.704C61.8366 19.936 61.7886 19.104 61.7406 18.208C61.7086 17.296 61.6846 16.368 61.6686 15.424C61.6526 14.48 61.6766 13.616 61.7406 12.832C61.8206 12.032 61.9486 11.352 62.1246 10.792C62.3006 10.232 62.5566 9.888 62.8926 9.76C63.1326 9.664 63.4526 9.584 63.8526 9.52C64.2686 9.456 64.7326 9.4 65.2446 9.352C65.7566 9.304 66.2926 9.272 66.8526 9.256C67.4126 9.24 67.9486 9.224 68.4606 9.208C68.9886 9.192 69.4686 9.184 69.9006 9.184C70.3486 9.184 70.7086 9.184 70.9806 9.184C71.6686 9.184 72.4606 9.224 73.3566 9.304C74.2686 9.368 75.1326 9.496 75.9486 9.688C76.1406 10.072 76.3006 10.544 76.4286 11.104C76.5566 11.664 76.6366 12.248 76.6686 12.856C76.7166 13.464 76.7086 14.056 76.6446 14.632C76.5966 15.192 76.4926 15.672 76.3326 16.072C76.1726 16.2 75.9966 16.28 75.8046 16.312C75.6126 16.328 75.4126 16.336 75.2046 16.336C74.7246 16.336 74.2366 16.28 73.7406 16.168C73.2606 16.04 72.7806 15.904 72.3006 15.76C71.8206 15.616 71.3326 15.488 70.8366 15.376C70.3566 15.248 69.8686 15.184 69.3726 15.184C68.8286 15.184 68.4526 15.248 68.2446 15.376C68.0526 15.488 67.9566 15.784 67.9566 16.264C67.9566 16.728 68.0446 17.112 68.2206 17.416C68.3966 17.704 68.7806 17.848 69.3726 17.848C69.9966 17.848 70.6526 17.784 71.3406 17.656C72.0286 17.528 72.6766 17.488 73.2846 17.536C73.5246 17.68 73.7006 17.984 73.8126 18.448C73.9406 18.912 74.0126 19.424 74.0286 19.984C74.0446 20.544 73.9966 21.104 73.8846 21.664C73.7886 22.224 73.6366 22.664 73.4286 22.984C73.1406 23.016 72.8286 23 72.4926 22.936C72.1566 22.872 71.8126 22.8 71.4606 22.72C71.1246 22.64 70.7726 22.56 70.4046 22.48C70.0526 22.4 69.7086 22.36 69.3726 22.36C69.0046 22.36 68.7486 22.384 68.6046 22.432C68.4606 22.48 68.3886 22.688 68.3886 23.056C68.3886 23.488 68.4366 23.92 68.5326 24.352C68.6446 24.784 68.7486 25.248 68.8446 25.744C68.9566 26.24 69.0446 26.776 69.1086 27.352C69.1886 27.928 69.2046 28.576 69.1566 29.296ZM89.3907 29.296C88.9747 29.488 88.4947 29.64 87.9507 29.752C87.4227 29.88 86.8707 29.952 86.2947 29.968C85.7347 30 85.1667 29.984 84.5907 29.92C84.0147 29.872 83.4787 29.776 82.9827 29.632C82.8867 29.536 82.7907 29.328 82.6947 29.008C82.6147 28.704 82.5347 28.272 82.4547 27.712C82.3747 27.152 82.3107 26.448 82.2627 25.6C82.2147 24.736 82.1907 23.704 82.1907 22.504C82.1907 22.056 82.1667 21.456 82.1187 20.704C82.0707 19.936 82.0227 19.104 81.9747 18.208C81.9427 17.296 81.9187 16.368 81.9027 15.424C81.8867 14.48 81.9107 13.616 81.9747 12.832C82.0547 12.032 82.1827 11.352 82.3587 10.792C82.5347 10.232 82.7907 9.888 83.1267 9.76C83.3667 9.664 83.6867 9.584 84.0867 9.52C84.5027 9.456 84.9667 9.4 85.4787 9.352C85.9907 9.304 86.5267 9.272 87.0867 9.256C87.6467 9.24 88.1827 9.224 88.6947 9.208C89.2227 9.192 89.7027 9.184 90.1347 9.184C90.5827 9.184 90.9427 9.184 91.2147 9.184C91.9027 9.184 92.6947 9.224 93.5907 9.304C94.5027 9.368 95.3667 9.496 96.1827 9.688C96.3747 10.072 96.5347 10.544 96.6627 11.104C96.7907 11.664 96.8707 12.248 96.9027 12.856C96.9507 13.464 96.9427 14.056 96.8787 14.632C96.8307 15.192 96.7267 15.672 96.5667 16.072C96.4067 16.2 96.2307 16.28 96.0387 16.312C95.8467 16.328 95.6467 16.336 95.4387 16.336C94.9587 16.336 94.4707 16.28 93.9747 16.168C93.4947 16.04 93.0147 15.904 92.5347 15.76C92.0547 15.616 91.5667 15.488 91.0707 15.376C90.5907 15.248 90.1027 15.184 89.6067 15.184C89.0627 15.184 88.6867 15.248 88.4787 15.376C88.2867 15.488 88.1907 15.784 88.1907 16.264C88.1907 16.728 88.2787 17.112 88.4547 17.416C88.6307 17.704 89.0147 17.848 89.6067 17.848C90.2307 17.848 90.8867 17.784 91.5747 17.656C92.2627 17.528 92.9107 17.488 93.5187 17.536C93.7587 17.68 93.9347 17.984 94.0467 18.448C94.1747 18.912 94.2467 19.424 94.2627 19.984C94.2787 20.544 94.2307 21.104 94.1187 21.664C94.0227 22.224 93.8707 22.664 93.6627 22.984C93.3747 23.016 93.0627 23 92.7267 22.936C92.3907 22.872 92.0467 22.8 91.6947 22.72C91.3587 22.64 91.0067 22.56 90.6387 22.48C90.2867 22.4 89.9427 22.36 89.6067 22.36C89.2387 22.36 88.9827 22.384 88.8387 22.432C88.6947 22.48 88.6227 22.688 88.6227 23.056C88.6227 23.488 88.6707 23.92 88.7667 24.352C88.8787 24.784 88.9827 25.248 89.0787 25.744C89.1907 26.24 89.2787 26.776 89.3427 27.352C89.4227 27.928 89.4387 28.576 89.3907 29.296Z" fill="white"/>
</g>
<defs>
<filter id="filter0_dd_132_4320" x="23.8074" y="0.111816" width="85.1672" height="44.9043" filterUnits="userSpaceOnUse" color-interpolation-filters="sRGB">
<feFlood flood-opacity="0" result="BackgroundImageFix"/>
<feColorMatrix in="SourceAlpha" type="matrix" values="0 0 0 0 0 0 0 0 0 0 0 0 0 0 0 0 0 0 127 0" result="hardAlpha"/>
<feOffset dy="3"/>
<feGaussianBlur stdDeviation="6"/>
<feComposite in2="hardAlpha" operator="out"/>
<feColorMatrix type="matrix" values="0 0 0 0 0 0 0 0 0 0 0 0 0 0 0 0 0 0 0.25 0"/>
<feBlend mode="normal" in2="BackgroundImageFix" result="effect1_dropShadow_132_4320"/>
<feColorMatrix in="SourceAlpha" type="matrix" values="0 0 0 0 0 0 0 0 0 0 0 0 0 0 0 0 0 0 127 0" result="hardAlpha"/>
<feOffset dy="3"/>
<feComposite in2="hardAlpha" operator="out"/>
<feColorMatrix type="matrix" values="0 0 0 0 0.309804 0 0 0 0 0.309804 0 0 0 0 0.309804 0 0 0 0.6 0"/>
<feBlend mode="normal" in2="effect1_dropShadow_132_4320" result="effect2_dropShadow_132_4320"/>
<feBlend mode="normal" in="SourceGraphic" in2="effect2_dropShadow_132_4320" result="shape"/>
</filter>
<linearGradient id="paint0_linear_132_4320" x1="66.4842" y1="3.67676" x2="67.7584" y2="37.9412" gradientUnits="userSpaceOnUse">
<stop stop-color="#AFD8A0"/>
<stop offset="1" stop-color="#4A8136"/>
</linearGradient>
</defs>
</svg>
