<svg width="41" height="60" viewBox="0 0 41 60" fill="none" xmlns="http://www.w3.org/2000/svg">
<path d="M16.4 0H24.6C28.9481 0.00496301 33.1167 1.81267 36.1913 5.02651C39.2659 8.24034 40.9953 12.5978 41 17.1429V42.8571C40.9953 47.4022 39.2659 51.7597 36.1913 54.9735C33.1167 58.1873 28.9481 59.995 24.6 60H16.4C12.0519 59.995 7.88326 58.1873 4.80869 54.9735C1.73412 51.7597 0.0047489 47.4022 9.53674e-07 42.8571V17.1429C0.0047489 12.5978 1.73412 8.24034 4.80869 5.02651C7.88326 1.81267 12.0519 0.00496301 16.4 0ZM24.6 4.28571H20.5V23.5714H36.9V17.1429C36.8966 13.734 35.5996 10.4658 33.2937 8.0554C30.9877 5.64499 27.8611 4.28926 24.6 4.28571ZM16.4 55.7143H24.6C27.8611 55.7107 30.9877 54.355 33.2937 51.9446C35.5996 49.5342 36.8966 46.266 36.9 42.8571V27.8571H4.1V42.8571C4.10339 46.266 5.40037 49.5342 7.70633 51.9446C10.0123 54.355 13.1389 55.7107 16.4 55.7143Z" fill="black"/>
</svg>
