<svg width="41" height="60" viewBox="0 0 41 60" fill="none" xmlns="http://www.w3.org/2000/svg">
<path d="M24.6 0H16.4C12.0519 0.00496301 7.88326 1.81267 4.80869 5.02651C1.73413 8.24034 0.00474794 12.5978 0 17.1429V42.8571C0.00474794 47.4022 1.73413 51.7597 4.80869 54.9735C7.88326 58.1873 12.0519 59.995 16.4 60H24.6C28.9481 59.995 33.1167 58.1873 36.1913 54.9735C39.2659 51.7597 40.9953 47.4022 41 42.8571V17.1429C40.9953 12.5978 39.2659 8.24034 36.1913 5.02651C33.1167 1.81267 28.9481 0.00496301 24.6 0ZM16.4 4.28571H20.5V23.5714H4.1V17.1429C4.10339 13.734 5.40037 10.4658 7.70633 8.0554C10.0123 5.64499 13.1389 4.28926 16.4 4.28571ZM24.6 55.7143H16.4C13.1389 55.7107 10.0123 54.355 7.70633 51.9446C5.40037 49.5342 4.10339 46.266 4.1 42.8571V27.8571H36.9V42.8571C36.8966 46.266 35.5996 49.5342 33.2937 51.9446C30.9877 54.355 27.8611 55.7107 24.6 55.7143Z" fill="black"/>
</svg>
