<svg width="50" height="50" viewBox="0 0 50 50" fill="none" xmlns="http://www.w3.org/2000/svg">
<rect width="50" height="50" rx="10" fill="black"/>
<path d="M23.4312 33.386C22.8005 33.386 22.1112 33.3493 21.3632 33.276C20.6152 33.2173 19.8892 33.1293 19.1852 33.012C18.4958 32.9093 17.8652 32.792 17.2932 32.66C16.7212 32.528 16.2958 32.396 16.0172 32.264C15.8852 31.824 15.7972 31.2887 15.7532 30.658C15.7092 30.0273 15.6945 29.404 15.7092 28.788C15.7385 28.172 15.7898 27.6147 15.8632 27.116C15.9512 26.6027 16.0612 26.2507 16.1932 26.06C16.5452 26.148 16.9778 26.258 17.4912 26.39C18.0192 26.5073 18.5765 26.6173 19.1632 26.72C19.7498 26.8227 20.3438 26.9107 20.9452 26.984C21.5465 27.0573 22.0965 27.094 22.5952 27.094C23.6805 27.094 24.2232 26.9107 24.2232 26.544C24.2232 26.2947 23.9738 26.06 23.4752 25.84C22.9912 25.62 22.3898 25.3707 21.6712 25.092C21.0845 24.872 20.4612 24.6007 19.8012 24.278C19.1558 23.9553 18.5545 23.5667 17.9972 23.112C17.4545 22.6573 16.9998 22.144 16.6332 21.572C16.2812 20.9853 16.1052 20.318 16.1052 19.57C16.1052 18.734 16.2518 17.9933 16.5452 17.348C16.8385 16.7027 17.3885 16.1673 18.1952 15.742C19.0165 15.3167 20.1458 14.994 21.5832 14.774C23.0205 14.554 24.8758 14.444 27.1492 14.444C27.5598 14.444 27.9852 14.4587 28.4252 14.488C28.8652 14.5027 29.2832 14.532 29.6792 14.576C30.0898 14.62 30.4565 14.6713 30.7792 14.73C31.1018 14.774 31.3438 14.8253 31.5052 14.884C31.5932 15.016 31.6665 15.236 31.7252 15.544C31.7985 15.8373 31.8572 16.182 31.9012 16.578C31.9598 16.974 31.9965 17.3993 32.0112 17.854C32.0405 18.294 32.0552 18.7267 32.0552 19.152C32.0552 19.5627 32.0405 19.944 32.0112 20.296C31.9818 20.648 31.9305 20.9267 31.8572 21.132C31.3145 20.8827 30.7058 20.6993 30.0312 20.582C29.3712 20.45 28.5938 20.384 27.6992 20.384C26.7312 20.384 25.9905 20.45 25.4772 20.582C24.9785 20.714 24.7292 20.9047 24.7292 21.154C24.7292 21.4033 24.9712 21.66 25.4552 21.924C25.9538 22.188 26.5552 22.474 27.2592 22.782C27.8018 23.0167 28.3665 23.3027 28.9532 23.64C29.5398 23.9773 30.0752 24.366 30.5592 24.806C31.0578 25.2313 31.4612 25.7153 31.7692 26.258C32.0918 26.786 32.2532 27.3653 32.2532 27.996C32.2532 31.5893 29.3125 33.386 23.4312 33.386Z" fill="white"/>
</svg>
