<svg width="74" height="52" viewBox="0 0 74 52" fill="none" xmlns="http://www.w3.org/2000/svg">
<rect x="0.5" y="0.5" width="73" height="51" rx="10.5" fill="black"/>
<rect x="0.5" y="0.5" width="73" height="51" rx="10.5" stroke="black"/>
<path d="M13.016 34.008C12.5573 34.008 12.056 33.9813 11.512 33.928C10.968 33.8853 10.44 33.8213 9.928 33.736C9.42667 33.6613 8.968 33.576 8.552 33.48C8.136 33.384 7.82667 33.288 7.624 33.192C7.528 32.872 7.464 32.4827 7.432 32.024C7.4 31.5653 7.38933 31.112 7.4 30.664C7.42133 30.216 7.45867 29.8107 7.512 29.448C7.576 29.0747 7.656 28.8187 7.752 28.68C8.008 28.744 8.32267 28.824 8.696 28.92C9.08 29.0053 9.48533 29.0853 9.912 29.16C10.3387 29.2347 10.7707 29.2987 11.208 29.352C11.6453 29.4053 12.0453 29.432 12.408 29.432C13.1973 29.432 13.592 29.2987 13.592 29.032C13.592 28.8507 13.4107 28.68 13.048 28.52C12.696 28.36 12.2587 28.1787 11.736 27.976C11.3093 27.816 10.856 27.6187 10.376 27.384C9.90667 27.1493 9.46933 26.8667 9.064 26.536C8.66933 26.2053 8.33867 25.832 8.072 25.416C7.816 24.9893 7.688 24.504 7.688 23.96C7.688 23.352 7.79467 22.8133 8.008 22.344C8.22133 21.8747 8.62133 21.4853 9.208 21.176C9.80533 20.8667 10.6267 20.632 11.672 20.472C12.7173 20.312 14.0667 20.232 15.72 20.232C16.0187 20.232 16.328 20.2427 16.648 20.264C16.968 20.2747 17.272 20.296 17.56 20.328C17.8587 20.36 18.1253 20.3973 18.36 20.44C18.5947 20.472 18.7707 20.5093 18.888 20.552C18.952 20.648 19.0053 20.808 19.048 21.032C19.1013 21.2453 19.144 21.496 19.176 21.784C19.2187 22.072 19.2453 22.3813 19.256 22.712C19.2773 23.032 19.288 23.3467 19.288 23.656C19.288 23.9547 19.2773 24.232 19.256 24.488C19.2347 24.744 19.1973 24.9467 19.144 25.096C18.7493 24.9147 18.3067 24.7813 17.816 24.696C17.336 24.6 16.7707 24.552 16.12 24.552C15.416 24.552 14.8773 24.6 14.504 24.696C14.1413 24.792 13.96 24.9307 13.96 25.112C13.96 25.2933 14.136 25.48 14.488 25.672C14.8507 25.864 15.288 26.072 15.8 26.296C16.1947 26.4667 16.6053 26.6747 17.032 26.92C17.4587 27.1653 17.848 27.448 18.2 27.768C18.5627 28.0773 18.856 28.4293 19.08 28.824C19.3147 29.208 19.432 29.6293 19.432 30.088C19.432 32.7013 17.2933 34.008 13.016 34.008ZM27.9234 20.76C28.0194 20.7067 28.1687 20.664 28.3714 20.632C28.5847 20.5893 28.8247 20.5573 29.0914 20.536C29.3687 20.5147 29.6567 20.504 29.9554 20.504C30.254 20.504 30.542 20.5147 30.8194 20.536C31.0967 20.5573 31.3474 20.5947 31.5714 20.648C31.7954 20.6907 31.966 20.7493 32.0834 20.824C32.094 20.8453 32.0994 20.8613 32.0994 20.872C32.11 20.872 32.1207 20.8827 32.1314 20.904C32.2274 21.1067 32.318 21.384 32.4034 21.736C32.4887 22.0773 32.5634 22.4667 32.6274 22.904C32.702 23.3307 32.766 23.7893 32.8194 24.28C32.8727 24.7707 32.9154 25.2613 32.9474 25.752C32.99 26.2427 33.022 26.7227 33.0434 27.192C33.0647 27.6507 33.0754 28.0667 33.0754 28.44C33.0754 28.7813 33.0807 29.176 33.0914 29.624C33.102 30.072 33.102 30.5307 33.0914 31C33.0914 31.4587 33.0754 31.912 33.0434 32.36C33.022 32.7973 32.974 33.1867 32.8994 33.528C32.878 33.6133 32.846 33.6933 32.8034 33.768C32.7607 33.8427 32.6967 33.896 32.6114 33.928C32.3767 33.9813 32.0674 33.9973 31.6834 33.976C31.2994 33.9547 30.9047 33.9067 30.4994 33.832C30.1047 33.768 29.7207 33.6827 29.3474 33.576C28.9847 33.4693 28.6967 33.352 28.4834 33.224C28.4194 33.096 28.3874 32.9573 28.3874 32.808C28.3874 32.616 28.382 32.3867 28.3714 32.12C28.3714 31.8427 28.3714 31.5653 28.3714 31.288C28.3714 31 28.366 30.7227 28.3554 30.456C28.3554 30.1893 28.3554 29.96 28.3554 29.768C28.3554 29.5867 28.3447 29.4373 28.3234 29.32C28.3127 29.192 28.2647 29.0907 28.1794 29.016C28.094 28.9413 27.966 28.8933 27.7954 28.872C27.6354 28.84 27.4007 28.824 27.0914 28.824C26.75 28.824 26.478 28.8507 26.2754 28.904C26.0834 28.9573 25.934 29.0373 25.8274 29.144C25.7314 29.2507 25.6674 29.3893 25.6354 29.56C25.614 29.72 25.6034 29.9173 25.6034 30.152C25.6034 30.3333 25.614 30.5413 25.6354 30.776C25.6567 31.0107 25.678 31.256 25.6994 31.512C25.7314 31.7573 25.758 31.9973 25.7794 32.232C25.8007 32.4667 25.8114 32.68 25.8114 32.872C25.8114 33.0427 25.7634 33.176 25.6674 33.272C25.5714 33.368 25.454 33.464 25.3154 33.56C25.134 33.6133 24.8674 33.6613 24.5154 33.704C24.174 33.7573 23.8114 33.7893 23.4274 33.8C23.054 33.8107 22.6914 33.8 22.3394 33.768C21.998 33.736 21.7314 33.6667 21.5394 33.56C21.4754 33.496 21.4274 33.432 21.3954 33.368C21.2674 33.112 21.1447 32.6853 21.0274 32.088C20.9207 31.48 20.8247 30.8027 20.7394 30.056C20.654 29.2987 20.5847 28.52 20.5314 27.72C20.4887 26.92 20.4567 26.2 20.4354 25.56C20.4354 25.2827 20.4354 24.9627 20.4354 24.6C20.4354 24.2267 20.4407 23.848 20.4514 23.464C20.4727 23.08 20.4887 22.7013 20.4994 22.328C20.5207 21.9547 20.5474 21.6293 20.5794 21.352C20.59 21.2347 20.6007 21.1227 20.6114 21.016C20.6327 20.9093 20.686 20.8133 20.7714 20.728C20.9207 20.664 21.1234 20.6107 21.3794 20.568C21.6354 20.5253 21.9127 20.4933 22.2114 20.472C22.51 20.4507 22.814 20.44 23.1234 20.44C23.4434 20.44 23.742 20.4507 24.0194 20.472C24.2967 20.4827 24.5367 20.5093 24.7394 20.552C24.942 20.584 25.0754 20.6267 25.1394 20.68C25.2354 20.7973 25.294 20.936 25.3154 21.096C25.3367 21.2453 25.3474 21.4213 25.3474 21.624C25.3474 21.8693 25.342 22.1467 25.3314 22.456C25.3207 22.7653 25.3047 23.08 25.2834 23.4C25.2727 23.72 25.262 24.0347 25.2514 24.344C25.2407 24.6533 25.2354 24.9307 25.2354 25.176C25.2354 25.4 25.2407 25.5867 25.2514 25.736C25.2727 25.8747 25.326 25.9867 25.4114 26.072C25.5074 26.1467 25.6514 26.2 25.8434 26.232C26.046 26.2533 26.3287 26.264 26.6914 26.264C27.0647 26.264 27.3527 26.2533 27.5554 26.232C27.7687 26.2 27.9287 26.1413 28.0354 26.056C28.142 25.96 28.206 25.8267 28.2274 25.656C28.2594 25.4853 28.2754 25.2507 28.2754 24.952C28.2754 24.7387 28.2647 24.504 28.2434 24.248C28.222 23.9813 28.19 23.7147 28.1474 23.448C28.1154 23.1707 28.078 22.8987 28.0354 22.632C27.9927 22.3653 27.9554 22.12 27.9234 21.896C27.8914 21.6933 27.8647 21.48 27.8434 21.256C27.822 21.032 27.8487 20.8667 27.9234 20.76ZM34.8317 24.152C34.9811 24.088 35.1784 24.0347 35.4237 23.992C35.6691 23.9493 35.9411 23.9173 36.2397 23.896C36.5384 23.8747 36.8424 23.8587 37.1517 23.848C37.4717 23.8373 37.7757 23.8427 38.0637 23.864C38.3624 23.8747 38.6237 23.9013 38.8477 23.944C39.0824 23.976 39.2637 24.0187 39.3917 24.072C39.4344 24.1253 39.4611 24.184 39.4717 24.248C39.6104 24.8133 39.7277 25.4587 39.8238 26.184C39.9304 26.8987 40.0157 27.64 40.0798 28.408C40.1544 29.176 40.2131 29.944 40.2558 30.712C40.3091 31.4693 40.3464 32.1733 40.3678 32.824C40.3678 33.0053 40.3251 33.16 40.2397 33.288C39.9731 33.4267 39.6211 33.5387 39.1838 33.624C38.7571 33.7093 38.2984 33.7627 37.8077 33.784C37.3277 33.8053 36.8424 33.7947 36.3517 33.752C35.8611 33.72 35.4184 33.6507 35.0237 33.544C34.9384 33.4373 34.8797 33.336 34.8477 33.24C34.7624 32.8347 34.6984 32.1413 34.6557 31.16C34.6131 30.1787 34.5917 28.968 34.5917 27.528C34.5917 26.8027 34.6024 26.1947 34.6237 25.704C34.6557 25.2133 34.7091 24.7493 34.7837 24.312C34.7837 24.248 34.7997 24.1947 34.8317 24.152ZM34.7997 23.144C34.6504 22.7387 34.5491 22.264 34.4957 21.72C34.4424 21.176 34.4584 20.6693 34.5437 20.2C34.8317 20.104 35.1944 20.0293 35.6317 19.976C36.0797 19.912 36.5437 19.8747 37.0237 19.864C37.5038 19.8427 37.9624 19.848 38.3997 19.88C38.8478 19.912 39.2158 19.9813 39.5037 20.088C39.5358 20.3227 39.5518 20.5787 39.5518 20.856C39.5518 21.1333 39.5411 21.4107 39.5198 21.688C39.4984 21.9653 39.4611 22.2373 39.4078 22.504C39.3651 22.7707 39.3171 23.0107 39.2638 23.224C38.9544 23.288 38.6024 23.336 38.2077 23.368C37.8131 23.3893 37.4131 23.4 37.0077 23.4C36.6024 23.3893 36.2077 23.3627 35.8237 23.32C35.4397 23.2773 35.0984 23.2187 34.7997 23.144ZM46.3057 33.864C46.0284 33.992 45.7084 34.0933 45.3457 34.168C44.9937 34.2533 44.6257 34.3013 44.2417 34.312C43.8684 34.3333 43.4897 34.3227 43.1057 34.28C42.7217 34.248 42.3644 34.184 42.0337 34.088C41.9697 34.024 41.9057 33.8853 41.8417 33.672C41.7884 33.4693 41.7351 33.1813 41.6817 32.808C41.6284 32.4347 41.5857 31.9653 41.5537 31.4C41.5217 30.824 41.5057 30.136 41.5057 29.336C41.5057 29.0373 41.4897 28.6373 41.4577 28.136C41.4257 27.624 41.3937 27.0693 41.3617 26.472C41.3404 25.864 41.3244 25.2453 41.3137 24.616C41.3031 23.9867 41.3191 23.4107 41.3617 22.888C41.4151 22.3547 41.5004 21.9013 41.6177 21.528C41.7351 21.1547 41.9057 20.9253 42.1297 20.84C42.2897 20.776 42.5031 20.7227 42.7697 20.68C43.0471 20.6373 43.3564 20.6 43.6977 20.568C44.0391 20.536 44.3964 20.5147 44.7697 20.504C45.1431 20.4933 45.5004 20.4827 45.8417 20.472C46.1937 20.4613 46.5137 20.456 46.8017 20.456C47.1004 20.456 47.3404 20.456 47.5217 20.456C47.9804 20.456 48.5084 20.4827 49.1058 20.536C49.7137 20.5787 50.2897 20.664 50.8337 20.792C50.9618 21.048 51.0684 21.3627 51.1538 21.736C51.2391 22.1093 51.2924 22.4987 51.3138 22.904C51.3457 23.3093 51.3404 23.704 51.2978 24.088C51.2658 24.4613 51.1964 24.7813 51.0898 25.048C50.9831 25.1333 50.8658 25.1867 50.7378 25.208C50.6097 25.2187 50.4764 25.224 50.3378 25.224C50.0178 25.224 49.6924 25.1867 49.3617 25.112C49.0417 25.0267 48.7218 24.936 48.4018 24.84C48.0818 24.744 47.7564 24.6587 47.4257 24.584C47.1057 24.4987 46.7804 24.456 46.4497 24.456C46.0871 24.456 45.8364 24.4987 45.6977 24.584C45.5697 24.6587 45.5057 24.856 45.5057 25.176C45.5057 25.4853 45.5644 25.7413 45.6817 25.944C45.7991 26.136 46.0551 26.232 46.4497 26.232C46.8657 26.232 47.3031 26.1893 47.7617 26.104C48.2204 26.0187 48.6524 25.992 49.0577 26.024C49.2177 26.12 49.3351 26.3227 49.4097 26.632C49.4951 26.9413 49.5431 27.2827 49.5538 27.656C49.5644 28.0293 49.5324 28.4027 49.4578 28.776C49.3937 29.1493 49.2924 29.4427 49.1537 29.656C48.9617 29.6773 48.7537 29.6667 48.5297 29.624C48.3057 29.5813 48.0764 29.5333 47.8417 29.48C47.6177 29.4267 47.3831 29.3733 47.1377 29.32C46.9031 29.2667 46.6737 29.24 46.4497 29.24C46.2044 29.24 46.0337 29.256 45.9377 29.288C45.8417 29.32 45.7937 29.4587 45.7937 29.704C45.7937 29.992 45.8257 30.28 45.8898 30.568C45.9644 30.856 46.0337 31.1653 46.0977 31.496C46.1724 31.8267 46.2311 32.184 46.2737 32.568C46.3271 32.952 46.3377 33.384 46.3057 33.864ZM61.5071 33.432C61.0271 33.5813 60.5365 33.688 60.0351 33.752C59.5445 33.8267 59.0698 33.864 58.6111 33.864C58.1631 33.864 57.7418 33.8267 57.3471 33.752C56.9525 33.6773 56.6111 33.56 56.3231 33.4C56.2271 33.24 56.1738 33.0747 56.1631 32.904C56.1631 32.7333 56.1631 32.536 56.1631 32.312C56.1631 31.736 56.1845 31.2133 56.2271 30.744C56.2805 30.264 56.3391 29.8 56.4031 29.352C56.4671 28.904 56.5205 28.4507 56.5631 27.992C56.6165 27.5227 56.6431 27.0053 56.6431 26.44C56.6431 26.28 56.6378 26.1253 56.6271 25.976C56.6165 25.8267 56.5738 25.6933 56.4991 25.576C56.4351 25.448 56.3285 25.352 56.1791 25.288C56.0405 25.2133 55.8378 25.176 55.5711 25.176C55.3151 25.176 55.0805 25.1973 54.8671 25.24C54.6538 25.272 54.4458 25.3147 54.2431 25.368C54.0511 25.4107 53.8485 25.4533 53.6351 25.496C53.4325 25.528 53.2031 25.544 52.9471 25.544C52.8618 25.544 52.7978 25.5387 52.7551 25.528C52.5845 25.208 52.4458 24.84 52.3391 24.424C52.2325 24.008 52.1631 23.592 52.1311 23.176C52.0991 22.7493 52.0991 22.3493 52.1311 21.976C52.1738 21.592 52.2538 21.2827 52.3711 21.048C52.8831 20.8987 53.3845 20.7707 53.8751 20.664C54.3658 20.5573 54.8671 20.472 55.3791 20.408C55.9018 20.3333 56.4458 20.28 57.0111 20.248C57.5765 20.216 58.1845 20.2 58.8351 20.2C59.4858 20.2 60.0831 20.216 60.6271 20.248C61.1818 20.28 61.7045 20.3333 62.1951 20.408C62.6965 20.4827 63.1765 20.5733 63.6351 20.68C64.1045 20.7867 64.5791 20.92 65.0591 21.08C65.2405 21.8587 65.3151 22.6267 65.2831 23.384C65.2618 24.1307 65.0645 24.9253 64.6911 25.768C64.3391 25.7147 64.0245 25.6667 63.7471 25.624C63.4698 25.5813 63.2138 25.5387 62.9791 25.496C62.7551 25.4533 62.5471 25.4213 62.3551 25.4C62.1631 25.3787 61.9765 25.368 61.7951 25.368C61.5925 25.368 61.4378 25.4053 61.3311 25.48C61.2245 25.5547 61.1498 25.6453 61.1071 25.752C61.0645 25.8587 61.0378 25.976 61.0271 26.104C61.0271 26.2213 61.0271 26.3333 61.0271 26.44C61.0271 27.0587 61.0485 27.6027 61.0911 28.072C61.1338 28.5413 61.1818 28.984 61.2351 29.4C61.2991 29.816 61.3578 30.2267 61.4111 30.632C61.4751 31.0373 61.5285 31.48 61.5711 31.96C61.6031 32.3867 61.6298 32.7067 61.6511 32.92C61.6725 33.1333 61.6245 33.304 61.5071 33.432Z" fill="white"/>
</svg>
