<svg width="173" height="27" viewBox="0 0 173 27" fill="none" xmlns="http://www.w3.org/2000/svg">
<rect x="0.5" y="0.5" width="172" height="26" rx="10.5" fill="black"/>
<rect x="0.5" y="0.5" width="172" height="26" rx="10.5" stroke="black"/>
<path d="M40.8622 20.008C40.4036 20.008 39.9022 19.9813 39.3582 19.928C38.8142 19.8853 38.2862 19.8213 37.7742 19.736C37.2729 19.6613 36.8142 19.576 36.3982 19.48C35.9822 19.384 35.6729 19.288 35.4702 19.192C35.3742 18.872 35.3102 18.4827 35.2782 18.024C35.2462 17.5653 35.2356 17.112 35.2462 16.664C35.2676 16.216 35.3049 15.8107 35.3582 15.448C35.4222 15.0747 35.5022 14.8187 35.5982 14.68C35.8542 14.744 36.1689 14.824 36.5422 14.92C36.9262 15.0053 37.3316 15.0853 37.7582 15.16C38.1849 15.2347 38.6169 15.2987 39.0542 15.352C39.4916 15.4053 39.8916 15.432 40.2542 15.432C41.0436 15.432 41.4382 15.2987 41.4382 15.032C41.4382 14.8507 41.2569 14.68 40.8942 14.52C40.5422 14.36 40.1049 14.1787 39.5822 13.976C39.1556 13.816 38.7022 13.6187 38.2222 13.384C37.7529 13.1493 37.3156 12.8667 36.9102 12.536C36.5156 12.2053 36.1849 11.832 35.9182 11.416C35.6622 10.9893 35.5342 10.504 35.5342 9.96C35.5342 9.352 35.6409 8.81333 35.8542 8.344C36.0676 7.87467 36.4676 7.48533 37.0542 7.176C37.6516 6.86667 38.4729 6.632 39.5182 6.472C40.5636 6.312 41.9129 6.232 43.5662 6.232C43.8649 6.232 44.1742 6.24267 44.4942 6.264C44.8142 6.27467 45.1182 6.296 45.4062 6.328C45.7049 6.36 45.9716 6.39733 46.2062 6.44C46.4409 6.472 46.6169 6.50933 46.7342 6.552C46.7982 6.648 46.8516 6.808 46.8942 7.032C46.9476 7.24533 46.9902 7.496 47.0222 7.784C47.0649 8.072 47.0916 8.38133 47.1022 8.712C47.1236 9.032 47.1342 9.34667 47.1342 9.656C47.1342 9.95467 47.1236 10.232 47.1022 10.488C47.0809 10.744 47.0436 10.9467 46.9902 11.096C46.5956 10.9147 46.1529 10.7813 45.6622 10.696C45.1822 10.6 44.6169 10.552 43.9662 10.552C43.2622 10.552 42.7236 10.6 42.3502 10.696C41.9876 10.792 41.8062 10.9307 41.8062 11.112C41.8062 11.2933 41.9822 11.48 42.3342 11.672C42.6969 11.864 43.1342 12.072 43.6462 12.296C44.0409 12.4667 44.4516 12.6747 44.8782 12.92C45.3049 13.1653 45.6942 13.448 46.0462 13.768C46.4089 14.0773 46.7022 14.4293 46.9262 14.824C47.1609 15.208 47.2782 15.6293 47.2782 16.088C47.2782 18.7013 45.1396 20.008 40.8622 20.008ZM52.9056 19.544C52.6283 19.64 52.303 19.7147 51.9296 19.768C51.567 19.8213 51.199 19.848 50.8256 19.848C50.463 19.848 50.111 19.8267 49.7696 19.784C49.439 19.752 49.1616 19.6933 48.9376 19.608C48.8096 19.4373 48.7136 19.2347 48.6496 19C48.5856 18.776 48.543 18.5307 48.5216 18.264C48.5003 17.9973 48.4896 17.72 48.4896 17.432C48.4896 17.1333 48.4896 16.8347 48.4896 16.536C48.4896 15.5867 48.511 14.6427 48.5536 13.704C48.5963 12.7653 48.6176 11.8213 48.6176 10.872C48.6176 10.7013 48.6176 10.536 48.6176 10.376C48.6283 10.2053 48.623 10.0347 48.6016 9.864C48.591 9.768 48.5483 9.68267 48.4736 9.608C48.399 9.53333 48.319 9.44267 48.2336 9.336C48.159 9.21867 48.0896 9.06933 48.0256 8.888C47.9616 8.70667 47.9296 8.45067 47.9296 8.12C47.9296 7.78933 47.9403 7.53333 47.9616 7.352C47.9936 7.16 48.0363 7.01067 48.0896 6.904C48.143 6.79733 48.207 6.72267 48.2816 6.68C48.367 6.62667 48.4683 6.57867 48.5856 6.536C48.6816 6.49333 48.847 6.456 49.0816 6.424C49.3163 6.38133 49.5723 6.344 49.8496 6.312C50.1376 6.28 50.415 6.25867 50.6816 6.248C50.9483 6.22667 51.1616 6.216 51.3216 6.216C52.015 6.216 52.7136 6.22133 53.4176 6.232C54.1323 6.24267 54.8203 6.29067 55.4816 6.376C56.1536 6.46133 56.783 6.61067 57.3696 6.824C57.9563 7.02667 58.4683 7.32533 58.9056 7.72C59.343 8.104 59.6896 8.60533 59.9456 9.224C60.2016 9.84267 60.3296 10.6107 60.3296 11.528C60.3296 12.328 60.2123 12.9947 59.9776 13.528C59.7536 14.0613 59.455 14.4987 59.0816 14.84C58.719 15.1707 58.303 15.4213 57.8336 15.592C57.3643 15.7627 56.8896 15.8853 56.4096 15.96C55.9296 16.024 55.4603 16.056 55.0016 16.056C54.543 16.056 54.143 16.056 53.8016 16.056C53.5883 16.056 53.4176 16.0667 53.2896 16.088C53.1723 16.0987 53.0816 16.136 53.0176 16.2C52.9643 16.264 52.927 16.3547 52.9056 16.472C52.895 16.5893 52.8896 16.7493 52.8896 16.952C52.8896 17.08 52.895 17.24 52.9056 17.432C52.9163 17.624 52.927 17.8267 52.9376 18.04C52.9483 18.2427 52.959 18.44 52.9696 18.632C52.9803 18.824 52.9856 18.984 52.9856 19.112C52.9856 19.2933 52.959 19.4373 52.9056 19.544ZM52.9696 11.416C52.9696 11.736 52.9856 11.9867 53.0176 12.168C53.0496 12.3387 53.1136 12.4667 53.2096 12.552C53.3056 12.6373 53.439 12.6907 53.6096 12.712C53.791 12.7333 54.0203 12.744 54.2976 12.744C54.5003 12.744 54.7243 12.7227 54.9696 12.68C55.2256 12.6373 55.4603 12.5627 55.6736 12.456C55.887 12.3387 56.0683 12.184 56.2176 11.992C56.367 11.7893 56.4416 11.5333 56.4416 11.224C56.4416 11.064 56.4096 10.904 56.3456 10.744C56.2816 10.5733 56.1696 10.424 56.0096 10.296C55.8603 10.168 55.6576 10.0667 55.4016 9.992C55.1456 9.90667 54.8256 9.864 54.4416 9.864C54.1323 9.864 53.8816 9.88533 53.6896 9.928C53.4976 9.97067 53.3483 10.0507 53.2416 10.168C53.135 10.2853 53.0603 10.4453 53.0176 10.648C52.9856 10.84 52.9696 11.096 52.9696 11.416ZM74.6157 18.76C74.5091 18.9093 74.2691 19.0373 73.8957 19.144C73.5224 19.2507 73.0957 19.3307 72.6157 19.384C72.1464 19.4373 71.6664 19.4587 71.1757 19.448C70.6957 19.4373 70.2904 19.3893 69.9597 19.304C69.8424 18.984 69.7091 18.664 69.5597 18.344C69.4104 18.0133 69.2931 17.6987 69.2077 17.4C69.1651 17.2187 69.0957 17.08 68.9997 16.984C68.9144 16.888 68.7971 16.8187 68.6477 16.776C68.5091 16.7227 68.3277 16.6907 68.1037 16.68C67.8904 16.6693 67.6291 16.664 67.3197 16.664C67.1704 16.664 66.9944 16.664 66.7917 16.664C66.5891 16.6533 66.3917 16.6533 66.1997 16.664C66.0077 16.6747 65.8317 16.696 65.6717 16.728C65.5117 16.7493 65.4051 16.792 65.3517 16.856C65.2984 16.92 65.2504 16.984 65.2077 17.048C65.1651 17.1013 65.1224 17.1707 65.0797 17.256C65.0371 17.3413 64.9891 17.448 64.9357 17.576C64.8931 17.704 64.8344 17.8747 64.7597 18.088C64.6957 18.28 64.6424 18.4507 64.5997 18.6C64.5571 18.7493 64.5197 18.8827 64.4877 19C64.4557 19.1067 64.4237 19.208 64.3917 19.304C64.3597 19.4 64.3171 19.4907 64.2637 19.576C63.9331 19.608 63.5651 19.6027 63.1597 19.56C62.7544 19.528 62.3544 19.4693 61.9597 19.384C61.5651 19.3093 61.1971 19.2133 60.8557 19.096C60.5251 18.9787 60.2637 18.8507 60.0717 18.712C60.0717 18.584 60.0877 18.44 60.1197 18.28C60.1517 18.1093 60.1837 17.9387 60.2157 17.768C60.2584 17.5867 60.3011 17.416 60.3437 17.256C60.3864 17.0853 60.4237 16.936 60.4557 16.808C60.6157 16.104 60.8077 15.3147 61.0317 14.44C61.2664 13.5547 61.5331 12.6747 61.8317 11.8C62.1411 10.9147 62.4771 10.0827 62.8397 9.304C63.2131 8.52533 63.6237 7.896 64.0717 7.416C64.2211 7.256 64.4184 7.12267 64.6637 7.016C64.9197 6.90933 65.2077 6.824 65.5277 6.76C65.8477 6.68533 66.1837 6.632 66.5357 6.6C66.8877 6.568 67.2397 6.552 67.5917 6.552C67.8371 6.552 68.1197 6.57333 68.4397 6.616C68.7704 6.65867 69.0957 6.728 69.4157 6.824C69.7464 6.92 70.0557 7.05333 70.3437 7.224C70.6424 7.384 70.8771 7.592 71.0477 7.848C71.2931 8.2 71.5331 8.62667 71.7677 9.128C72.0024 9.61867 72.2264 10.1573 72.4397 10.744C72.6637 11.3307 72.8771 11.9493 73.0797 12.6C73.2824 13.2507 73.4691 13.9013 73.6397 14.552C73.8211 15.2027 73.9811 15.8427 74.1197 16.472C74.2691 17.1013 74.4024 17.688 74.5197 18.232C74.5411 18.3173 74.5624 18.408 74.5837 18.504C74.6157 18.5893 74.6264 18.6747 74.6157 18.76ZM66.1197 13.464C66.0664 13.7307 66.1251 13.8853 66.2957 13.928C66.4771 13.9813 66.6584 14.008 66.8397 14.008C67.0317 13.9973 67.2184 13.992 67.3997 13.992C67.6877 13.992 67.9224 13.9813 68.1037 13.96C68.2957 13.928 68.4397 13.8907 68.5357 13.848C68.6317 13.7947 68.6904 13.7413 68.7117 13.688C68.7437 13.624 68.7491 13.5547 68.7277 13.48C68.6957 13.3413 68.6477 13.1067 68.5837 12.776C68.5197 12.4347 68.4344 12.088 68.3277 11.736C68.2211 11.384 68.0877 11.0747 67.9277 10.808C67.7784 10.5413 67.5971 10.408 67.3837 10.408C67.2237 10.408 67.0744 10.536 66.9357 10.792C66.7971 11.0373 66.6744 11.3307 66.5677 11.672C66.4611 12.0133 66.3651 12.3547 66.2797 12.696C66.2051 13.0267 66.1517 13.2827 66.1197 13.464ZM85.6162 14.68C85.7122 14.8187 85.7869 15.0747 85.8402 15.448C85.8936 15.8107 85.9256 16.216 85.9362 16.664C85.9576 17.112 85.9522 17.5653 85.9202 18.024C85.8882 18.4827 85.8242 18.872 85.7282 19.192C85.5256 19.288 85.2696 19.3893 84.9602 19.496C84.6509 19.6027 84.2989 19.6987 83.9042 19.784C83.5202 19.8693 83.1096 19.9387 82.6722 19.992C82.2349 20.056 81.7869 20.088 81.3282 20.088C80.3576 20.088 79.4669 19.9653 78.6562 19.72C77.8456 19.4747 77.1522 19.08 76.5762 18.536C76.0002 17.9813 75.5522 17.2613 75.2322 16.376C74.9122 15.48 74.7522 14.392 74.7522 13.112C74.7522 11.8 74.9176 10.712 75.2482 9.848C75.5789 8.984 76.0429 8.296 76.6402 7.784C77.2482 7.272 77.9682 6.91467 78.8002 6.712C79.6429 6.50933 80.5762 6.408 81.6002 6.408C82.4322 6.408 83.1682 6.45067 83.8082 6.536C84.4589 6.62133 84.9869 6.73333 85.3922 6.872C85.4562 6.968 85.5096 7.13333 85.5522 7.368C85.6056 7.592 85.6482 7.848 85.6802 8.136C85.7122 8.424 85.7389 8.73333 85.7602 9.064C85.7816 9.39467 85.7869 9.71467 85.7762 10.024C85.7762 10.3227 85.7656 10.5947 85.7442 10.84C85.7229 11.0853 85.6909 11.2773 85.6482 11.416C85.3709 11.288 85.1149 11.1387 84.8802 10.968C84.6456 10.7973 84.3949 10.6373 84.1282 10.488C83.8722 10.3387 83.5736 10.216 83.2322 10.12C82.8909 10.0133 82.4802 9.96 82.0002 9.96C81.6482 9.96 81.2962 10.024 80.9442 10.152C80.6029 10.28 80.2936 10.472 80.0162 10.728C79.7496 10.9733 79.5309 11.2827 79.3602 11.656C79.2002 12.0293 79.1202 12.4613 79.1202 12.952C79.1202 13.944 79.3442 14.6747 79.7922 15.144C80.2509 15.6027 80.8642 15.832 81.6322 15.832C81.9949 15.832 82.3576 15.784 82.7202 15.688C83.0829 15.592 83.4349 15.48 83.7762 15.352C84.1282 15.224 84.4589 15.096 84.7682 14.968C85.0776 14.84 85.3602 14.744 85.6162 14.68ZM96.2976 15.88C96.415 16.0613 96.5056 16.3173 96.5696 16.648C96.6443 16.968 96.6923 17.3093 96.7136 17.672C96.735 18.0347 96.735 18.392 96.7136 18.744C96.6923 19.096 96.639 19.3893 96.5536 19.624C96.255 19.7413 95.9083 19.8267 95.5136 19.88C95.1296 19.944 94.7296 19.9867 94.3136 20.008C93.8976 20.04 93.487 20.056 93.0816 20.056C92.6763 20.0667 92.2976 20.072 91.9456 20.072C90.7616 20.072 89.8336 20.0507 89.1616 20.008C88.5003 19.9653 88.0096 19.8533 87.6896 19.672C87.3696 19.5013 87.1723 19.2347 87.0976 18.872C87.023 18.5093 86.9856 18.0027 86.9856 17.352C86.9856 16.8507 86.9803 16.3333 86.9696 15.8C86.9696 15.256 86.9643 14.7387 86.9536 14.248C86.9216 13.2667 86.9056 12.2853 86.9056 11.304C86.9056 11.2613 86.9003 11.2133 86.8896 11.16C86.8896 11.1067 86.8896 11.0427 86.8896 10.968C86.879 10.8507 86.8736 10.7227 86.8736 10.584C86.8736 10.4347 86.8736 10.2853 86.8736 10.136C86.8736 9.848 86.8683 9.528 86.8576 9.176C86.8576 8.81333 86.8736 8.472 86.9056 8.152C86.9483 7.82133 87.0176 7.528 87.1136 7.272C87.2203 7.016 87.375 6.84533 87.5776 6.76C87.9083 6.62133 88.271 6.52 88.6656 6.456C89.071 6.392 89.4816 6.34933 89.8976 6.328C90.3136 6.30667 90.719 6.30133 91.1136 6.312C91.519 6.312 91.887 6.312 92.2176 6.312C92.495 6.312 92.799 6.32267 93.1296 6.344C93.471 6.36533 93.8176 6.40267 94.1696 6.456C94.5216 6.49867 94.863 6.55733 95.1936 6.632C95.535 6.696 95.839 6.78133 96.1056 6.888C96.2016 7.05867 96.2656 7.288 96.2976 7.576C96.3403 7.864 96.3563 8.168 96.3456 8.488C96.335 8.808 96.3083 9.128 96.2656 9.448C96.2336 9.75733 96.191 10.0347 96.1376 10.28C95.999 10.3227 95.8443 10.3547 95.6736 10.376C95.5136 10.3867 95.311 10.392 95.0656 10.392C94.831 10.392 94.543 10.392 94.2016 10.392C93.871 10.3813 93.4656 10.376 92.9856 10.376H92.1856C91.8443 10.376 91.567 10.3813 91.3536 10.392C91.151 10.392 90.991 10.4133 90.8736 10.456C90.7563 10.4987 90.6763 10.5627 90.6336 10.648C90.6016 10.7333 90.5856 10.8507 90.5856 11C90.5856 11.1067 90.5963 11.2133 90.6176 11.32C90.639 11.416 90.6816 11.5067 90.7456 11.592C90.8203 11.6773 90.9216 11.7467 91.0496 11.8C91.1776 11.8533 91.3483 11.88 91.5616 11.88C91.7536 11.88 91.9936 11.8747 92.2816 11.864C92.5696 11.8533 92.8043 11.8373 92.9856 11.816C93.167 11.7947 93.343 11.7787 93.5136 11.768C93.695 11.7573 93.8763 11.752 94.0576 11.752C94.2283 11.752 94.383 11.768 94.5216 11.8C94.5856 12.0027 94.6336 12.248 94.6656 12.536C94.6976 12.824 94.7136 13.112 94.7136 13.4C94.7136 13.688 94.703 13.96 94.6816 14.216C94.6603 14.4613 94.6336 14.6427 94.6016 14.76C94.527 14.7813 94.431 14.808 94.3136 14.84C94.1963 14.872 94.1003 14.888 94.0256 14.888C93.887 14.888 93.7483 14.8827 93.6096 14.872C93.471 14.8613 93.327 14.8453 93.1776 14.824C93.0283 14.8027 92.831 14.7867 92.5856 14.776C92.3403 14.7653 92.1376 14.76 91.9776 14.76C91.5936 14.76 91.3163 14.8293 91.1456 14.968C90.9856 15.096 90.9056 15.2453 90.9056 15.416C90.9056 15.704 90.9856 15.8907 91.1456 15.976C91.3056 16.0613 91.6256 16.104 92.1056 16.104C92.2443 16.104 92.399 16.104 92.5696 16.104C92.7403 16.0933 92.911 16.0827 93.0816 16.072C93.263 16.0507 93.439 16.0347 93.6096 16.024C93.7803 16.0027 93.9296 15.9867 94.0576 15.976C94.335 15.944 94.655 15.9173 95.0176 15.896C95.391 15.864 95.7163 15.848 95.9936 15.848C96.047 15.848 96.095 15.8533 96.1376 15.864C96.191 15.864 96.2443 15.8693 96.2976 15.88ZM103.878 12.056C104.08 12.056 104.283 12.0293 104.486 11.976C104.688 11.912 104.87 11.8213 105.03 11.704C105.19 11.576 105.318 11.4213 105.414 11.24C105.52 11.0587 105.574 10.8507 105.574 10.616C105.574 10.2853 105.419 10.008 105.11 9.784C104.811 9.56 104.406 9.448 103.894 9.448C103.67 9.448 103.478 9.464 103.318 9.496C103.168 9.528 103.046 9.592 102.95 9.688C102.854 9.77333 102.784 9.90133 102.742 10.072C102.71 10.232 102.694 10.4507 102.694 10.728C102.694 11.2613 102.779 11.6187 102.95 11.8C103.131 11.9707 103.44 12.056 103.878 12.056ZM103.798 16.568C103.968 16.568 104.15 16.5413 104.342 16.488C104.544 16.4347 104.731 16.3653 104.902 16.28C105.083 16.184 105.232 16.072 105.35 15.944C105.467 15.816 105.526 15.6773 105.526 15.528C105.526 15.0587 105.382 14.712 105.094 14.488C104.806 14.264 104.342 14.152 103.702 14.152C103.318 14.152 103.046 14.232 102.886 14.392C102.726 14.552 102.646 14.8827 102.646 15.384C102.646 15.64 102.667 15.848 102.71 16.008C102.752 16.1573 102.816 16.2747 102.902 16.36C102.998 16.4453 103.115 16.504 103.254 16.536C103.403 16.5573 103.584 16.568 103.798 16.568ZM98.5657 9.544C98.0004 9.56533 97.6324 9.47467 97.4617 9.272C97.3764 9.048 97.3284 8.75467 97.3177 8.392C97.2964 8.01867 97.3337 7.63467 97.4297 7.24C97.5044 7.05867 97.6911 6.91467 97.9897 6.808C98.2884 6.70133 98.6404 6.62667 99.0457 6.584C99.4617 6.53067 99.9097 6.49867 100.39 6.488C100.87 6.47733 101.328 6.47733 101.766 6.488C102.214 6.49867 102.614 6.51467 102.966 6.536C103.318 6.54667 103.579 6.552 103.75 6.552H103.782C104.443 6.552 105.131 6.616 105.846 6.744C106.571 6.86133 107.238 7.064 107.846 7.352C108.454 7.64 108.955 8.01867 109.35 8.488C109.744 8.95733 109.942 9.544 109.942 10.248C109.942 10.856 109.75 11.3413 109.366 11.704C108.982 12.0667 108.47 12.344 107.83 12.536C107.574 12.6213 107.387 12.7067 107.27 12.792C107.163 12.8773 107.11 12.9307 107.11 12.952C107.11 13.0053 107.227 13.0747 107.462 13.16C107.707 13.2347 107.984 13.304 108.294 13.368C109.03 13.528 109.59 13.8 109.974 14.184C110.368 14.568 110.566 15.112 110.566 15.816C110.566 15.9867 110.55 16.1787 110.518 16.392C110.486 16.6053 110.422 16.8293 110.326 17.064C110.24 17.288 110.118 17.5173 109.958 17.752C109.808 17.9867 109.606 18.216 109.35 18.44C109.008 18.7387 108.582 18.9787 108.07 19.16C107.558 19.352 106.998 19.5013 106.39 19.608C105.782 19.7147 105.136 19.7893 104.454 19.832C103.771 19.8747 103.083 19.896 102.39 19.896C102.102 19.896 101.776 19.8747 101.414 19.832C101.062 19.7893 100.715 19.72 100.374 19.624C100.032 19.5387 99.7231 19.4213 99.4457 19.272C99.1684 19.1333 98.9711 18.9627 98.8537 18.76C98.6724 18.44 98.5497 18.1413 98.4857 17.864C98.4217 17.5867 98.3844 17.2667 98.3737 16.904C98.3737 16.5413 98.3844 16.1093 98.4057 15.608C98.4377 15.1067 98.4537 14.4773 98.4537 13.72C98.4537 13.4 98.4697 13.016 98.5017 12.568C98.5337 12.12 98.5604 11.688 98.5817 11.272C98.6031 10.8453 98.6191 10.472 98.6297 10.152C98.6404 9.82133 98.6191 9.61867 98.5657 9.544ZM125.506 18.76C125.399 18.9093 125.159 19.0373 124.786 19.144C124.412 19.2507 123.986 19.3307 123.506 19.384C123.036 19.4373 122.556 19.4587 122.066 19.448C121.586 19.4373 121.18 19.3893 120.85 19.304C120.732 18.984 120.599 18.664 120.45 18.344C120.3 18.0133 120.183 17.6987 120.098 17.4C120.055 17.2187 119.986 17.08 119.89 16.984C119.804 16.888 119.687 16.8187 119.538 16.776C119.399 16.7227 119.218 16.6907 118.994 16.68C118.78 16.6693 118.519 16.664 118.21 16.664C118.06 16.664 117.884 16.664 117.682 16.664C117.479 16.6533 117.282 16.6533 117.09 16.664C116.898 16.6747 116.722 16.696 116.562 16.728C116.402 16.7493 116.295 16.792 116.242 16.856C116.188 16.92 116.14 16.984 116.098 17.048C116.055 17.1013 116.012 17.1707 115.97 17.256C115.927 17.3413 115.879 17.448 115.826 17.576C115.783 17.704 115.724 17.8747 115.65 18.088C115.586 18.28 115.532 18.4507 115.49 18.6C115.447 18.7493 115.41 18.8827 115.378 19C115.346 19.1067 115.314 19.208 115.282 19.304C115.25 19.4 115.207 19.4907 115.154 19.576C114.823 19.608 114.455 19.6027 114.05 19.56C113.644 19.528 113.244 19.4693 112.85 19.384C112.455 19.3093 112.087 19.2133 111.746 19.096C111.415 18.9787 111.154 18.8507 110.962 18.712C110.962 18.584 110.978 18.44 111.01 18.28C111.042 18.1093 111.074 17.9387 111.106 17.768C111.148 17.5867 111.191 17.416 111.234 17.256C111.276 17.0853 111.314 16.936 111.346 16.808C111.506 16.104 111.698 15.3147 111.922 14.44C112.156 13.5547 112.423 12.6747 112.722 11.8C113.031 10.9147 113.367 10.0827 113.73 9.304C114.103 8.52533 114.514 7.896 114.962 7.416C115.111 7.256 115.308 7.12267 115.554 7.016C115.81 6.90933 116.098 6.824 116.418 6.76C116.738 6.68533 117.074 6.632 117.426 6.6C117.778 6.568 118.13 6.552 118.482 6.552C118.727 6.552 119.01 6.57333 119.33 6.616C119.66 6.65867 119.986 6.728 120.306 6.824C120.636 6.92 120.946 7.05333 121.234 7.224C121.532 7.384 121.767 7.592 121.938 7.848C122.183 8.2 122.423 8.62667 122.658 9.128C122.892 9.61867 123.116 10.1573 123.33 10.744C123.554 11.3307 123.767 11.9493 123.97 12.6C124.172 13.2507 124.359 13.9013 124.53 14.552C124.711 15.2027 124.871 15.8427 125.01 16.472C125.159 17.1013 125.292 17.688 125.41 18.232C125.431 18.3173 125.452 18.408 125.474 18.504C125.506 18.5893 125.516 18.6747 125.506 18.76ZM117.01 13.464C116.956 13.7307 117.015 13.8853 117.186 13.928C117.367 13.9813 117.548 14.008 117.73 14.008C117.922 13.9973 118.108 13.992 118.29 13.992C118.578 13.992 118.812 13.9813 118.994 13.96C119.186 13.928 119.33 13.8907 119.426 13.848C119.522 13.7947 119.58 13.7413 119.602 13.688C119.634 13.624 119.639 13.5547 119.618 13.48C119.586 13.3413 119.538 13.1067 119.474 12.776C119.41 12.4347 119.324 12.088 119.218 11.736C119.111 11.384 118.978 11.0747 118.818 10.808C118.668 10.5413 118.487 10.408 118.274 10.408C118.114 10.408 117.964 10.536 117.826 10.792C117.687 11.0373 117.564 11.3307 117.458 11.672C117.351 12.0133 117.255 12.3547 117.17 12.696C117.095 13.0267 117.042 13.2827 117.01 13.464ZM138.964 18.92C138.74 19.0373 138.458 19.144 138.116 19.24C137.786 19.336 137.434 19.4107 137.06 19.464C136.687 19.528 136.308 19.5653 135.924 19.576C135.551 19.5867 135.199 19.56 134.868 19.496C134.559 19.3147 134.287 19.0427 134.052 18.68C133.828 18.3173 133.631 17.9547 133.46 17.592C133.055 16.7707 132.698 16.2107 132.388 15.912C132.079 15.6027 131.85 15.448 131.7 15.448C131.53 15.448 131.423 15.48 131.38 15.544C131.348 15.5973 131.332 15.6827 131.332 15.8C131.332 15.896 131.354 16.088 131.396 16.376C131.439 16.664 131.476 16.984 131.508 17.336C131.54 17.688 131.546 18.04 131.524 18.392C131.514 18.744 131.45 19.032 131.332 19.256C131.076 19.3413 130.772 19.416 130.42 19.48C130.068 19.544 129.706 19.592 129.332 19.624C128.959 19.656 128.591 19.672 128.228 19.672C127.876 19.672 127.572 19.6453 127.316 19.592C127.263 19.5387 127.21 19.448 127.156 19.32C127.114 19.192 127.082 19.0853 127.06 19C127.018 18.776 126.98 18.4773 126.948 18.104C126.916 17.72 126.884 17.2933 126.852 16.824C126.831 16.3547 126.81 15.8587 126.788 15.336C126.778 14.8133 126.762 14.296 126.74 13.784C126.73 13.272 126.719 12.7867 126.708 12.328C126.708 11.8587 126.708 11.4533 126.708 11.112V11.016C126.708 10.8347 126.703 10.6693 126.692 10.52C126.682 10.3707 126.618 10.2693 126.5 10.216C126.436 10.184 126.362 10.1467 126.276 10.104C126.191 10.0507 126.106 9.97067 126.02 9.864C125.946 9.74667 125.882 9.592 125.828 9.4C125.775 9.19733 125.738 8.936 125.716 8.616C125.706 8.456 125.706 8.29067 125.716 8.12C125.727 7.93867 125.754 7.768 125.796 7.608C125.839 7.43733 125.898 7.28267 125.972 7.144C126.058 6.99467 126.164 6.872 126.292 6.776C126.591 6.56267 127.044 6.44533 127.652 6.424C128.271 6.392 129.034 6.376 129.94 6.376C130.548 6.376 131.183 6.38133 131.844 6.392C132.506 6.392 133.151 6.424 133.78 6.488C134.41 6.552 135.007 6.65867 135.572 6.808C136.138 6.94667 136.634 7.16 137.06 7.448C137.487 7.72533 137.823 8.09333 138.068 8.552C138.324 9 138.452 9.55467 138.452 10.216C138.452 10.6533 138.383 11.0427 138.244 11.384C138.116 11.7253 137.951 12.0293 137.748 12.296C137.546 12.552 137.327 12.7813 137.092 12.984C136.868 13.176 136.655 13.3467 136.452 13.496C136.25 13.6347 136.079 13.7573 135.94 13.864C135.812 13.96 135.748 14.0453 135.748 14.12C135.748 14.1627 135.828 14.264 135.988 14.424C136.148 14.5733 136.346 14.7653 136.58 15C136.815 15.2347 137.071 15.5067 137.348 15.816C137.636 16.1147 137.898 16.4347 138.132 16.776C138.367 17.1067 138.564 17.4587 138.724 17.832C138.884 18.1947 138.964 18.5573 138.964 18.92ZM130.644 11.096C130.644 11.352 130.655 11.5707 130.676 11.752C130.698 11.9227 130.74 12.0667 130.804 12.184C130.879 12.3013 130.986 12.3867 131.124 12.44C131.274 12.4933 131.471 12.52 131.716 12.52C131.898 12.52 132.111 12.488 132.356 12.424C132.602 12.3493 132.836 12.2533 133.06 12.136C133.295 12.008 133.492 11.864 133.652 11.704C133.812 11.544 133.892 11.3733 133.892 11.192C133.892 10.7973 133.7 10.4827 133.316 10.248C132.932 10.0133 132.452 9.896 131.876 9.896C131.428 9.896 131.108 9.97067 130.916 10.12C130.735 10.2693 130.644 10.5947 130.644 11.096Z" fill="white"/>
</svg>
