<svg width="50" height="50" viewBox="0 0 50 50" fill="none" xmlns="http://www.w3.org/2000/svg">
<rect width="50" height="50" rx="10" fill="black"/>
<path d="M33.5123 32.418C33.175 32.506 32.801 32.5867 32.3903 32.66C31.9796 32.748 31.5543 32.8067 31.1143 32.836C30.6743 32.88 30.2343 32.8947 29.7943 32.88C29.3543 32.8653 28.9363 32.814 28.5403 32.726C28.3496 32.55 28.1663 32.3153 27.9903 32.022C27.8143 31.7287 27.6383 31.4207 27.4623 31.098C27.301 30.7753 27.1396 30.4527 26.9783 30.13C26.817 29.8073 26.6556 29.5287 26.4943 29.294C26.4063 29.1473 26.311 28.986 26.2083 28.81C26.1056 28.634 25.9956 28.4653 25.8783 28.304C25.673 28.1427 25.4236 28.0767 25.1303 28.106C24.837 28.1207 24.573 28.1867 24.3383 28.304C24.265 28.48 24.1916 28.6707 24.1183 28.876C24.045 29.0667 23.9643 29.2427 23.8763 29.404C23.7736 29.6387 23.6563 29.9393 23.5243 30.306C23.3923 30.658 23.2456 31.0173 23.0843 31.384C22.9376 31.7507 22.7763 32.0807 22.6003 32.374C22.439 32.682 22.2703 32.902 22.0943 33.034C21.7863 33.122 21.4123 33.188 20.9723 33.232C20.547 33.276 20.0996 33.298 19.6303 33.298C19.1756 33.298 18.721 33.276 18.2663 33.232C17.8263 33.188 17.4303 33.122 17.0783 33.034C16.785 32.8727 16.5576 32.6527 16.3963 32.374C16.235 32.0953 16.0736 31.78 15.9123 31.428C15.575 30.7093 15.2743 29.822 15.0103 28.766C14.7463 27.71 14.519 26.588 14.3283 25.4C14.1376 24.212 13.991 23.0093 13.8883 21.792C13.8003 20.56 13.7563 19.416 13.7563 18.36C13.7563 17.3773 13.8003 16.424 13.8883 15.5C13.903 15.2213 14.0276 14.9793 14.2623 14.774C14.5556 14.642 14.915 14.5393 15.3403 14.466C15.7656 14.3927 16.213 14.356 16.6823 14.356C17.1516 14.3413 17.6063 14.356 18.0463 14.4C18.4863 14.444 18.8603 14.5247 19.1683 14.642C19.2563 14.7153 19.337 14.7813 19.4103 14.84C19.4836 14.8987 19.5496 14.9647 19.6083 15.038C19.8576 15.346 20.0556 15.7567 20.2023 16.27C20.3636 16.7833 20.4956 17.326 20.5983 17.898C20.701 18.47 20.7743 19.0493 20.8183 19.636C20.877 20.208 20.9283 20.7287 20.9723 21.198C21.0456 21.858 21.1263 22.4153 21.2143 22.87C21.3023 23.31 21.4856 23.53 21.7643 23.53C22.0283 23.53 22.2483 23.4053 22.4243 23.156C22.615 22.892 22.813 22.5693 23.0183 22.188C23.1356 21.968 23.253 21.726 23.3703 21.462C23.4876 21.1833 23.605 20.912 23.7223 20.648C23.8396 20.3693 23.9643 20.1053 24.0963 19.856C24.243 19.6067 24.3896 19.394 24.5363 19.218C24.8296 19.086 25.145 19.042 25.4823 19.086C25.8343 19.1153 26.1643 19.2033 26.4723 19.35C26.7656 19.7313 27.0296 20.1933 27.2643 20.736C27.499 21.2787 27.697 21.77 27.8583 22.21C28.0343 22.694 28.2176 23.1193 28.4083 23.486C28.599 23.8527 28.8776 24.036 29.2443 24.036C29.5083 24.036 29.677 23.904 29.7503 23.64C29.8383 23.3613 29.8823 22.9947 29.8823 22.54C29.8823 22.3787 29.8823 22.2173 29.8823 22.056C29.8823 21.88 29.875 21.6967 29.8603 21.506C29.8603 21.286 29.853 21.066 29.8383 20.846C29.8383 20.6113 29.8383 20.3767 29.8383 20.142C29.8383 19.702 29.8383 19.2107 29.8383 18.668C29.853 18.1107 29.897 17.5753 29.9703 17.062C30.0436 16.534 30.161 16.05 30.3223 15.61C30.4983 15.1553 30.7476 14.8107 31.0703 14.576C31.569 14.532 32.0823 14.51 32.6103 14.51C33.153 14.4953 33.6883 14.5027 34.2163 14.532C34.7443 14.5613 35.243 14.6127 35.7123 14.686C36.1963 14.7593 36.6363 14.8693 37.0323 15.016C37.179 15.236 37.2523 15.4487 37.2523 15.654C37.2523 16.0647 37.223 16.7027 37.1643 17.568C37.1203 18.4187 37.0396 19.3867 36.9223 20.472C36.805 21.5573 36.651 22.7013 36.4603 23.904C36.2843 25.1067 36.057 26.258 35.7783 27.358C35.4996 28.458 35.1696 29.4553 34.7883 30.35C34.4216 31.2447 33.9963 31.934 33.5123 32.418Z" fill="white"/>
</svg>
