<svg width="265" height="221" viewBox="0 0 265 221" fill="none" xmlns="http://www.w3.org/2000/svg">
<path opacity="0.15" d="M64.884 186.35C64.884 187.425 66.527 188.489 69.7191 189.482C72.9111 190.475 77.5898 191.377 83.488 192.138C89.3862 192.898 96.3884 193.501 104.095 193.912C111.801 194.323 120.061 194.535 128.402 194.535C136.743 194.535 145.003 194.323 152.709 193.912C160.416 193.501 167.418 192.898 173.316 192.138C179.214 191.377 183.893 190.475 187.085 189.482C190.277 188.489 191.92 187.425 191.92 186.35C191.92 184.179 185.228 182.097 173.316 180.562C161.404 179.027 145.248 178.165 128.402 178.165C111.556 178.165 95.4 179.027 83.488 180.562C71.5761 182.097 64.884 184.179 64.884 186.35Z" fill="#F065FF"/>
<path d="M192 160C214.396 160 232.547 140.219 232.547 115.823C232.547 92.4359 216.145 72.5454 195.047 71" stroke="#D59EDC" stroke-width="5" stroke-linecap="round" stroke-linejoin="round"/>
<path d="M53.8445 158C33 161 15.5001 140 18.0001 117C18.0001 95.6405 32.6305 78.1011 50.3484 76.198C51.0569 76.1176 51.7164 75.7951 52.2172 75.2843C52.7179 74.7735 53.0295 74.1053 53.0999 73.3912C54.4307 58.044 67.3006 46.0033 82.9801 46.0033C86.8845 45.9626 90.757 46.7148 94.3661 48.2148C95.6758 48.7676 97.1545 48.2573 98.0417 47.141C107.162 35.7063 121.22 28 137 28" stroke="#FCE1FF" stroke-width="4" stroke-linecap="round" stroke-linejoin="round"/>
<path d="M192 160C214.396 160 232.547 140.219 232.547 115.823C232.547 92.4359 216.145 72.5454 195.047 71" stroke="#D59EDC" stroke-width="5" stroke-linecap="round" stroke-linejoin="round"/>
<path d="M151 120C173.396 120 191.547 100.219 191.547 75.8231C191.547 52.4359 175.145 32.5454 154.047 31" stroke="#D59EDC" stroke-width="5" stroke-linecap="round" stroke-linejoin="round"/>
<path d="M51.6129 72.586C51.5392 73.3285 51.2135 74.0234 50.6901 74.5545C50.1666 75.0857 49.4771 75.421 48.7365 75.5047C30.2141 77.4836 15.9648 95.7366 15.9648 117.947C15.9648 141.485 32.2734 160.567 52.3913 160.567H191.251C213.357 160.567 231.272 140.402 231.272 115.532C231.272 91.6902 214.809 72.1714 193.984 70.5959C193.219 70.5486 192.492 70.2482 191.916 69.7419C191.341 69.2355 190.95 68.5521 190.804 67.7988C186.15 43.8909 164.691 25.9199 139.322 25.9199C122.826 25.9199 108.13 33.3991 98.5952 45.2895C97.6677 46.4503 96.1218 46.981 94.7527 46.4061C90.9797 44.8463 86.9314 44.0642 82.8497 44.1065C66.4584 44.1065 53.0041 56.6271 51.6129 72.586Z" fill="#FDEEFF"/>
<path d="M53.8445 158C33 161 15.5001 140 18.0001 117C18.0001 95.6405 32.6305 78.1011 50.3484 76.198C51.0569 76.1176 51.7164 75.7951 52.2172 75.2843C52.7179 74.7735 53.0295 74.1053 53.0999 73.3912C54.4307 58.044 67.3006 46.0033 82.9801 46.0033C86.8845 45.9626 90.757 46.7148 94.3661 48.2148C95.6758 48.7676 97.1545 48.2573 98.0417 47.141C107.162 35.7063 121.22 28 137 28" stroke="#FCE1FF" stroke-width="4" stroke-linecap="round" stroke-linejoin="round"/>
<path d="M184.127 157.218H73.523C64.0238 157.216 53.4695 158.969 46.0013 157C37.9126 156 29.5443 148.096 27.2962 145C25.7512 147.096 30.688 150.64 32.0363 152.752C33.3845 154.864 36.1267 157.184 40.0957 158.885C44.0648 160.585 49.5401 160.217 55.1011 161.485C60.662 162.753 67.2341 162.119 73.523 162.119L184.127 164C188.758 163.993 193.315 163.61 197.41 162.884C201.504 162.158 205.013 161.11 207.639 159.83C210.264 158.55 210.554 156.432 212.6 154.5C215.115 152.125 205.148 154.372 200.377 155.487C195.607 156.602 189.941 157.206 184.127 157.218Z" fill="#EECAF2"/>
</svg>
