<svg width="76" height="76" viewBox="0 0 76 76" fill="none" xmlns="http://www.w3.org/2000/svg">
<path d="M38.0027 75.9973C29.2111 75.9979 20.6913 72.9502 13.8949 67.3735C7.09856 61.7967 2.44622 54.036 0.730609 45.4138C-0.985002 36.7915 0.342266 27.8411 4.48627 20.0877C8.63027 12.3342 15.3346 6.25753 23.4569 2.89297C31.5791 -0.47159 40.6168 -0.915827 49.0299 1.63595C57.443 4.18773 64.711 9.57764 69.5955 16.8873C74.48 24.1969 76.6787 32.974 75.817 41.723C74.9553 50.4719 71.0865 58.6515 64.8699 64.8679C61.3498 68.4071 57.1628 71.213 52.551 73.1234C47.9393 75.0338 42.9945 76.0106 38.0027 75.9973V75.9973Z" fill="url(#paint0_linear_132_3964)"/>
<path style="mix-blend-mode:screen" opacity="0.5" d="M14.6833 64.1498C14.3106 64.1503 13.9415 64.0771 13.5973 63.9344C13.253 63.7918 12.9403 63.5825 12.6772 63.3185C8.89779 59.5282 6.01622 54.9389 4.24454 49.888C2.47287 44.8372 1.85617 39.4534 2.43981 34.1328C3.02346 28.8122 4.7926 23.6901 7.61707 19.1434C10.4415 14.5967 14.2495 10.7411 18.7607 7.86018C23.272 4.97928 28.3718 3.14641 33.6849 2.49643C38.998 1.84645 44.3892 2.39589 49.4619 4.10433C54.5347 5.81277 59.1598 8.63674 62.9971 12.3685C66.8344 16.1002 69.7862 20.6447 71.6353 25.6677C71.8939 26.3741 71.8613 27.1543 71.5446 27.8366C71.228 28.5189 70.6533 29.0475 69.9469 29.3061C69.2405 29.5647 68.4603 29.532 67.778 29.2154C67.0956 28.8988 66.567 28.3241 66.3084 27.6177C64.756 23.3842 62.2734 19.553 59.0437 16.4062C55.8139 13.2595 51.9192 10.8775 47.6467 9.43573C43.3741 7.99395 38.8324 7.52914 34.3563 8.07553C29.8803 8.62193 25.5838 10.1656 21.7835 12.5928C17.9833 15.0201 14.776 18.269 12.3981 22.1002C10.0202 25.9315 8.53223 30.2474 8.04382 34.73C7.55541 39.2127 8.07902 43.7478 9.57605 48.0012C11.0731 52.2546 13.5054 56.1179 16.6938 59.3066C17.0899 59.7034 17.3595 60.2086 17.4687 60.7585C17.5779 61.3084 17.5217 61.8784 17.3073 62.3964C17.0928 62.9144 16.7297 63.3573 16.2637 63.6691C15.7978 63.9809 15.2499 64.1476 14.6892 64.1483L14.6833 64.1498Z" fill="url(#paint1_linear_132_3964)"/>
<path style="mix-blend-mode:screen" opacity="0.8" d="M1.74508 40.8048C1.74508 30.8884 5.70707 21.5645 12.9029 14.5531C20.0987 7.5418 29.6647 3.67871 39.8394 3.67871C47.9785 3.67871 55.7271 6.15191 62.1845 10.7298C56.9301 6.07063 50.4415 3.02849 43.4991 1.96926C36.5567 0.91004 29.4562 1.87884 23.0513 4.75917C16.6465 7.63949 11.2102 12.3087 7.3961 18.2052C3.58202 24.1018 1.55265 30.9745 1.552 37.997C1.55267 39.318 1.624 40.6381 1.76572 41.9515C1.75245 41.5742 1.74508 41.188 1.74508 40.8048Z" fill="url(#paint2_radial_132_3964)"/>
<path style="mix-blend-mode:multiply" opacity="0.5" d="M64.87 11.134C58.654 4.91873 50.4752 1.05097 41.7272 0.189712C32.9791 -0.671546 24.203 1.52698 16.8942 6.41069C9.58544 11.2944 4.19617 18.5611 1.64464 26.9728C-0.906891 35.3844 -0.462804 44.4204 2.90124 52.5413C6.26528 60.6623 12.3411 67.3656 20.0936 71.5091C27.846 75.6527 36.7954 76.9801 45.4169 75.2653C54.0383 73.5504 61.7985 68.8994 67.3751 62.1046C72.9517 55.3098 75.9997 46.7918 75.9998 38.0017C76.0136 33.0098 75.037 28.0648 73.1265 23.4529C71.2161 18.8411 68.4098 14.6539 64.87 11.134V11.134ZM63.5803 62.2208C56.6321 68.9226 47.3934 72.6133 37.5666 72.6133C27.7397 72.6133 18.5025 68.9285 11.5528 62.2208C4.60311 55.5131 0.778205 46.6093 0.778205 37.1306C0.778205 27.652 4.61048 18.7422 11.5528 12.0404C18.4951 5.33859 27.7412 1.64794 37.5666 1.64794C47.3919 1.64794 56.6321 5.33269 63.5803 12.0404C70.5285 18.7481 74.3564 27.6534 74.3564 37.1306C74.3564 46.6078 70.53 55.519 63.5803 62.2208Z" fill="url(#paint3_linear_132_3964)"/>
<path style="mix-blend-mode:multiply" d="M63.9133 62.8545C56.9651 69.5563 47.4419 73.3929 37.6151 73.3929C28.0742 73.3929 18.181 69.6226 12.157 63.7241C12.157 64.4492 12.1762 65.1744 12.2042 65.901C17.4499 70.7513 23.9567 74.0245 30.9781 75.3451C37.9995 76.6657 45.2509 75.9803 51.9005 73.3673C58.55 70.7544 64.3282 66.3199 68.572 60.5726C72.8159 54.8253 75.3535 47.998 75.8936 40.8742C75.5192 40.3013 75.1345 39.7363 74.7395 39.1792C73.808 50.0212 70.5048 56.4916 63.9133 62.8545Z" fill="url(#paint4_radial_132_3964)"/>
<path style="mix-blend-mode:multiply" opacity="0.3" d="M38.1103 68.8428C30.4295 68.8428 23.2086 65.724 17.7786 60.0613C12.3486 54.3986 9.35645 46.8699 9.35645 38.8607C9.35645 30.8515 12.3471 23.3243 17.7786 17.6616C23.2101 11.9989 30.2173 9.47998 37.898 9.47998C45.5788 9.47998 53.006 12.0048 58.4434 17.6616C63.8809 23.3184 66.8656 30.853 66.8656 38.8607C66.8656 46.8684 64.5176 54.5857 59.0861 60.2485C53.6546 65.9112 45.7911 68.8428 38.1103 68.8428Z" fill="url(#paint5_linear_132_3964)"/>
<path style="mix-blend-mode:multiply" opacity="0.5" d="M38.1101 67.8763C30.6799 67.8763 23.6949 64.8593 18.4402 59.3808C13.1856 53.9023 10.2922 46.6183 10.2922 38.8714C10.2922 31.1246 13.1856 23.8377 18.4402 18.3621C23.6949 12.8866 30.4751 10.4473 37.9053 10.4473C45.3354 10.4473 52.5268 12.8836 57.78 18.3621C63.0332 23.8406 65.928 31.1246 65.928 38.8714C65.928 46.6183 63.6567 54.0836 58.402 59.5621C53.1474 65.0405 45.5403 67.8763 38.1101 67.8763Z" fill="url(#paint6_linear_132_3964)"/>
<path style="mix-blend-mode:multiply" d="M55.3643 53.47C50.7715 57.871 44.6324 60.7216 37.3821 60.5757C30.8893 60.446 19.929 57.4981 13.1621 47.8308C13.3596 49.402 16.8352 55.3065 19.7197 57.5586C23.5328 61.1239 28.3047 63.4972 33.4487 64.3865C38.5927 65.2759 43.8845 64.6425 48.6734 62.5644C53.4622 60.4862 57.5392 57.0538 60.4031 52.6893C63.267 48.3249 64.7929 43.2186 64.7931 37.9985C64.7931 37.1534 64.7538 36.3153 64.6752 35.484C64.6634 33.6475 63.4386 28.9413 62.6323 27.3628C64.7828 41.7068 59.9497 49.0689 55.3643 53.47Z" fill="url(#paint7_radial_132_3964)"/>
<ellipse cx="38.5066" cy="39.0133" rx="26.3467" ry="27.36" fill="#D2AACF"/>
<path style="mix-blend-mode:screen" opacity="0.6" d="M37.3674 37.9784C32.2952 38.1703 27.5207 37.0684 23.9314 34.8747C20.3422 32.681 18.3667 29.6609 18.3667 26.3673C18.3667 23.0737 20.3435 19.9034 23.9314 17.4392C27.5193 14.975 32.2925 13.5132 37.3674 13.3212C42.4422 13.1293 47.2127 14.2321 50.802 16.4249C54.3912 18.6176 56.3667 21.6397 56.3667 24.9323C56.3667 28.2249 54.3912 31.3962 50.802 33.8604C47.2127 36.3246 42.4422 37.7874 37.3674 37.9784Z" fill="url(#paint8_linear_132_3964)"/>
<path d="M30.9441 15.4747C29.1518 15.0326 25.8192 17.2139 25.7234 18.4712C25.5966 20.1219 27.8503 19.8257 30.2676 18.5684C32.1955 17.5662 32.1041 15.7636 30.9441 15.4747Z" fill="#E5FFFF"/>
<path d="M22.507 20.6683C21.2144 20.7641 20.2592 21.7781 20.4715 22.6374C20.7501 23.7649 21.9646 23.5881 22.8902 22.6713C23.9692 21.5998 23.3457 20.6064 22.507 20.6683Z" fill="#E5FFFF"/>
<rect x="19" y="50.2021" width="38" height="7.96588" rx="3.98294" fill="#583BAE"/>
<rect x="19.5" y="50.7021" width="37" height="6.96588" rx="3.48294" stroke="white"/>
<rect x="19" y="37.1011" width="38" height="7.96588" rx="3.98294" fill="#583BAE"/>
<rect x="19.5" y="37.6011" width="37" height="6.96588" rx="3.48294" stroke="white"/>
<rect x="19" y="24" width="38" height="7.96588" rx="3.98294" fill="#583BAE"/>
<rect x="19.5" y="24.5" width="37" height="6.96588" rx="3.48294" stroke="white"/>
<defs>
<linearGradient id="paint0_linear_132_3964" x1="165240" y1="71361.6" x2="165240" y2="95515.1" gradientUnits="userSpaceOnUse">
<stop stop-color="#8D77CD"/>
<stop offset="1" stop-color="#0C1234"/>
</linearGradient>
<linearGradient id="paint1_linear_132_3964" x1="144146" y1="49576.6" x2="150955" y2="64241.8" gradientUnits="userSpaceOnUse">
<stop stop-color="#FFD37E"/>
<stop offset="1"/>
</linearGradient>
<radialGradient id="paint2_radial_132_3964" cx="0" cy="0" r="1" gradientUnits="userSpaceOnUse" gradientTransform="translate(124630 32000.2) scale(14805.8 9865.09)">
<stop stop-color="#FFD37E"/>
<stop offset="1"/>
</radialGradient>
<linearGradient id="paint3_linear_132_3964" x1="156689" y1="43936.6" x2="167903" y2="85807.2" gradientUnits="userSpaceOnUse">
<stop stop-color="white"/>
<stop offset="1" stop-color="#BD6519"/>
</linearGradient>
<radialGradient id="paint4_radial_132_3964" cx="0" cy="0" r="1" gradientUnits="userSpaceOnUse" gradientTransform="translate(144734 46014) scale(15781.2 9116.83)">
<stop stop-color="#A95C19"/>
<stop offset="1" stop-color="white"/>
</radialGradient>
<linearGradient id="paint5_linear_132_3964" x1="129267" y1="65121" x2="137385" y2="75256.4" gradientUnits="userSpaceOnUse">
<stop stop-color="#8B4519"/>
<stop offset="1" stop-color="white"/>
</linearGradient>
<linearGradient id="paint6_linear_132_3964" x1="124021" y1="62342.2" x2="131952" y2="74015" gradientUnits="userSpaceOnUse">
<stop stop-color="#8B4519"/>
<stop offset="1" stop-color="white"/>
</linearGradient>
<radialGradient id="paint7_radial_132_3964" cx="0" cy="0" r="1" gradientUnits="userSpaceOnUse" gradientTransform="translate(115561 42638.5) scale(13359.5 9681.2)">
<stop stop-color="#00639F"/>
<stop offset="1" stop-color="white"/>
</radialGradient>
<linearGradient id="paint8_linear_132_3964" x1="81168.9" y1="21163.4" x2="81646.2" y2="24366.7" gradientUnits="userSpaceOnUse">
<stop stop-color="#AFD8A0"/>
<stop offset="1"/>
</linearGradient>
</defs>
</svg>
