<svg width="36" height="36" viewBox="0 0 36 36" fill="none" xmlns="http://www.w3.org/2000/svg">
<path d="M18 6.25794e-07C14.4397 7.49527e-07 10.9594 1.0558 7.99925 3.03388C5.03906 5.01195 2.73196 7.82345 1.36972 11.1128C0.00748444 14.4021 -0.348698 18.0216 0.34622 21.5134C1.04114 25.0052 2.75594 28.2124 5.27376 30.7296C7.79158 33.2467 10.9993 34.9607 14.4913 35.6547C17.9833 36.3487 21.6026 35.9916 24.8916 34.6285C28.1806 33.2654 30.9915 30.9575 32.9688 27.9968C34.9461 25.0361 36.0009 21.5555 36 17.9953C36 15.6317 35.5344 13.2913 34.6297 11.1077C33.7251 8.92408 32.3992 6.94008 30.7276 5.26901C29.0561 3.59793 27.0718 2.27251 24.8879 1.36845C22.7041 0.464378 20.3636 -0.000622678 18 6.25794e-07ZM30.1345 14.2367C31.3398 13.8096 32.7018 9.49117 33.5608 11.9114C34.4197 14.3317 29.8972 18.2705 32.9391 17.0651C31.7385 17.4732 34.5478 13.8144 33.6936 11.3894C32.8394 8.96441 30.1345 14.2367 30.1345 14.2367ZM23.149 28.9575L19.7999 27.0498L18.5078 26.8125C18.2705 26.8125 17.0841 27.0498 17.0841 27.0498L16.6095 27.7617H16.8468C17.0366 27.7664 19.7999 27.9666 19.7999 27.9666L23.149 28.9575ZM4.54153 18.6407C4.29476 19.7843 3.40259 20.5674 2.54839 20.387C1.69418 20.2067 1.20064 19.1247 1.44266 17.9763C1.68469 16.8278 2.5816 16.0496 3.43581 16.2299C4.29001 16.4102 4.78356 17.4922 4.54153 18.6407ZM7.1516 15.4943C5.72793 15.7411 3.11311 14.5737 3.02769 13.8381C2.45347 8.9122 9.28237 1.18165 15.3472 2.06433C17.0082 2.3111 18.1946 4.81202 17.72 5.02083C10.464 8.44239 9.01187 15.1716 7.1516 15.4943ZM13.2876 31.0836C13.2876 31.0836 14.6806 31.341 16.2014 31.449H16.3913H16.7567C16.9939 31.449 17.2312 31.449 17.4875 31.449C17.7342 31.449 17.962 31.449 18.2136 31.449H18.579H18.7735C20.293 31.3417 21.778 30.9455 23.149 30.2816C22.067 29.6599 19.9409 29.8972 17.3214 29.8972C14.7018 29.8972 14.2367 29.8972 13.2876 31.0836ZM19.5328 34.5906C17.4741 34.5903 15.4391 34.1519 13.5629 33.3045C18.2084 34.0147 22.9472 32.8754 26.7623 30.1312C30.5774 27.387 33.1647 23.2566 33.9689 18.6264C34.0163 19.101 34.0401 19.5755 34.0401 20.0501C34.0439 23.9019 32.5177 27.5974 29.7972 30.3242C27.0767 33.0509 23.3846 34.5855 19.5328 34.5906Z" fill="#7C5EDC"/>
</svg>
