<svg width="76" height="76" viewBox="0 0 76 76" fill="none" xmlns="http://www.w3.org/2000/svg">
<path d="M38.0027 75.9973C29.2111 75.9979 20.6913 72.9502 13.8949 67.3735C7.09856 61.7967 2.44622 54.036 0.730609 45.4138C-0.985002 36.7915 0.342266 27.8411 4.48627 20.0877C8.63027 12.3342 15.3346 6.25753 23.4569 2.89297C31.5791 -0.47159 40.6168 -0.915827 49.0299 1.63595C57.443 4.18773 64.711 9.57764 69.5955 16.8873C74.48 24.1969 76.6787 32.974 75.817 41.723C74.9553 50.4719 71.0865 58.6515 64.8699 64.8679C61.3498 68.4071 57.1628 71.213 52.551 73.1234C47.9393 75.0338 42.9945 76.0106 38.0027 75.9973V75.9973Z" fill="url(#paint0_linear_132_3987)"/>
<path style="mix-blend-mode:screen" opacity="0.5" d="M14.6833 64.1498C14.3106 64.1503 13.9415 64.0771 13.5973 63.9344C13.253 63.7918 12.9403 63.5825 12.6772 63.3185C8.89779 59.5282 6.01622 54.9389 4.24454 49.888C2.47287 44.8372 1.85617 39.4534 2.43981 34.1328C3.02346 28.8122 4.7926 23.6901 7.61707 19.1434C10.4415 14.5967 14.2495 10.7411 18.7607 7.86018C23.272 4.97928 28.3718 3.14641 33.6849 2.49643C38.998 1.84645 44.3892 2.39589 49.4619 4.10433C54.5347 5.81277 59.1598 8.63674 62.9971 12.3685C66.8344 16.1002 69.7862 20.6447 71.6353 25.6677C71.8939 26.3741 71.8613 27.1543 71.5446 27.8366C71.228 28.5189 70.6533 29.0475 69.9469 29.3061C69.2405 29.5647 68.4603 29.532 67.778 29.2154C67.0956 28.8988 66.567 28.3241 66.3084 27.6177C64.756 23.3842 62.2734 19.553 59.0437 16.4062C55.8139 13.2595 51.9192 10.8775 47.6467 9.43573C43.3741 7.99395 38.8324 7.52914 34.3563 8.07553C29.8803 8.62193 25.5838 10.1656 21.7835 12.5928C17.9833 15.0201 14.776 18.269 12.3981 22.1002C10.0202 25.9315 8.53223 30.2474 8.04382 34.73C7.55541 39.2127 8.07902 43.7478 9.57605 48.0012C11.0731 52.2546 13.5054 56.1179 16.6938 59.3066C17.0899 59.7034 17.3595 60.2086 17.4687 60.7585C17.5779 61.3084 17.5217 61.8784 17.3073 62.3964C17.0928 62.9144 16.7297 63.3573 16.2637 63.6691C15.7978 63.9809 15.2499 64.1476 14.6892 64.1483L14.6833 64.1498Z" fill="url(#paint1_linear_132_3987)"/>
<path style="mix-blend-mode:screen" opacity="0.8" d="M1.74508 40.8048C1.74508 30.8884 5.70707 21.5645 12.9029 14.5531C20.0987 7.5418 29.6647 3.67871 39.8394 3.67871C47.9785 3.67871 55.7271 6.15191 62.1845 10.7298C56.9301 6.07063 50.4415 3.02849 43.4991 1.96926C36.5567 0.91004 29.4562 1.87884 23.0513 4.75917C16.6465 7.63949 11.2102 12.3087 7.3961 18.2052C3.58202 24.1018 1.55265 30.9745 1.552 37.997C1.55267 39.318 1.624 40.6381 1.76572 41.9515C1.75245 41.5742 1.74508 41.188 1.74508 40.8048Z" fill="url(#paint2_radial_132_3987)"/>
<path style="mix-blend-mode:multiply" opacity="0.5" d="M64.87 11.134C58.654 4.91873 50.4752 1.05097 41.7272 0.189712C32.9791 -0.671546 24.203 1.52698 16.8942 6.41069C9.58544 11.2944 4.19617 18.5611 1.64464 26.9728C-0.906891 35.3844 -0.462804 44.4204 2.90124 52.5413C6.26528 60.6623 12.3411 67.3656 20.0936 71.5091C27.846 75.6527 36.7954 76.9801 45.4169 75.2653C54.0383 73.5504 61.7985 68.8994 67.3751 62.1046C72.9517 55.3098 75.9997 46.7918 75.9998 38.0017C76.0136 33.0098 75.037 28.0648 73.1265 23.4529C71.2161 18.8411 68.4098 14.6539 64.87 11.134V11.134ZM63.5803 62.2208C56.6321 68.9226 47.3934 72.6133 37.5666 72.6133C27.7397 72.6133 18.5025 68.9285 11.5528 62.2208C4.60311 55.5131 0.778205 46.6093 0.778205 37.1306C0.778205 27.652 4.61048 18.7422 11.5528 12.0404C18.4951 5.33859 27.7412 1.64794 37.5666 1.64794C47.3919 1.64794 56.6321 5.33269 63.5803 12.0404C70.5285 18.7481 74.3564 27.6534 74.3564 37.1306C74.3564 46.6078 70.53 55.519 63.5803 62.2208Z" fill="url(#paint3_linear_132_3987)"/>
<path style="mix-blend-mode:multiply" d="M63.9133 62.8545C56.9651 69.5563 47.4419 73.3929 37.6151 73.3929C28.0742 73.3929 18.181 69.6226 12.157 63.7241C12.157 64.4492 12.1762 65.1744 12.2042 65.901C17.4499 70.7513 23.9567 74.0245 30.9781 75.3451C37.9995 76.6657 45.2509 75.9803 51.9005 73.3673C58.55 70.7544 64.3282 66.3199 68.572 60.5726C72.8159 54.8253 75.3535 47.998 75.8936 40.8742C75.5192 40.3013 75.1345 39.7363 74.7395 39.1792C73.808 50.0212 70.5048 56.4916 63.9133 62.8545Z" fill="url(#paint4_radial_132_3987)"/>
<path style="mix-blend-mode:multiply" opacity="0.3" d="M38.1103 68.8428C30.4295 68.8428 23.2086 65.724 17.7786 60.0613C12.3486 54.3986 9.35645 46.8699 9.35645 38.8607C9.35645 30.8515 12.3471 23.3243 17.7786 17.6616C23.2101 11.9989 30.2173 9.47998 37.898 9.47998C45.5788 9.47998 53.006 12.0048 58.4434 17.6616C63.8809 23.3184 66.8656 30.853 66.8656 38.8607C66.8656 46.8684 64.5176 54.5857 59.0861 60.2485C53.6546 65.9112 45.7911 68.8428 38.1103 68.8428Z" fill="url(#paint5_linear_132_3987)"/>
<path style="mix-blend-mode:multiply" opacity="0.5" d="M38.1101 67.8763C30.6799 67.8763 23.6949 64.8593 18.4402 59.3808C13.1856 53.9023 10.2922 46.6183 10.2922 38.8714C10.2922 31.1246 13.1856 23.8377 18.4402 18.3621C23.6949 12.8866 30.4751 10.4473 37.9053 10.4473C45.3354 10.4473 52.5268 12.8836 57.78 18.3621C63.0332 23.8406 65.928 31.1246 65.928 38.8714C65.928 46.6183 63.6567 54.0836 58.402 59.5621C53.1474 65.0405 45.5403 67.8763 38.1101 67.8763Z" fill="url(#paint6_linear_132_3987)"/>
<path style="mix-blend-mode:multiply" d="M55.3643 53.47C50.7715 57.871 44.6324 60.7216 37.3821 60.5757C30.8893 60.446 19.929 57.4981 13.1621 47.8308C13.3596 49.402 16.8352 55.3065 19.7197 57.5586C23.5328 61.1239 28.3047 63.4972 33.4487 64.3865C38.5927 65.2759 43.8845 64.6425 48.6734 62.5644C53.4622 60.4862 57.5392 57.0538 60.4031 52.6893C63.267 48.3249 64.7929 43.2186 64.7931 37.9985C64.7931 37.1534 64.7538 36.3153 64.6752 35.484C64.6634 33.6475 63.4386 28.9413 62.6323 27.3628C64.7828 41.7068 59.9497 49.0689 55.3643 53.47Z" fill="url(#paint7_radial_132_3987)"/>
<ellipse cx="38.5066" cy="39.0133" rx="26.3467" ry="27.36" fill="#D2AACF"/>
<path style="mix-blend-mode:screen" opacity="0.6" d="M37.3674 37.9784C32.2952 38.1703 27.5207 37.0684 23.9314 34.8747C20.3422 32.681 18.3667 29.6609 18.3667 26.3673C18.3667 23.0737 20.3435 19.9034 23.9314 17.4392C27.5193 14.975 32.2925 13.5132 37.3674 13.3212C42.4422 13.1293 47.2127 14.2321 50.802 16.4249C54.3912 18.6176 56.3667 21.6397 56.3667 24.9323C56.3667 28.2249 54.3912 31.3962 50.802 33.8604C47.2127 36.3246 42.4422 37.7874 37.3674 37.9784Z" fill="url(#paint8_linear_132_3987)"/>
<path d="M30.9441 15.4747C29.1518 15.0326 25.8192 17.2139 25.7234 18.4712C25.5966 20.1219 27.8503 19.8257 30.2676 18.5684C32.1955 17.5662 32.1041 15.7636 30.9441 15.4747Z" fill="#E5FFFF"/>
<path d="M22.507 20.6683C21.2144 20.7641 20.2592 21.7781 20.4715 22.6374C20.7501 23.7649 21.9646 23.5881 22.8902 22.6713C23.9692 21.5998 23.3457 20.6064 22.507 20.6683Z" fill="#E5FFFF"/>
<path d="M37.5984 44.6756C35.9864 44.6756 35.5675 43.3243 34.2162 42.3107C33.5405 40.9594 32.527 40.1939 32.527 38.5945C32.8648 36.9053 32.8648 36.9053 33.8783 35.554C35.0182 34.4231 35.9864 33.8648 37.5984 33.8648C39.2104 33.8648 40.1709 33.7474 41.3107 34.8783C42.4506 36.0092 43.3378 37.333 43.3378 38.9324C43.3378 40.5317 43.036 42.0656 41.8962 43.1965C40.7563 44.3274 39.2104 44.6756 37.5984 44.6756ZM50.5011 40.6037C50.5706 40.0523 50.6227 39.5009 50.6227 38.9324C50.6227 38.3638 50.5706 37.7952 50.5011 37.2094L54.1653 34.4009C54.4953 34.1425 54.5821 33.6773 54.3737 33.2982L50.9005 27.3368C50.6922 26.9577 50.2233 26.8026 49.8412 26.9577L45.5172 28.6807C44.6141 28.0087 43.6764 27.4229 42.5823 26.9922L41.9398 22.4263C41.9045 22.2234 41.798 22.0394 41.6391 21.9069C41.4801 21.7744 41.2791 21.7021 41.0715 21.7026H34.1252C33.6911 21.7026 33.3264 22.0128 33.2569 22.4263L32.6144 26.9922C31.5203 27.4229 30.5826 28.0087 29.6796 28.6807L25.3555 26.9577C24.9735 26.8026 24.5046 26.9577 24.2962 27.3368L20.823 33.2982C20.5973 33.6773 20.7015 34.1425 21.0314 34.4009L24.6956 37.2094C24.6261 37.7952 24.574 38.3638 24.574 38.9324C24.574 39.5009 24.6261 40.0523 24.6956 40.6037L21.0314 43.4638C20.7015 43.7222 20.5973 44.1874 20.823 44.5665L24.2962 50.528C24.5046 50.907 24.9735 51.0449 25.3555 50.907L29.6796 49.1668C30.5826 49.856 31.5203 50.4418 32.6144 50.8726L33.2569 55.4384C33.3264 55.852 33.6911 56.1621 34.1252 56.1621H41.0715C41.5057 56.1621 41.8703 55.852 41.9398 55.4384L42.5823 50.8726C43.6764 50.4246 44.6141 49.856 45.5172 49.1668L49.8412 50.907C50.2233 51.0449 50.6922 50.907 50.9005 50.528L54.3737 44.5665C54.5821 44.1874 54.4953 43.7222 54.1653 43.4638L50.5011 40.6037Z" fill="#583BAE"/>
<path d="M20.0809 33.3936C20.8997 30.8655 22.2441 28.5393 24.0258 26.5677C24.1732 26.4048 24.3656 26.2894 24.5787 26.2361C24.7918 26.1829 25.0159 26.1941 25.2225 26.2685L29.4732 27.7888C29.7759 27.8969 30.0983 27.9378 30.4184 27.9088C30.7384 27.8799 31.0483 27.7817 31.3265 27.621C31.6048 27.4604 31.8448 27.2411 32.03 26.9785C32.2151 26.7159 32.3409 26.4161 32.3987 26.1L33.2098 21.6543C33.249 21.4379 33.3517 21.238 33.5048 21.0802C33.6579 20.9223 33.8546 20.8136 34.0697 20.7678C36.6658 20.2128 39.35 20.2128 41.9461 20.7678C42.1612 20.8136 42.3579 20.9223 42.511 21.0802C42.6641 21.238 42.7668 21.4379 42.806 21.6543L43.6171 26.1C43.6749 26.4161 43.8007 26.7159 43.9858 26.9785C44.171 27.2411 44.411 27.4604 44.6893 27.621C44.9675 27.7817 45.2774 27.8799 45.5974 27.9088C45.9175 27.9378 46.2399 27.8969 46.5425 27.7888L50.7955 26.2685C51.0024 26.1944 51.2266 26.1835 51.4397 26.2371C51.6528 26.2908 51.8451 26.4066 51.9922 26.5699C53.7736 28.5408 55.118 30.8663 55.9371 33.3936C56.0044 33.6026 56.0081 33.8269 55.9477 34.038C55.8874 34.2491 55.7656 34.4375 55.598 34.5793L52.1518 37.5047C51.907 37.7127 51.7103 37.9715 51.5755 38.2631C51.4406 38.5547 51.3707 38.8722 51.3707 39.1934C51.3707 39.5147 51.4406 39.8322 51.5755 40.1238C51.7103 40.4154 51.907 40.6741 52.1518 40.8822L55.598 43.8076C55.7652 43.9497 55.8865 44.1382 55.9465 44.3493C56.0065 44.5604 56.0024 44.7845 55.9349 44.9933C55.1161 47.5214 53.7717 49.8476 51.99 51.8192C51.8426 51.9821 51.6502 52.0975 51.4371 52.1508C51.224 52.204 50.9999 52.1928 50.7932 52.1184L46.5425 50.5981C46.2399 50.49 45.9175 50.4491 45.5974 50.478C45.2774 50.507 44.9675 50.6052 44.6893 50.7659C44.411 50.9265 44.171 51.1458 43.9858 51.4084C43.8007 51.671 43.6749 51.9708 43.6171 52.2869L42.806 56.7348C42.7664 56.9508 42.6636 57.1502 42.5105 57.3076C42.3574 57.4651 42.1609 57.5735 41.9461 57.6191C39.35 58.1741 36.6658 58.1741 34.0697 57.6191C33.8546 57.5733 33.6579 57.4646 33.5048 57.3067C33.3517 57.1489 33.249 56.949 33.2098 56.7326L32.3987 52.2869C32.3409 51.9708 32.2151 51.671 32.03 51.4084C31.8448 51.1458 31.6048 50.9265 31.3265 50.7659C31.0483 50.6052 30.7384 50.507 30.4184 50.478C30.0983 50.4491 29.7759 50.49 29.4732 50.5981L25.2225 52.1184C25.0157 52.1925 24.7914 52.2034 24.5783 52.1497C24.3652 52.0961 24.1729 51.9803 24.0258 51.817C22.2444 49.8461 20.9 47.5206 20.0809 44.9933C20.0134 44.7845 20.0093 44.5604 20.0693 44.3493C20.1293 44.1382 20.2505 43.9497 20.4178 43.8076L23.864 40.8822C24.1088 40.6741 24.3055 40.4154 24.4403 40.1238C24.5752 39.8322 24.6451 39.5147 24.6451 39.1934C24.6451 38.8722 24.5752 38.5547 24.4403 38.2631C24.3055 37.9715 24.1088 37.7127 23.864 37.5047L20.4178 34.5793C20.2505 34.4372 20.1293 34.2487 20.0693 34.0376C20.0093 33.8265 20.0134 33.6024 20.0809 33.3936ZM22.4301 33.3803L25.2979 35.8137C25.7883 36.2298 26.1822 36.7476 26.4524 37.3313C26.7226 37.9149 26.8626 38.5503 26.8626 39.1934C26.8626 39.8366 26.7226 40.472 26.4524 41.0556C26.1822 41.6392 25.7883 42.1571 25.2979 42.5732L22.4323 45.0066C23.0795 46.7397 24.0125 48.3531 25.1893 49.7759L28.7264 48.5126C28.9554 48.4314 29.1881 48.3686 29.4245 48.3243C30.5809 48.1136 31.7737 48.3709 32.7404 49.0397C33.7071 49.7084 34.3686 50.7337 34.5794 51.8901L35.2531 55.589C37.0772 55.8914 38.9386 55.8914 40.7627 55.589L41.4364 51.8879C41.5511 51.2551 41.8024 50.6549 42.1726 50.129C42.5428 49.6031 43.0231 49.1642 43.5802 48.8428C44.1372 48.5213 44.7576 48.3251 45.3982 48.2677C46.0387 48.2103 46.6841 48.2931 47.2894 48.5104L50.8265 49.7759C52.0051 48.3507 52.9377 46.7388 53.5857 45.0066L50.7179 42.5732C50.2268 42.1575 49.8323 41.6398 49.5616 41.0561C49.291 40.4725 49.1508 39.8368 49.1508 39.1934C49.1508 38.5501 49.291 37.9144 49.5616 37.3308C49.8323 36.7471 50.2268 36.2294 50.7179 35.8137L53.5857 33.3803C52.9377 31.6481 52.0051 30.0362 50.8265 28.611L47.2894 29.8743C46.6842 30.0904 46.0392 30.1723 45.3992 30.1144C44.7592 30.0564 44.1394 29.86 43.5828 29.5387C43.0263 29.2174 42.5462 28.7789 42.176 28.2537C41.8057 27.7284 41.5541 27.1289 41.4386 26.4967L40.7627 22.7979C38.9386 22.4955 37.0772 22.4955 35.2531 22.7979L34.5794 26.4967C34.4642 27.1291 34.2128 27.7289 33.8426 28.2544C33.4725 28.7799 32.9925 29.2186 32.4359 29.5402C31.8793 29.8617 31.2594 30.0583 30.6193 30.1164C29.9791 30.1744 29.334 30.0926 28.7286 29.8765L25.1893 28.611C24.0114 30.0364 23.0774 31.6483 22.4301 33.3803ZM32.4718 39.1934C32.4718 37.724 33.0555 36.3147 34.0946 35.2757C35.1336 34.2366 36.5429 33.6529 38.0123 33.6529C39.4818 33.6529 40.891 34.2366 41.9301 35.2757C42.9691 36.3147 43.5529 37.724 43.5529 39.1934C43.5529 40.6629 42.9691 42.0721 41.9301 43.1112C40.891 44.1503 39.4818 44.734 38.0123 44.734C36.5429 44.734 35.1336 44.1503 34.0946 43.1112C33.0555 42.0721 32.4718 40.6629 32.4718 39.1934ZM34.688 39.1934C34.688 40.0751 35.0382 40.9207 35.6617 41.5441C36.2851 42.1675 37.1307 42.5178 38.0123 42.5178C38.894 42.5178 39.7395 42.1675 40.363 41.5441C40.9864 40.9207 41.3367 40.0751 41.3367 39.1934C41.3367 38.3118 40.9864 37.4662 40.363 36.8428C39.7395 36.2194 38.894 35.8691 38.0123 35.8691C37.1307 35.8691 36.2851 36.2194 35.6617 36.8428C35.0382 37.4662 34.688 38.3118 34.688 39.1934Z" fill="white"/>
<defs>
<linearGradient id="paint0_linear_132_3987" x1="165240" y1="71361.6" x2="165240" y2="95515.1" gradientUnits="userSpaceOnUse">
<stop stop-color="#8D77CD"/>
<stop offset="1" stop-color="#0C1234"/>
</linearGradient>
<linearGradient id="paint1_linear_132_3987" x1="144146" y1="49576.6" x2="150955" y2="64241.8" gradientUnits="userSpaceOnUse">
<stop stop-color="#FFD37E"/>
<stop offset="1"/>
</linearGradient>
<radialGradient id="paint2_radial_132_3987" cx="0" cy="0" r="1" gradientUnits="userSpaceOnUse" gradientTransform="translate(124630 32000.2) scale(14805.8 9865.09)">
<stop stop-color="#FFD37E"/>
<stop offset="1"/>
</radialGradient>
<linearGradient id="paint3_linear_132_3987" x1="156689" y1="43936.6" x2="167903" y2="85807.2" gradientUnits="userSpaceOnUse">
<stop stop-color="white"/>
<stop offset="1" stop-color="#BD6519"/>
</linearGradient>
<radialGradient id="paint4_radial_132_3987" cx="0" cy="0" r="1" gradientUnits="userSpaceOnUse" gradientTransform="translate(144734 46014) scale(15781.2 9116.83)">
<stop stop-color="#A95C19"/>
<stop offset="1" stop-color="white"/>
</radialGradient>
<linearGradient id="paint5_linear_132_3987" x1="129267" y1="65121" x2="137385" y2="75256.4" gradientUnits="userSpaceOnUse">
<stop stop-color="#8B4519"/>
<stop offset="1" stop-color="white"/>
</linearGradient>
<linearGradient id="paint6_linear_132_3987" x1="124021" y1="62342.2" x2="131952" y2="74015" gradientUnits="userSpaceOnUse">
<stop stop-color="#8B4519"/>
<stop offset="1" stop-color="white"/>
</linearGradient>
<radialGradient id="paint7_radial_132_3987" cx="0" cy="0" r="1" gradientUnits="userSpaceOnUse" gradientTransform="translate(115561 42638.5) scale(13359.5 9681.2)">
<stop stop-color="#00639F"/>
<stop offset="1" stop-color="white"/>
</radialGradient>
<linearGradient id="paint8_linear_132_3987" x1="81168.9" y1="21163.4" x2="81646.2" y2="24366.7" gradientUnits="userSpaceOnUse">
<stop stop-color="#AFD8A0"/>
<stop offset="1"/>
</linearGradient>
</defs>
</svg>
