<svg width="27" height="26" viewBox="0 0 27 26" fill="none" xmlns="http://www.w3.org/2000/svg">
<path d="M13.5 4.51962e-07C10.8298 5.41325e-07 8.21958 0.762524 5.99944 2.19113C3.7793 3.61974 2.04897 5.65027 1.02729 8.02591C0.00561333 10.4015 -0.261524 13.0156 0.259665 15.5374C0.780854 18.0593 2.06696 20.3756 3.95532 22.1936C5.84369 24.0115 8.24949 25.2494 10.8685 25.7506C13.4874 26.2518 16.202 25.9939 18.6687 25.0094C21.1354 24.025 23.2436 22.3582 24.7266 20.2199C26.2095 18.0816 27.0007 15.5679 27 12.9966C27 11.2895 26.6508 9.59925 25.9723 8.02221C25.2938 6.44517 24.2994 5.01228 23.0457 3.8054C21.7921 2.59851 20.3038 1.64126 18.666 0.988322C17.0281 0.335384 15.2727 -0.000449712 13.5 4.51962e-07ZM22.3695 5.99446C23.2735 5.686 24.5264 6.85473 25.1706 8.60269C25.8148 10.3506 25.6048 12.0301 24.7043 12.3248C23.8039 12.6196 22.5439 11.4782 21.9032 9.72686C21.2626 7.97548 21.4761 6.31321 22.3695 5.99446ZM3.40615 13.4627C3.22107 14.2887 2.55194 14.8542 1.91129 14.724C1.27064 14.5937 0.90048 13.8123 1.082 12.9829C1.26352 12.1534 1.9362 11.5914 2.57686 11.7216C3.21751 11.8518 3.58767 12.6333 3.40615 13.4627ZM5.3637 11.1903C4.29594 11.3686 2.33483 10.5254 2.27077 9.9942C1.84011 6.43659 6.96178 0.853414 11.5104 1.4909C12.7561 1.66913 13.6459 3.47535 13.29 3.62615C7.84801 6.09728 6.7589 10.9573 5.3637 11.1903ZM14.6496 24.9821C13.1056 24.9819 11.5793 24.6653 10.1722 24.0532C13.6563 24.5661 17.2104 23.7433 20.0717 21.7614C22.933 19.7795 24.8735 16.7964 25.4767 13.4524C25.5123 13.7951 25.5301 14.1379 25.5301 14.4806C25.5329 17.2625 24.3883 19.9315 22.3479 21.9008C20.3075 23.8701 17.5385 24.9784 14.6496 24.9821Z" fill="#219AA4"/>
</svg>
