<svg width="99" height="99" viewBox="0 0 99 99" fill="none" xmlns="http://www.w3.org/2000/svg">
<path d="M40.7501 14.738C43.227 12.6798 44.4675 11.6486 45.7635 11.0456C47.2428 10.3572 48.861 10 50.4999 10C52.1389 10 53.7571 10.3572 55.2363 11.0456C56.5323 11.6486 57.7729 12.6798 60.2498 14.738C62.8034 16.8587 65.3954 17.9315 68.806 18.1934C72.0502 18.4471 73.6745 18.576 75.0302 19.0417C78.1593 20.1228 80.6235 22.5221 81.7276 25.5783C82.2051 26.8964 82.3372 28.4807 82.5973 31.6491C82.8659 34.9757 83.9615 37.4996 86.1357 39.9904C88.2503 42.4062 89.3075 43.6162 89.9257 44.8803C91.3581 47.8035 91.3581 51.2007 89.9257 54.1197C89.3075 55.3838 88.2503 56.5938 86.14 59.0096C84.0273 61.3218 82.7788 64.263 82.5973 67.355C82.3372 70.5193 82.2051 72.1036 81.7276 73.4259C81.1802 74.933 80.2944 76.3018 79.1349 77.432C77.9754 78.5622 76.5715 79.4254 75.0259 79.9583C73.6745 80.424 72.0502 80.5529 68.8017 80.8066C65.3912 81.0685 62.8034 82.1372 60.2498 84.2578C57.7729 86.3202 56.5323 87.3514 55.2363 87.9544C53.7571 88.6427 52.1389 89 50.4999 89C48.861 89 47.2428 88.6427 45.7635 87.9544C44.4675 87.3514 43.227 86.3202 40.7501 84.262C38.3795 82.2014 35.364 80.9836 32.1939 80.8066C28.9496 80.5529 27.3254 80.424 25.9697 79.9583C24.4245 79.4244 23.0211 78.5604 21.8624 77.4294C20.7036 76.2985 19.8186 74.9292 19.2722 73.4217C18.7948 72.1036 18.6626 70.5193 18.4025 67.3508C18.2213 64.2608 16.9743 61.3212 14.8641 59.0096C12.7496 56.5938 11.6923 55.3838 11.0699 54.1197C10.3648 52.6766 9.99926 51.0981 10 49.4995C10.0007 47.901 10.3677 46.3228 11.0742 44.8803C11.6923 43.6162 12.7496 42.4062 14.8599 39.9904C17.0767 37.4497 18.1382 34.905 18.4025 31.645C18.6626 28.4807 18.7948 26.8964 19.2722 25.5741C19.8196 24.067 20.7054 22.6982 21.865 21.568C23.0245 20.4378 24.4284 19.5746 25.9739 19.0417C27.3254 18.576 28.9496 18.4471 32.1982 18.1934C35.3663 18.0167 38.3801 16.7963 40.7501 14.738Z" stroke="#7F3F87" stroke-width="3" stroke-linecap="round" stroke-linejoin="round"/>
<path d="M40.9908 14.6781C43.4065 12.6458 44.6165 11.6277 45.8805 11.0324C47.3232 10.3527 48.9015 10 50.4999 10C52.0984 10 53.6767 10.3527 55.1194 11.0324C56.3834 11.6277 57.5933 12.6458 60.0091 14.6781C62.4996 16.7719 65.0276 17.8311 68.354 18.0897C71.5181 18.3402 73.1023 18.4674 74.4245 18.9273C77.4764 19.9947 79.8797 22.3636 80.9566 25.3811C81.4223 26.6825 81.5511 28.2467 81.8048 31.3751C82.0667 34.6595 83.1353 37.1515 85.2558 39.6107C87.3182 41.996 88.3493 43.1907 88.9522 44.4388C90.3493 47.325 90.3493 50.6791 88.9522 53.5612C88.3493 54.8093 87.3182 56.004 85.26 58.3893C83.1995 60.6721 81.9818 63.5761 81.8048 66.629C81.5511 69.7533 81.4223 71.3175 80.9566 72.623C80.4227 74.1111 79.5587 75.4625 78.4278 76.5784C77.297 77.6944 75.9277 78.5466 74.4203 79.0728C73.1023 79.5326 71.5181 79.6598 68.3498 79.9103C65.0235 80.1689 62.4996 81.224 60.0091 83.3178C57.5933 85.3542 56.3834 86.3723 55.1194 86.9676C53.6767 87.6473 52.0984 88 50.4999 88C48.9015 88 47.3232 87.6473 45.8805 86.9676C44.6165 86.3723 43.4065 85.3542 40.9908 83.3219C38.6788 81.2874 35.7378 80.085 32.6459 79.9103C29.4817 79.6598 27.8976 79.5326 26.5754 79.0728C25.0683 78.5456 23.6996 77.6926 22.5695 76.5759C21.4393 75.4593 20.5762 74.1073 20.0433 72.6189C19.5776 71.3175 19.4487 69.7533 19.1951 66.6249C19.0183 63.5739 17.8021 60.6716 15.744 58.3893C13.6817 56.004 12.6505 54.8093 12.0435 53.5612C11.3558 52.1364 10.9993 50.5779 11 48.9995C11.0007 47.4212 11.3587 45.863 12.0476 44.4388C12.6505 43.1907 13.6817 41.996 15.7399 39.6107C17.902 37.1023 18.9373 34.5897 19.1951 31.371C19.4487 28.2467 19.5776 26.6825 20.0433 25.377C20.5771 23.8889 21.4411 22.5375 22.572 21.4216C23.7029 20.3056 25.0721 19.4534 26.5795 18.9273C27.8976 18.4674 29.4817 18.3402 32.6501 18.0897C35.7399 17.9152 38.6793 16.7102 40.9908 14.6781Z" stroke="#7F3F87" stroke-width="3" stroke-linecap="round" stroke-linejoin="round"/>
<path d="M49.5 24.75V49.5L66 57.75" stroke="#7F3F87" stroke-width="3" stroke-linecap="round" stroke-linejoin="round"/>
<path opacity="0.15" d="M33.4126 94.6688C33.4126 94.9125 33.8447 95.1539 34.6843 95.3791C35.5239 95.6043 36.7544 95.8089 38.3057 95.9813C39.8571 96.1537 41.6987 96.2904 43.7256 96.3837C45.7525 96.477 47.9249 96.525 50.1188 96.525C52.3127 96.525 54.4852 96.477 56.5121 96.3837C58.5389 96.2904 60.3806 96.1537 61.9319 95.9813C63.4833 95.8089 64.7138 95.6043 65.5534 95.3791C66.393 95.1539 66.8251 94.9125 66.8251 94.6688C66.8251 94.1764 65.065 93.7043 61.9319 93.3562C58.7989 93.0081 54.5496 92.8125 50.1188 92.8125C45.6881 92.8125 41.4388 93.0081 38.3057 93.3562C35.1727 93.7043 33.4126 94.1764 33.4126 94.6688Z" fill="#5C3C86"/>
</svg>
