<svg width="279" height="84" viewBox="0 0 279 84" fill="none" xmlns="http://www.w3.org/2000/svg">
<rect x="0.567627" y="4.52686" width="277.532" height="79.473" rx="39.7365" fill="#774936"/>
<rect width="277.532" height="79.473" rx="39.7365" fill="#CD9777"/>
<rect x="6.81055" y="3.52051" width="265.046" height="71.9281" rx="35.9641" fill="url(#paint0_linear_132_4043)"/>
<ellipse cx="6.1319" cy="9.70674" rx="6.1319" ry="9.70674" transform="matrix(0.716421 -0.697668 0.778373 0.627802 240.074 17.6099)" fill="white"/>
<ellipse cx="3.77163" cy="5.47924" rx="3.77163" ry="5.47924" transform="matrix(0.918776 -0.394779 0.479933 0.877305 258.056 28.9575)" fill="white"/>
<g filter="url(#filter0_dd_132_4043)">
<path d="M130.386 55.287C130.14 55.5603 129.689 55.779 129.033 55.943C128.377 56.107 127.639 56.2027 126.819 56.23C125.999 56.2847 125.152 56.271 124.277 56.189C123.402 56.1343 122.623 55.9977 121.94 55.779C120.628 54.8497 119.48 53.7427 118.496 52.458C117.539 51.1733 116.678 49.957 115.913 48.809C115.175 47.6337 114.519 46.6497 113.945 45.857C113.371 45.037 112.852 44.627 112.387 44.627C111.95 44.627 111.676 44.709 111.567 44.873C111.485 45.0097 111.444 45.3377 111.444 45.857C111.444 46.431 111.485 47.0597 111.567 47.743C111.676 48.4263 111.786 49.1233 111.895 49.834C112.032 50.5173 112.141 51.2007 112.223 51.884C112.332 52.5673 112.387 53.196 112.387 53.77C112.387 54.1527 112.36 54.5217 112.305 54.877C112.25 55.2323 112.1 55.5603 111.854 55.861C111.225 56.2437 110.433 56.517 109.476 56.681C108.547 56.8723 107.576 56.9817 106.565 57.009C105.554 57.0637 104.583 57.05 103.654 56.968C102.725 56.9133 101.946 56.8177 101.317 56.681C101.071 56.353 100.921 56.0387 100.866 55.738C100.729 55.1913 100.606 54.5627 100.497 53.852C100.388 53.114 100.292 52.376 100.21 51.638C100.155 50.8727 100.101 50.1347 100.046 49.424C100.019 48.686 100.005 48.03 100.005 47.456C100.005 45.078 100.046 42.7547 100.128 40.486C100.237 38.19 100.524 35.9487 100.989 33.762C101.044 33.5433 101.071 33.393 101.071 33.311C101.098 33.2017 101.112 33.106 101.112 33.024C101.112 32.696 101.03 32.4637 100.866 32.327C100.729 32.163 100.552 32.0263 100.333 31.917C100.142 31.7803 99.9365 31.6437 99.7178 31.507C99.5265 31.343 99.3625 31.097 99.2258 30.769C99.1712 30.6323 99.1165 30.4273 99.0618 30.154C99.0345 29.8807 99.0072 29.6073 98.9798 29.334C98.9525 29.0333 98.9252 28.76 98.8978 28.514C98.8978 28.2407 98.8978 28.022 98.8978 27.858C98.8978 26.71 98.9662 25.8217 99.1028 25.193C99.2395 24.5643 99.4992 24.0997 99.8818 23.799C100.265 23.4983 100.784 23.3207 101.44 23.266C102.096 23.2113 102.93 23.184 103.941 23.184C104.761 23.184 105.581 23.2113 106.401 23.266C107.221 23.2933 108.041 23.307 108.861 23.307C109.572 23.307 110.31 23.348 111.075 23.43C111.868 23.512 112.565 23.7853 113.166 24.25C113.603 24.578 114.027 25.152 114.437 25.972C114.847 26.792 115.243 27.7213 115.626 28.76C116.036 29.7987 116.419 30.892 116.774 32.04C117.157 33.1607 117.539 34.1993 117.922 35.156C118.305 36.0853 118.674 36.8507 119.029 37.452C119.412 38.0533 119.794 38.354 120.177 38.354C120.56 38.354 120.778 38.149 120.833 37.739C120.915 37.329 120.956 36.9053 120.956 36.468C120.956 34.7733 120.888 33.1743 120.751 31.671C120.642 30.1677 120.587 28.5823 120.587 26.915C120.587 26.423 120.614 25.8627 120.669 25.234C120.751 24.6053 120.983 24.1133 121.366 23.758C121.94 23.512 122.623 23.3343 123.416 23.225C124.236 23.1157 125.083 23.061 125.958 23.061C126.86 23.061 127.735 23.1293 128.582 23.266C129.457 23.4027 130.222 23.594 130.878 23.84C131.343 24.2227 131.671 24.6873 131.862 25.234C132.163 25.9993 132.395 26.874 132.559 27.858C132.723 28.842 132.846 29.8533 132.928 30.892C133.01 31.9033 133.065 32.9147 133.092 33.926C133.119 34.9373 133.133 35.853 133.133 36.673C133.133 37.411 133.119 38.2993 133.092 39.338C133.092 40.3493 133.065 41.4427 133.01 42.618C132.955 43.766 132.873 44.9413 132.764 46.144C132.682 47.3467 132.545 48.5083 132.354 49.629C132.163 50.7223 131.917 51.7473 131.616 52.704C131.343 53.6333 131.001 54.3987 130.591 55C130.536 55.0547 130.495 55.0957 130.468 55.123C130.468 55.1777 130.441 55.2323 130.386 55.287ZM142.04 39.912C142.04 35.4567 142.792 31.9307 144.295 29.334C145.799 26.7373 147.835 24.9333 150.404 23.922C151.088 23.6487 151.839 23.4437 152.659 23.307C153.479 23.143 154.313 23.02 155.16 22.938C156.035 22.856 156.896 22.8013 157.743 22.774C158.591 22.7467 159.383 22.733 160.121 22.733C160.832 22.733 161.584 22.7467 162.376 22.774C163.169 22.8013 163.975 22.8697 164.795 22.979C165.615 23.061 166.408 23.184 167.173 23.348C167.966 23.4847 168.677 23.676 169.305 23.922C170.59 24.4413 171.738 25.152 172.749 26.054C173.788 26.9287 174.663 28.022 175.373 29.334C176.111 30.646 176.672 32.1903 177.054 33.967C177.437 35.7163 177.628 37.698 177.628 39.912C177.628 43.192 177.218 45.98 176.398 48.276C175.578 50.5447 174.43 52.3897 172.954 53.811C171.478 55.205 169.702 56.2163 167.624 56.845C165.574 57.4737 163.292 57.788 160.777 57.788H158.891C156.404 57.788 154.122 57.4737 152.044 56.845C149.967 56.2163 148.19 55.205 146.714 53.811C145.238 52.3897 144.09 50.5447 143.27 48.276C142.45 45.98 142.04 43.192 142.04 39.912ZM159.834 31.876C158.987 31.876 158.167 32.0537 157.374 32.409C156.582 32.7643 155.871 33.27 155.242 33.926C154.641 34.582 154.149 35.3883 153.766 36.345C153.411 37.2743 153.233 38.3267 153.233 39.502C153.233 41.8253 153.753 43.643 154.791 44.955C155.857 46.2397 157.538 46.882 159.834 46.882C162.158 46.882 163.839 46.2397 164.877 44.955C165.943 43.643 166.476 41.8253 166.476 39.502C166.476 38.3267 166.285 37.2743 165.902 36.345C165.547 35.3883 165.055 34.582 164.426 33.926C163.825 33.27 163.128 32.7643 162.335 32.409C161.543 32.0537 160.709 31.876 159.834 31.876Z" fill="white"/>
</g>
<defs>
<filter id="filter0_dd_132_4043" x="86.8979" y="13.7329" width="102.73" height="59.0552" filterUnits="userSpaceOnUse" color-interpolation-filters="sRGB">
<feFlood flood-opacity="0" result="BackgroundImageFix"/>
<feColorMatrix in="SourceAlpha" type="matrix" values="0 0 0 0 0 0 0 0 0 0 0 0 0 0 0 0 0 0 127 0" result="hardAlpha"/>
<feOffset dy="3"/>
<feGaussianBlur stdDeviation="6"/>
<feComposite in2="hardAlpha" operator="out"/>
<feColorMatrix type="matrix" values="0 0 0 0 0 0 0 0 0 0 0 0 0 0 0 0 0 0 0.25 0"/>
<feBlend mode="normal" in2="BackgroundImageFix" result="effect1_dropShadow_132_4043"/>
<feColorMatrix in="SourceAlpha" type="matrix" values="0 0 0 0 0 0 0 0 0 0 0 0 0 0 0 0 0 0 127 0" result="hardAlpha"/>
<feOffset dy="3"/>
<feComposite in2="hardAlpha" operator="out"/>
<feColorMatrix type="matrix" values="0 0 0 0 0.309804 0 0 0 0 0.309804 0 0 0 0 0.309804 0 0 0 0.6 0"/>
<feBlend mode="normal" in2="effect1_dropShadow_132_4043" result="effect2_dropShadow_132_4043"/>
<feBlend mode="normal" in="SourceGraphic" in2="effect2_dropShadow_132_4043" result="shape"/>
</filter>
<linearGradient id="paint0_linear_132_4043" x1="139.617" y1="3.52051" x2="142.293" y2="75.4758" gradientUnits="userSpaceOnUse">
<stop stop-color="#AFD8A0"/>
<stop offset="1" stop-color="#4A8136"/>
</linearGradient>
</defs>
</svg>
