<svg width="279" height="84" viewBox="0 0 279 84" fill="none" xmlns="http://www.w3.org/2000/svg">
<rect x="0.567627" y="4.52686" width="277.532" height="79.473" rx="39.7365" fill="#774936"/>
<rect width="277.532" height="79.473" rx="39.7365" fill="#CD9777"/>
<rect x="6.81055" y="3.52051" width="265.046" height="71.9281" rx="35.9641" fill="url(#paint0_linear_132_4035)"/>
<ellipse cx="6.1319" cy="9.70674" rx="6.1319" ry="9.70674" transform="matrix(0.716421 -0.697668 0.778373 0.627802 240.074 17.6099)" fill="white"/>
<ellipse cx="3.77163" cy="5.47924" rx="3.77163" ry="5.47924" transform="matrix(0.918776 -0.394779 0.479933 0.877305 258.056 28.9575)" fill="white"/>
<g filter="url(#filter0_dd_132_4035)">
<path d="M105.87 21.913C106.581 21.831 107.428 21.8993 108.412 22.118C109.396 22.3093 110.353 22.5963 111.282 22.979C112.239 23.3343 113.073 23.7717 113.783 24.291C114.494 24.8103 114.931 25.3433 115.095 25.89C115.095 25.9447 115.095 25.9857 115.095 26.013C115.123 26.0403 115.123 26.0813 115.095 26.136C114.931 26.8193 114.631 27.694 114.193 28.76C113.783 29.7987 113.305 30.892 112.758 32.04C112.239 33.188 111.679 34.3223 111.077 35.443C110.476 36.5363 109.929 37.4657 109.437 38.231C108.727 39.3517 108.098 40.3357 107.551 41.183C107.032 42.003 106.772 42.6453 106.772 43.11C106.772 45.16 106.868 47.169 107.059 49.137C107.278 51.105 107.401 53.0593 107.428 55C106.608 55.3827 105.665 55.6697 104.599 55.861C103.561 56.0797 102.508 56.2027 101.442 56.23C100.376 56.2573 99.3514 56.189 98.3674 56.025C97.3834 55.8883 96.5634 55.656 95.9074 55.328C95.7161 54.098 95.6067 52.9773 95.5794 51.966C95.5794 50.9547 95.6067 50.0117 95.6614 49.137C95.7161 48.2623 95.7844 47.4287 95.8664 46.636C95.9484 45.8433 95.9894 45.0233 95.9894 44.176C95.9894 43.602 95.6887 42.946 95.0874 42.208C94.5134 41.47 93.6797 40.4723 92.5864 39.215C91.7937 38.2857 91.0147 37.1377 90.2494 35.771C89.5114 34.377 88.8554 32.9693 88.2814 31.548C87.7074 30.1267 87.2427 28.7737 86.8874 27.489C86.5321 26.2043 86.3544 25.2067 86.3544 24.496C86.7371 24.1953 87.2974 23.8947 88.0354 23.594C88.7734 23.2933 89.5797 23.0337 90.4544 22.815C91.3291 22.5963 92.2174 22.446 93.1194 22.364C94.0487 22.282 94.8824 22.3093 95.6204 22.446C95.9211 22.856 96.1944 23.3753 96.4404 24.004C96.7137 24.6053 96.9871 25.275 97.2604 26.013C97.5611 26.7237 97.8617 27.4617 98.1624 28.227C98.4904 28.9923 98.8321 29.703 99.1874 30.359C99.5154 30.9603 99.8844 31.5207 100.294 32.04C100.732 32.532 101.06 32.778 101.278 32.778C101.442 32.778 101.606 32.6413 101.77 32.368C101.962 32.0673 102.139 31.712 102.303 31.302C102.467 30.892 102.631 30.4547 102.795 29.99C102.987 29.498 103.164 29.047 103.328 28.637C103.547 28.1997 103.738 27.6667 103.902 27.038C104.094 26.382 104.285 25.726 104.476 25.07C104.668 24.414 104.873 23.799 105.091 23.225C105.31 22.651 105.57 22.2137 105.87 21.913ZM147.986 47.005C148.287 47.4697 148.519 48.1257 148.683 48.973C148.875 49.793 148.998 50.6677 149.052 51.597C149.107 52.5263 149.107 53.442 149.052 54.344C148.998 55.246 148.861 55.9977 148.642 56.599C147.877 56.8997 146.989 57.1183 145.977 57.255C144.993 57.419 143.968 57.5283 142.902 57.583C141.836 57.665 140.784 57.706 139.745 57.706C138.707 57.7333 137.736 57.747 136.834 57.747C133.8 57.747 131.422 57.6923 129.7 57.583C128.006 57.4737 126.748 57.1867 125.928 56.722C125.108 56.2847 124.603 55.6013 124.411 54.672C124.22 53.7427 124.124 52.4443 124.124 50.777C124.124 49.4923 124.111 48.1667 124.083 46.8C124.083 45.406 124.07 44.0803 124.042 42.823C123.96 40.3083 123.919 37.7937 123.919 35.279C123.919 35.1697 123.906 35.0467 123.878 34.91C123.878 34.7733 123.878 34.6093 123.878 34.418C123.851 34.1173 123.837 33.7893 123.837 33.434C123.837 33.0513 123.837 32.6687 123.837 32.286C123.837 31.548 123.824 30.728 123.796 29.826C123.796 28.8967 123.837 28.022 123.919 27.202C124.029 26.3547 124.206 25.603 124.452 24.947C124.726 24.291 125.122 23.8537 125.641 23.635C126.489 23.2797 127.418 23.02 128.429 22.856C129.468 22.692 130.52 22.5827 131.586 22.528C132.652 22.4733 133.691 22.4597 134.702 22.487C135.741 22.487 136.684 22.487 137.531 22.487C138.242 22.487 139.021 22.5143 139.868 22.569C140.743 22.6237 141.631 22.7193 142.533 22.856C143.435 22.9653 144.31 23.1157 145.157 23.307C146.032 23.471 146.811 23.6897 147.494 23.963C147.74 24.4003 147.904 24.988 147.986 25.726C148.096 26.464 148.137 27.243 148.109 28.063C148.082 28.883 148.014 29.703 147.904 30.523C147.822 31.3157 147.713 32.0263 147.576 32.655C147.221 32.7643 146.825 32.8463 146.387 32.901C145.977 32.9283 145.458 32.942 144.829 32.942C144.228 32.942 143.49 32.942 142.615 32.942C141.768 32.9147 140.729 32.901 139.499 32.901H137.449C136.575 32.901 135.864 32.9147 135.317 32.942C134.798 32.942 134.388 32.9967 134.087 33.106C133.787 33.2153 133.582 33.3793 133.472 33.598C133.39 33.8167 133.349 34.1173 133.349 34.5C133.349 34.7733 133.377 35.0467 133.431 35.32C133.486 35.566 133.595 35.7983 133.759 36.017C133.951 36.2357 134.21 36.4133 134.538 36.55C134.866 36.6867 135.304 36.755 135.85 36.755C136.342 36.755 136.957 36.7413 137.695 36.714C138.433 36.6867 139.035 36.6457 139.499 36.591C139.964 36.5363 140.415 36.4953 140.852 36.468C141.317 36.4407 141.782 36.427 142.246 36.427C142.684 36.427 143.08 36.468 143.435 36.55C143.599 37.0693 143.722 37.698 143.804 38.436C143.886 39.174 143.927 39.912 143.927 40.65C143.927 41.388 143.9 42.085 143.845 42.741C143.791 43.3697 143.722 43.8343 143.64 44.135C143.449 44.1897 143.203 44.258 142.902 44.34C142.602 44.422 142.356 44.463 142.164 44.463C141.809 44.463 141.454 44.4493 141.098 44.422C140.743 44.3947 140.374 44.3537 139.991 44.299C139.609 44.2443 139.103 44.2033 138.474 44.176C137.846 44.1487 137.326 44.135 136.916 44.135C135.932 44.135 135.222 44.3127 134.784 44.668C134.374 44.996 134.169 45.3787 134.169 45.816C134.169 46.554 134.374 47.0323 134.784 47.251C135.194 47.4697 136.014 47.579 137.244 47.579C137.6 47.579 137.996 47.579 138.433 47.579C138.871 47.5517 139.308 47.5243 139.745 47.497C140.21 47.4423 140.661 47.4013 141.098 47.374C141.536 47.3193 141.918 47.2783 142.246 47.251C142.957 47.169 143.777 47.1007 144.706 47.046C145.663 46.964 146.497 46.923 147.207 46.923C147.344 46.923 147.467 46.9367 147.576 46.964C147.713 46.964 147.85 46.9777 147.986 47.005ZM173.027 57.583C171.852 57.583 170.567 57.5147 169.173 57.378C167.779 57.2687 166.426 57.1047 165.114 56.886C163.83 56.6947 162.654 56.476 161.588 56.23C160.522 55.984 159.73 55.738 159.21 55.492C158.964 54.672 158.8 53.6743 158.718 52.499C158.636 51.3237 158.609 50.162 158.636 49.014C158.691 47.866 158.787 46.8273 158.923 45.898C159.087 44.9413 159.292 44.2853 159.538 43.93C160.194 44.094 161.001 44.299 161.957 44.545C162.941 44.7637 163.98 44.9687 165.073 45.16C166.167 45.3513 167.274 45.5153 168.394 45.652C169.515 45.7887 170.54 45.857 171.469 45.857C173.492 45.857 174.503 45.5153 174.503 44.832C174.503 44.3673 174.039 43.93 173.109 43.52C172.207 43.11 171.087 42.6453 169.747 42.126C168.654 41.716 167.492 41.2103 166.262 40.609C165.06 40.0077 163.939 39.2833 162.9 38.436C161.889 37.5887 161.042 36.632 160.358 35.566C159.702 34.4727 159.374 33.229 159.374 31.835C159.374 30.277 159.648 28.8967 160.194 27.694C160.741 26.4913 161.766 25.4937 163.269 24.701C164.8 23.9083 166.905 23.307 169.583 22.897C172.262 22.487 175.72 22.282 179.956 22.282C180.722 22.282 181.514 22.3093 182.334 22.364C183.154 22.3913 183.933 22.446 184.671 22.528C185.437 22.61 186.12 22.7057 186.721 22.815C187.323 22.897 187.774 22.9927 188.074 23.102C188.238 23.348 188.375 23.758 188.484 24.332C188.621 24.8787 188.73 25.521 188.812 26.259C188.922 26.997 188.99 27.7897 189.017 28.637C189.072 29.457 189.099 30.2633 189.099 31.056C189.099 31.8213 189.072 32.532 189.017 33.188C188.963 33.844 188.867 34.3633 188.73 34.746C187.719 34.2813 186.585 33.9397 185.327 33.721C184.097 33.475 182.649 33.352 180.981 33.352C179.177 33.352 177.797 33.475 176.84 33.721C175.911 33.967 175.446 34.3223 175.446 34.787C175.446 35.2517 175.897 35.73 176.799 36.222C177.729 36.714 178.849 37.247 180.161 37.821C181.173 38.2583 182.225 38.7913 183.318 39.42C184.412 40.0487 185.409 40.773 186.311 41.593C187.241 42.3857 187.992 43.2877 188.566 44.299C189.168 45.283 189.468 46.3627 189.468 47.538C189.468 54.2347 183.988 57.583 173.027 57.583Z" fill="white"/>
</g>
<defs>
<filter id="filter0_dd_132_4035" x="74.3545" y="12.79" width="127.114" height="59.957" filterUnits="userSpaceOnUse" color-interpolation-filters="sRGB">
<feFlood flood-opacity="0" result="BackgroundImageFix"/>
<feColorMatrix in="SourceAlpha" type="matrix" values="0 0 0 0 0 0 0 0 0 0 0 0 0 0 0 0 0 0 127 0" result="hardAlpha"/>
<feOffset dy="3"/>
<feGaussianBlur stdDeviation="6"/>
<feComposite in2="hardAlpha" operator="out"/>
<feColorMatrix type="matrix" values="0 0 0 0 0 0 0 0 0 0 0 0 0 0 0 0 0 0 0.25 0"/>
<feBlend mode="normal" in2="BackgroundImageFix" result="effect1_dropShadow_132_4035"/>
<feColorMatrix in="SourceAlpha" type="matrix" values="0 0 0 0 0 0 0 0 0 0 0 0 0 0 0 0 0 0 127 0" result="hardAlpha"/>
<feOffset dy="3"/>
<feComposite in2="hardAlpha" operator="out"/>
<feColorMatrix type="matrix" values="0 0 0 0 0.309804 0 0 0 0 0.309804 0 0 0 0 0.309804 0 0 0 0.6 0"/>
<feBlend mode="normal" in2="effect1_dropShadow_132_4035" result="effect2_dropShadow_132_4035"/>
<feBlend mode="normal" in="SourceGraphic" in2="effect2_dropShadow_132_4035" result="shape"/>
</filter>
<linearGradient id="paint0_linear_132_4035" x1="139.617" y1="3.52051" x2="142.293" y2="75.4758" gradientUnits="userSpaceOnUse">
<stop stop-color="#AFD8A0"/>
<stop offset="1" stop-color="#4A8136"/>
</linearGradient>
</defs>
</svg>
