<svg width="400" height="400" viewBox="0 0 400 400" fill="none" xmlns="http://www.w3.org/2000/svg">
<ellipse cx="131" cy="164.5" rx="84" ry="80.5" fill="white"/>
<ellipse cx="169" cy="230" rx="82" ry="81" fill="white"/>
<ellipse cx="131.5" cy="254.5" rx="48.5" ry="43.5" fill="white"/>
<ellipse cx="209.5" cy="134" rx="87.5" ry="84" fill="white"/>
<path d="M286 232.5C286 278.616 248.84 316 203 316C158.83 310 120 278.616 120 232.5C120 186.384 157.16 149 203 149C248.84 149 286 186.384 286 232.5Z" fill="white"/>
<path d="M368 197C368 243.392 329.273 281 281.5 281C235.468 274.964 195 243.392 195 197C195 150.608 233.727 113 281.5 113C329.273 113 368 150.608 368 197Z" fill="white"/>
<path d="M141.636 270L201 282L134 322.5V272.5" stroke="white" stroke-width="32"/>
<path d="M371 192.5C371 245.243 294.5 259.5 252.5 288C187.054 288 134 245.243 134 192.5C134 139.757 187.054 97 252.5 97C317.946 97 371 139.757 371 192.5Z" fill="white"/>
<path d="M208.658 50C226.252 50.0108 243.456 55.1253 258.139 64.7098C272.821 74.2943 284.337 87.9276 291.26 103.92C302.978 105.227 314.322 108.802 324.643 114.443C334.964 120.084 344.06 127.679 351.412 136.796C358.764 145.912 364.228 156.372 367.492 167.576C370.756 178.78 371.756 190.511 370.435 202.097C369.114 213.684 365.497 224.9 359.792 235.105C354.087 245.309 346.405 254.303 337.185 261.572C327.964 268.842 317.386 274.244 306.054 277.471C294.722 280.699 282.858 281.687 271.14 280.381C262.611 295.297 248.909 306.655 232.567 312.356C216.225 318.058 201.649 317.728 185.542 311.407L118.194 351L117.739 297.478C111.15 295.971 104.99 293.013 99.7186 288.825C94.447 284.636 90.2001 279.324 87.2947 273.286C84.3893 267.247 82.9003 260.638 82.9388 253.952C82.9774 247.265 84.5424 240.673 87.5173 234.668C71.4424 225.524 59.0369 211.193 52.3823 194.078C45.7277 176.963 45.2288 158.105 50.9694 140.67C56.7099 123.234 68.3406 108.281 83.9101 98.319C99.4796 88.3571 118.04 83.9927 136.479 85.958C144.827 74.8005 155.707 65.7349 168.242 59.4898C180.778 53.2448 194.621 49.9944 208.658 50Z" stroke="black" stroke-width="2" stroke-linecap="round" stroke-linejoin="round"/>
<path d="M208.658 48C226.252 48.0109 243.456 53.1655 258.139 62.8252C272.821 72.4848 284.337 86.225 291.26 102.343C302.978 103.66 314.322 107.263 324.643 112.948C334.964 118.633 344.06 126.288 351.412 135.476C358.764 144.665 364.228 155.206 367.492 166.498C370.756 177.79 371.756 189.613 370.435 201.29C369.114 212.968 365.497 224.271 359.792 234.556C354.087 244.841 346.405 253.905 337.185 261.232C327.964 268.558 317.386 274.003 306.054 277.255C294.722 280.508 283.219 281.316 271.5 280C262.972 295.033 248.909 306.668 232.567 312.414C216.225 318.16 201.607 317.871 185.5 311.5L118.5 351.5L117.739 297.418C111.15 295.9 104.99 292.919 99.7186 288.697C94.447 284.476 90.2001 279.122 87.2947 273.037C84.3893 266.951 82.9003 260.29 82.9388 253.551C82.9774 246.812 84.5424 240.168 87.5173 234.116C71.4424 224.901 59.0369 210.457 52.3823 193.208C45.7277 175.958 45.2288 156.953 50.9694 139.381C56.7099 121.808 68.3406 106.738 83.9101 96.6979C99.4796 86.6579 118.04 82.2593 136.479 84.24C144.827 72.9949 155.707 63.8583 168.242 57.5642C180.778 51.2702 194.621 47.9944 208.658 48Z" stroke="black" stroke-width="2.5" stroke-linecap="round" stroke-linejoin="round"/>
<path d="M320.267 68.6132C315.385 56.6548 311.751 44.1311 310.438 31.2756L310.438 31.2753C310.164 28.6093 311.919 26.1387 314.603 25.7678C317.226 25.4154 319.741 27.3103 320.09 29.9364L320.09 29.937C321.801 42.7056 321.432 55.7727 320.267 68.6132Z" fill="white" stroke="black"/>
<mask id="path-12-inside-1_135_66" fill="white">
<path d="M334.607 72.969C334.625 72.969 334.64 72.9653 334.654 72.9545C334.722 72.9041 334.903 72.7888 334.895 72.6843C334.895 72.6626 334.867 72.6626 334.859 72.6771C334.859 72.6843 334.852 72.6843 334.852 72.6843H334.859C334.852 72.6843 334.849 72.6915 334.849 72.6951V72.6879C334.841 72.6951 334.838 72.6987 334.827 72.7059C334.834 72.7059 334.834 72.7059 334.834 72.7059C334.812 72.7167 334.787 72.7347 334.766 72.7455C334.748 72.7563 334.73 72.7599 334.712 72.7672C334.73 72.6807 334.748 72.5978 334.766 72.5113C334.949 72.1401 335.133 71.769 335.31 71.3942C335.303 71.405 335.299 71.423 335.292 71.4338C335.504 71.0951 335.717 70.7563 335.93 70.4176C338.888 66.1005 342.229 62.1401 345.526 58.0897C348.438 54.5185 351.267 50.8861 354.29 47.4086C355.22 46.4032 356.175 45.4266 357.151 44.4717C357.93 43.8014 358.715 43.1491 359.512 42.5041C361.919 40.5726 362.232 36.9221 360.012 34.7023C358.081 32.7708 354.549 32.6014 352.65 34.7023C350.996 36.5329 349.263 38.3203 347.868 40.3708C346.405 42.5257 345.047 44.7383 343.854 47.059C342.621 49.4374 341.522 51.8518 340.456 54.3059C339.436 56.6626 338.376 59.0194 337.508 61.4374C336.643 63.823 335.821 66.2122 335.187 68.6735C334.841 70.0104 334.312 71.4915 334.524 72.8897C334.531 72.9437 334.567 72.969 334.607 72.969Z"/>
</mask>
<path d="M334.607 72.969C334.625 72.969 334.64 72.9653 334.654 72.9545C334.722 72.9041 334.903 72.7888 334.895 72.6843C334.895 72.6626 334.867 72.6626 334.859 72.6771C334.859 72.6843 334.852 72.6843 334.852 72.6843H334.859C334.852 72.6843 334.849 72.6915 334.849 72.6951V72.6879C334.841 72.6951 334.838 72.6987 334.827 72.7059C334.834 72.7059 334.834 72.7059 334.834 72.7059C334.812 72.7167 334.787 72.7347 334.766 72.7455C334.748 72.7563 334.73 72.7599 334.712 72.7672C334.73 72.6807 334.748 72.5978 334.766 72.5113C334.949 72.1401 335.133 71.769 335.31 71.3942C335.303 71.405 335.299 71.423 335.292 71.4338C335.504 71.0951 335.717 70.7563 335.93 70.4176C338.888 66.1005 342.229 62.1401 345.526 58.0897C348.438 54.5185 351.267 50.8861 354.29 47.4086C355.22 46.4032 356.175 45.4266 357.151 44.4717C357.93 43.8014 358.715 43.1491 359.512 42.5041C361.919 40.5726 362.232 36.9221 360.012 34.7023C358.081 32.7708 354.549 32.6014 352.65 34.7023C350.996 36.5329 349.263 38.3203 347.868 40.3708C346.405 42.5257 345.047 44.7383 343.854 47.059C342.621 49.4374 341.522 51.8518 340.456 54.3059C339.436 56.6626 338.376 59.0194 337.508 61.4374C336.643 63.823 335.821 66.2122 335.187 68.6735C334.841 70.0104 334.312 71.4915 334.524 72.8897C334.531 72.9437 334.567 72.969 334.607 72.969Z" fill="white"/>
<path d="M334.654 72.9545L334.061 72.1495L334.054 72.1545L334.654 72.9545ZM334.895 72.6843H333.895V72.7187L333.898 72.7531L334.895 72.6843ZM334.859 72.6771L333.965 72.2298L333.859 72.441V72.6771H334.859ZM334.852 72.6843V71.6843L334.852 73.6843L334.852 72.6843ZM334.849 72.6879H335.849V70.2737L334.141 71.9808L334.849 72.6879ZM334.827 72.7059L334.272 71.8738L331.524 73.7059H334.827V72.7059ZM334.834 72.7059V71.7059H334.598L334.387 71.8115L334.834 72.7059ZM334.766 72.7455L334.318 71.8511L334.284 71.8683L334.251 71.888L334.766 72.7455ZM334.712 72.7672L333.733 72.5632L333.352 74.3878L335.083 73.6956L334.712 72.7672ZM334.766 72.5113L333.869 72.0676L333.813 72.1822L333.787 72.3073L334.766 72.5113ZM335.31 71.3942L336.214 71.8204L334.478 70.8395L335.31 71.3942ZM335.292 71.4338L334.445 70.9022L336.124 71.9885L335.292 71.4338ZM335.93 70.4176L335.105 69.8523L335.093 69.8689L335.083 69.886L335.93 70.4176ZM345.526 58.0897L344.751 57.4578L344.75 57.4584L345.526 58.0897ZM354.29 47.4086L353.556 46.7297L353.545 46.7409L353.535 46.7525L354.29 47.4086ZM357.151 44.4717L356.499 43.7139L356.475 43.7345L356.452 43.7567L357.151 44.4717ZM359.512 42.5041L358.886 41.7241L358.882 41.727L359.512 42.5041ZM352.65 34.7023L351.908 34.0317L351.908 34.0319L352.65 34.7023ZM347.868 40.3708L347.041 39.8084L347.041 39.809L347.868 40.3708ZM343.854 47.059L344.742 47.5191L344.743 47.5162L343.854 47.059ZM340.456 54.3059L339.539 53.9073L339.538 53.9087L340.456 54.3059ZM337.508 61.4374L338.448 61.7782L338.449 61.7754L337.508 61.4374ZM335.187 68.6735L336.155 68.924L336.156 68.923L335.187 68.6735ZM334.524 72.8897L335.515 72.7575L335.514 72.7484L335.513 72.7393L334.524 72.8897ZM334.607 73.969C334.789 73.969 335.028 73.9237 335.254 73.7545L334.054 72.1545C334.137 72.0924 334.236 72.0398 334.35 72.0064C334.458 71.9745 334.55 71.969 334.607 71.969V73.969ZM335.247 73.7596C335.229 73.7732 335.373 73.6734 335.478 73.5776C335.536 73.5246 335.629 73.4327 335.711 73.3053C335.789 73.1844 335.915 72.9408 335.893 72.6155L333.898 72.7531C333.879 72.48 333.986 72.29 334.03 72.2217C334.078 72.1468 334.123 72.1066 334.128 72.1017C334.138 72.0926 334.14 72.0918 334.127 72.1018C334.121 72.1063 334.114 72.1112 334.103 72.1189C334.096 72.1241 334.077 72.1375 334.061 72.1495L335.247 73.7596ZM335.895 72.6843C335.895 72.4403 335.806 72.1732 335.598 71.9647C335.404 71.7709 335.173 71.6935 334.99 71.6732C334.688 71.6396 334.205 71.7492 333.965 72.2298L335.754 73.1243C335.521 73.5905 335.056 73.6929 334.77 73.661C334.595 73.6417 334.372 73.5674 334.184 73.3792C333.981 73.1764 333.895 72.9174 333.895 72.6843H335.895ZM333.859 72.6771C333.859 72.504 333.905 72.3076 334.026 72.1266C334.143 71.9518 334.291 71.8477 334.409 71.7888C334.523 71.7319 334.624 71.7085 334.689 71.6977C334.724 71.6919 334.755 71.6886 334.782 71.6868C334.795 71.6858 334.808 71.6852 334.819 71.6848C334.825 71.6846 334.831 71.6845 334.837 71.6844C334.839 71.6843 334.842 71.6843 334.845 71.6843C334.846 71.6843 334.847 71.6843 334.849 71.6843C334.849 71.6843 334.85 71.6843 334.851 71.6843C334.851 71.6843 334.852 71.6843 334.852 71.6843C334.852 71.6843 334.853 71.6843 334.852 72.6843C334.852 73.6843 334.852 73.6843 334.853 73.6843C334.853 73.6843 334.853 73.6843 334.854 73.6843C334.854 73.6843 334.855 73.6843 334.856 73.6843C334.857 73.6843 334.858 73.6842 334.86 73.6842C334.862 73.6842 334.865 73.6842 334.868 73.6841C334.873 73.6841 334.879 73.6839 334.885 73.6837C334.897 73.6833 334.91 73.6827 334.923 73.6817C334.95 73.6798 334.982 73.6765 335.017 73.6706C335.083 73.6596 335.187 73.6357 335.303 73.5779C335.422 73.5181 335.572 73.4127 335.69 73.2359C335.812 73.0528 335.859 72.8537 335.859 72.6771H333.859ZM334.852 73.6843H334.859V71.6843H334.852V73.6843ZM334.859 71.6843C334.484 71.6843 334.215 71.883 334.07 72.064C333.951 72.2133 333.849 72.4305 333.849 72.6951H335.849C335.849 72.9561 335.748 73.1679 335.632 73.3127C335.491 73.4891 335.228 73.6843 334.859 73.6843V71.6843ZM335.849 72.6951V72.6879H333.849V72.6951H335.849ZM334.141 71.9808C334.133 71.989 334.157 71.964 334.189 71.9373C334.225 71.9064 334.256 71.8849 334.272 71.8738L335.382 73.5379C335.469 73.48 335.524 73.4262 335.556 73.395L334.141 71.9808ZM334.827 73.7059C334.827 73.7059 334.827 73.7059 334.827 73.7059C334.827 73.7059 334.827 73.7059 334.827 73.7059C334.827 73.7059 334.827 73.7059 334.827 73.7059C334.827 73.7059 334.827 73.7059 334.827 73.7059C334.827 73.7059 334.827 73.7059 334.827 73.7059C334.827 73.7059 334.827 73.7059 334.827 73.7059C334.827 73.7059 334.827 73.7059 334.827 73.7059C334.827 73.7059 334.827 73.7059 334.827 73.7059C334.827 73.7059 334.827 73.7059 334.827 73.7059C334.827 73.7059 334.827 73.7059 334.827 73.7059C334.827 73.7059 334.827 73.7059 334.827 73.7059C334.827 73.7059 334.827 73.7059 334.827 73.7059C334.827 73.7059 334.827 73.7059 334.827 73.7059C334.827 73.7059 334.827 73.7059 334.827 73.7059C334.827 73.7059 334.827 73.7059 334.827 73.7059C334.828 73.7059 334.828 73.7059 334.828 73.7059C334.828 73.7059 334.828 73.7059 334.828 73.7059C334.828 73.7059 334.828 73.7059 334.828 73.7059C334.828 73.7059 334.828 73.7059 334.828 73.7059C334.828 73.7059 334.828 73.7059 334.828 73.7059C334.828 73.7059 334.828 73.7059 334.828 73.7059C334.828 73.7059 334.828 73.7059 334.828 73.7059C334.828 73.7059 334.828 73.7059 334.828 73.7059C334.828 73.7059 334.828 73.7059 334.828 73.7059C334.828 73.7059 334.828 73.7059 334.828 73.7059C334.828 73.7059 334.828 73.7059 334.828 73.7059C334.828 73.7059 334.828 73.7059 334.828 73.7059C334.828 73.7059 334.828 73.7059 334.828 73.7059C334.828 73.7059 334.828 73.7059 334.828 73.7059C334.828 73.7059 334.828 73.7059 334.828 73.7059C334.828 73.7059 334.828 73.7059 334.828 73.7059C334.828 73.7059 334.828 73.7059 334.828 73.7059C334.828 73.7059 334.828 73.7059 334.828 73.7059C334.828 73.7059 334.828 73.7059 334.828 73.7059C334.828 73.7059 334.828 73.7059 334.828 73.7059C334.828 73.7059 334.828 73.7059 334.828 73.7059C334.828 73.7059 334.828 73.7059 334.828 73.7059C334.828 73.7059 334.828 73.7059 334.828 73.7059C334.828 73.7059 334.828 73.7059 334.828 73.7059C334.828 73.7059 334.828 73.7059 334.828 73.7059C334.828 73.7059 334.828 73.7059 334.828 73.7059C334.828 73.7059 334.829 73.7059 334.829 73.7059C334.829 73.7059 334.829 73.7059 334.829 73.7059C334.829 73.7059 334.829 73.7059 334.829 73.7059C334.829 73.7059 334.829 73.7059 334.829 73.7059C334.829 73.7059 334.829 73.7059 334.829 73.7059C334.829 73.7059 334.829 73.7059 334.829 73.7059C334.829 73.7059 334.829 73.7059 334.829 73.7059C334.829 73.7059 334.829 73.7059 334.829 73.7059C334.829 73.7059 334.829 73.7059 334.829 73.7059C334.829 73.7059 334.829 73.7059 334.829 73.7059C334.829 73.7059 334.829 73.7059 334.829 73.7059C334.829 73.7059 334.829 73.7059 334.829 73.7059C334.829 73.7059 334.829 73.7059 334.829 73.7059C334.829 73.7059 334.829 73.7059 334.829 73.7059C334.829 73.7059 334.829 73.7059 334.829 73.7059C334.829 73.7059 334.829 73.7059 334.829 73.7059C334.829 73.7059 334.829 73.7059 334.829 73.7059C334.829 73.7059 334.829 73.7059 334.829 73.7059C334.829 73.7059 334.829 73.7059 334.829 73.7059C334.829 73.7059 334.829 73.7059 334.829 73.7059C334.829 73.7059 334.829 73.7059 334.829 73.7059C334.829 73.7059 334.829 73.7059 334.829 73.7059C334.829 73.7059 334.829 73.7059 334.829 73.7059C334.829 73.7059 334.829 73.7059 334.829 73.7059C334.829 73.7059 334.829 73.7059 334.829 73.7059C334.829 73.7059 334.829 73.7059 334.829 73.7059C334.829 73.7059 334.829 73.7059 334.829 73.7059C334.829 73.7059 334.829 73.7059 334.829 73.7059C334.829 73.7059 334.829 73.7059 334.829 73.7059C334.829 73.7059 334.829 73.7059 334.829 73.7059C334.829 73.7059 334.83 73.7059 334.83 73.7059C334.83 73.7059 334.83 73.7059 334.83 73.7059C334.83 73.7059 334.83 73.7059 334.83 73.7059C334.83 73.7059 334.83 73.7059 334.83 73.7059C334.83 73.7059 334.83 73.7059 334.83 73.7059C334.83 73.7059 334.83 73.7059 334.83 73.7059C334.83 73.7059 334.83 73.7059 334.83 73.7059C334.83 73.7059 334.83 73.7059 334.83 73.7059C334.83 73.7059 334.83 73.7059 334.83 73.7059C334.83 73.7059 334.83 73.7059 334.83 73.7059C334.83 73.7059 334.83 73.7059 334.83 73.7059C334.83 73.7059 334.83 73.7059 334.83 73.7059C334.83 73.7059 334.83 73.7059 334.83 73.7059C334.83 73.7059 334.83 73.7059 334.83 73.7059C334.83 73.7059 334.83 73.7059 334.83 73.7059C334.83 73.7059 334.83 73.7059 334.83 73.7059C334.83 73.7059 334.83 73.7059 334.83 73.7059C334.83 73.7059 334.83 73.7059 334.83 73.7059C334.83 73.7059 334.83 73.7059 334.83 73.7059C334.83 73.7059 334.83 73.7059 334.83 73.7059C334.83 73.7059 334.83 73.7059 334.83 73.7059C334.83 73.7059 334.83 73.7059 334.83 73.7059C334.83 73.7059 334.83 73.7059 334.83 73.7059C334.83 73.7059 334.83 73.7059 334.83 73.7059C334.83 73.7059 334.83 73.7059 334.83 73.7059C334.83 73.7059 334.83 73.7059 334.83 73.7059C334.83 73.7059 334.83 73.7059 334.83 73.7059C334.83 73.7059 334.83 73.7059 334.83 73.7059C334.83 73.7059 334.83 73.7059 334.83 73.7059C334.83 73.7059 334.83 73.7059 334.83 73.7059C334.83 73.7059 334.83 73.7059 334.83 73.7059C334.83 73.7059 334.83 73.7059 334.83 73.7059C334.83 73.7059 334.83 73.7059 334.83 73.7059C334.83 73.7059 334.83 73.7059 334.83 73.7059C334.83 73.7059 334.83 73.7059 334.83 73.7059C334.831 73.7059 334.831 73.7059 334.831 73.7059C334.831 73.7059 334.831 73.7059 334.831 73.7059C334.831 73.7059 334.831 73.7059 334.831 73.7059C334.831 73.7059 334.831 73.7059 334.831 73.7059C334.831 73.7059 334.831 73.7059 334.831 73.7059C334.831 73.7059 334.831 73.7059 334.831 73.7059C334.831 73.7059 334.831 73.7059 334.831 73.7059C334.831 73.7059 334.831 73.7059 334.831 73.7059C334.831 73.7059 334.831 73.7059 334.831 73.7059C334.831 73.7059 334.831 73.7059 334.831 73.7059C334.831 73.7059 334.831 73.7059 334.831 73.7059C334.831 73.7059 334.831 73.7059 334.831 73.7059C334.831 73.7059 334.831 73.7059 334.831 73.7059C334.831 73.7059 334.831 73.7059 334.831 73.7059C334.831 73.7059 334.831 73.7059 334.831 73.7059C334.831 73.7059 334.831 73.7059 334.831 73.7059C334.831 73.7059 334.831 73.7059 334.831 73.7059C334.831 73.7059 334.831 73.7059 334.831 73.7059C334.831 73.7059 334.831 73.7059 334.831 73.7059C334.831 73.7059 334.831 73.7059 334.831 73.7059C334.831 73.7059 334.831 73.7059 334.831 73.7059C334.831 73.7059 334.831 73.7059 334.831 73.7059C334.831 73.7059 334.831 73.7059 334.831 73.7059C334.831 73.7059 334.831 73.7059 334.831 73.7059C334.831 73.7059 334.831 73.7059 334.831 73.7059C334.831 73.7059 334.831 73.7059 334.831 73.7059C334.831 73.7059 334.831 73.7059 334.831 73.7059C334.831 73.7059 334.831 73.7059 334.831 73.7059C334.831 73.7059 334.831 73.7059 334.831 73.7059C334.831 73.7059 334.831 73.7059 334.831 73.7059C334.831 73.7059 334.831 73.7059 334.831 73.7059C334.831 73.7059 334.831 73.7059 334.831 73.7059C334.831 73.7059 334.831 73.7059 334.831 73.7059C334.831 73.7059 334.831 73.7059 334.831 73.7059C334.831 73.7059 334.831 73.7059 334.831 73.7059C334.831 73.7059 334.831 73.7059 334.831 73.7059C334.831 73.7059 334.831 73.7059 334.831 73.7059C334.831 73.7059 334.831 73.7059 334.831 73.7059C334.831 73.7059 334.831 73.7059 334.831 73.7059C334.831 73.7059 334.831 73.7059 334.831 73.7059C334.831 73.7059 334.831 73.7059 334.831 73.7059C334.831 73.7059 334.831 73.7059 334.831 73.7059C334.832 73.7059 334.832 73.7059 334.832 73.7059C334.832 73.7059 334.832 73.7059 334.832 73.7059C334.832 73.7059 334.832 73.7059 334.832 73.7059C334.832 73.7059 334.832 73.7059 334.832 73.7059C334.832 73.7059 334.832 73.7059 334.832 73.7059C334.832 73.7059 334.832 73.7059 334.832 73.7059C334.832 73.7059 334.832 73.7059 334.832 73.7059C334.832 73.7059 334.832 73.7059 334.832 73.7059C334.832 73.7059 334.832 73.7059 334.832 73.7059C334.832 73.7059 334.832 73.7059 334.832 73.7059C334.832 73.7059 334.832 73.7059 334.832 73.7059C334.832 73.7059 334.832 73.7059 334.832 73.7059C334.832 73.7059 334.832 73.7059 334.832 73.7059C334.832 73.7059 334.832 73.7059 334.832 73.7059C334.832 73.7059 334.832 73.7059 334.832 73.7059C334.832 73.7059 334.832 73.7059 334.832 73.7059C334.832 73.7059 334.832 73.7059 334.832 73.7059C334.832 73.7059 334.832 73.7059 334.832 73.7059C334.832 73.7059 334.832 73.7059 334.832 73.7059C334.832 73.7059 334.832 73.7059 334.832 73.7059C334.832 73.7059 334.832 73.7059 334.832 73.7059C334.832 73.7059 334.832 73.7059 334.832 73.7059C334.832 73.7059 334.832 73.7059 334.832 73.7059C334.832 73.7059 334.832 73.7059 334.832 73.7059C334.832 73.7059 334.832 73.7059 334.832 73.7059C334.832 73.7059 334.832 73.7059 334.832 73.7059C334.832 73.7059 334.832 73.7059 334.832 73.7059C334.832 73.7059 334.832 73.7059 334.832 73.7059C334.832 73.7059 334.832 73.7059 334.832 73.7059C334.832 73.7059 334.832 73.7059 334.832 73.7059C334.832 73.7059 334.832 73.7059 334.832 73.7059C334.832 73.7059 334.832 73.7059 334.832 73.7059C334.832 73.7059 334.832 73.7059 334.832 73.7059C334.832 73.7059 334.832 73.7059 334.832 73.7059C334.832 73.7059 334.832 73.7059 334.832 73.7059C334.832 73.7059 334.832 73.7059 334.832 73.7059C334.832 73.7059 334.832 73.7059 334.832 73.7059C334.832 73.7059 334.832 73.7059 334.832 73.7059C334.832 73.7059 334.832 73.7059 334.832 73.7059C334.832 73.7059 334.832 73.7059 334.832 73.7059C334.832 73.7059 334.832 73.7059 334.832 73.7059C334.832 73.7059 334.832 73.7059 334.832 73.7059C334.832 73.7059 334.832 73.7059 334.832 73.7059C334.832 73.7059 334.832 73.7059 334.832 73.7059C334.832 73.7059 334.832 73.7059 334.832 73.7059C334.832 73.7059 334.832 73.7059 334.832 73.7059C334.832 73.7059 334.832 73.7059 334.832 73.7059C334.832 73.7059 334.832 73.7059 334.832 73.7059C334.832 73.7059 334.832 73.7059 334.832 73.7059C334.832 73.7059 334.832 73.7059 334.832 73.7059C334.832 73.7059 334.832 73.7059 334.832 73.7059C334.832 73.7059 334.832 73.7059 334.832 73.7059C334.832 73.7059 334.832 73.7059 334.832 73.7059C334.832 73.7059 334.832 73.7059 334.832 73.7059C334.832 73.7059 334.832 73.7059 334.833 73.7059C334.833 73.7059 334.833 73.7059 334.833 73.7059C334.833 73.7059 334.833 73.7059 334.833 73.7059C334.833 73.7059 334.833 73.7059 334.833 73.7059C334.833 73.7059 334.833 73.7059 334.833 73.7059C334.833 73.7059 334.833 73.7059 334.833 73.7059C334.833 73.7059 334.833 73.7059 334.833 73.7059C334.833 73.7059 334.833 73.7059 334.833 73.7059C334.833 73.7059 334.833 73.7059 334.833 73.7059C334.833 73.7059 334.833 73.7059 334.833 73.7059C334.833 73.7059 334.833 73.7059 334.833 73.7059C334.833 73.7059 334.833 73.7059 334.833 73.7059C334.833 73.7059 334.833 73.7059 334.833 73.7059C334.833 73.7059 334.833 73.7059 334.833 73.7059C334.833 73.7059 334.833 73.7059 334.833 73.7059C334.833 73.7059 334.833 73.7059 334.833 73.7059C334.833 73.7059 334.833 73.7059 334.833 73.7059C334.833 73.7059 334.833 73.7059 334.833 73.7059C334.833 73.7059 334.833 73.7059 334.833 73.7059C334.833 73.7059 334.833 73.7059 334.833 73.7059C334.833 73.7059 334.833 73.7059 334.833 73.7059C334.833 73.7059 334.833 73.7059 334.833 73.7059C334.833 73.7059 334.833 73.7059 334.833 73.7059C334.833 73.7059 334.833 73.7059 334.833 73.7059C334.833 73.7059 334.833 73.7059 334.833 73.7059C334.833 73.7059 334.833 73.7059 334.833 73.7059C334.833 73.7059 334.833 73.7059 334.833 73.7059C334.833 73.7059 334.833 73.7059 334.833 73.7059C334.833 73.7059 334.833 73.7059 334.833 73.7059C334.833 73.7059 334.833 73.7059 334.833 73.7059C334.833 73.7059 334.833 73.7059 334.833 73.7059C334.833 73.7059 334.833 73.7059 334.833 73.7059C334.833 73.7059 334.833 73.7059 334.833 73.7059C334.833 73.7059 334.833 73.7059 334.833 73.7059C334.833 73.7059 334.833 73.7059 334.833 73.7059C334.833 73.7059 334.833 73.7059 334.833 73.7059C334.833 73.7059 334.833 73.7059 334.833 73.7059C334.833 73.7059 334.833 73.7059 334.833 73.7059C334.833 73.7059 334.833 73.7059 334.833 73.7059C334.833 73.7059 334.833 73.7059 334.833 73.7059C334.833 73.7059 334.833 73.7059 334.833 73.7059C334.833 73.7059 334.833 73.7059 334.833 73.7059C334.833 73.7059 334.833 73.7059 334.833 73.7059C334.833 73.7059 334.833 73.7059 334.833 73.7059C334.833 73.7059 334.833 73.7059 334.833 73.7059C334.833 73.7059 334.833 73.7059 334.833 73.7059C334.833 73.7059 334.833 73.7059 334.833 73.7059C334.833 73.7059 334.833 73.7059 334.833 73.7059C334.833 73.7059 334.833 73.7059 334.833 73.7059C334.833 73.7059 334.833 73.7059 334.833 73.7059C334.833 73.7059 334.833 73.7059 334.833 73.7059C334.833 73.7059 334.833 73.7059 334.833 73.7059C334.833 73.7059 334.833 73.7059 334.833 73.7059C334.833 73.7059 334.833 73.7059 334.833 73.7059C334.833 73.7059 334.833 73.7059 334.833 73.7059C334.833 73.7059 334.833 73.7059 334.833 73.7059C334.833 73.7059 334.833 73.7059 334.833 73.7059C334.833 73.7059 334.833 73.7059 334.833 73.7059C334.833 73.7059 334.833 73.7059 334.833 73.7059C334.833 73.7059 334.833 73.7059 334.833 73.7059C334.833 73.7059 334.833 73.7059 334.833 73.7059C334.833 73.7059 334.833 73.7059 334.833 73.7059C334.833 73.7059 334.833 73.7059 334.833 73.7059C334.833 73.7059 334.833 73.7059 334.833 73.7059C334.833 73.7059 334.833 73.7059 334.833 73.7059C334.833 73.7059 334.833 73.7059 334.833 73.7059C334.833 73.7059 334.833 73.7059 334.833 73.7059C334.833 73.7059 334.833 73.7059 334.833 73.7059C334.833 73.7059 334.833 73.7059 334.833 73.7059C334.833 73.7059 334.833 73.7059 334.833 73.7059C334.833 73.7059 334.833 73.7059 334.833 73.7059C334.833 73.7059 334.833 73.7059 334.833 73.7059C334.833 73.7059 334.833 73.7059 334.833 73.7059C334.833 73.7059 334.833 73.7059 334.833 73.7059C334.833 73.7059 334.833 73.7059 334.833 73.7059C334.833 73.7059 334.833 73.7059 334.833 73.7059C334.833 73.7059 334.833 73.7059 334.833 73.7059C334.833 73.7059 334.833 73.7059 334.833 73.7059C334.833 73.7059 334.833 73.7059 334.833 73.7059C334.833 73.7059 334.833 73.7059 334.833 73.7059C334.833 73.7059 334.833 73.7059 334.833 73.7059C334.833 73.7059 334.833 73.7059 334.833 73.7059C334.833 73.7059 334.833 73.7059 334.833 73.7059C334.833 73.7059 334.833 73.7059 334.833 73.7059C334.833 73.7059 334.833 73.7059 334.833 73.7059C334.833 73.7059 334.833 73.7059 334.833 73.7059C334.833 73.7059 334.833 73.7059 334.833 73.7059C334.833 73.7059 334.833 73.7059 334.833 73.7059C334.834 73.7059 334.834 73.7059 334.834 73.7059C334.834 73.7059 334.834 73.7059 334.834 73.7059C334.834 73.7059 334.834 73.7059 334.834 73.7059C334.834 73.7059 334.834 73.7059 334.834 73.7059C334.834 73.7059 334.834 73.7059 334.834 73.7059C334.834 73.7059 334.834 73.7059 334.834 73.7059C334.834 73.7059 334.834 73.7059 334.834 73.7059C334.834 73.7059 334.834 73.7059 334.834 73.7059C334.834 73.7059 334.834 73.7059 334.834 73.7059C334.834 73.7059 334.834 73.7059 334.834 73.7059C334.834 73.7059 334.834 73.7059 334.834 73.7059C334.834 73.7059 334.834 73.7059 334.834 73.7059C334.834 73.7059 334.834 73.7059 334.834 73.7059C334.834 73.7059 334.834 73.7059 334.834 73.7059C334.834 73.7059 334.834 73.7059 334.834 73.7059C334.834 73.7059 334.834 73.7059 334.834 73.7059C334.834 73.7059 334.834 73.7059 334.834 73.7059C334.834 73.7059 334.834 73.7059 334.834 73.7059C334.834 73.7059 334.834 73.7059 334.834 73.7059C334.834 73.7059 334.834 73.7059 334.834 73.7059C334.834 73.7059 334.834 73.7059 334.834 73.7059C334.834 73.7059 334.834 73.7059 334.834 73.7059C334.834 73.7059 334.834 73.7059 334.834 73.7059C334.834 73.7059 334.834 73.7059 334.834 73.7059C334.834 73.7059 334.834 73.7059 334.834 73.7059C334.834 73.7059 334.834 73.7059 334.834 73.7059C334.834 73.7059 334.834 73.7059 334.834 73.7059C334.834 73.7059 334.834 73.7059 334.834 73.7059C334.834 73.7059 334.834 73.7059 334.834 73.7059C334.834 73.7059 334.834 73.7059 334.834 73.7059C334.834 73.7059 334.834 73.7059 334.834 73.7059C334.834 73.7059 334.834 73.7059 334.834 73.7059C334.834 73.7059 334.834 73.7059 334.834 73.7059C334.834 73.7059 334.834 73.7059 334.834 73.7059C334.834 73.7059 334.834 73.7059 334.834 73.7059C334.834 73.7059 334.834 73.7059 334.834 73.7059C334.834 73.7059 334.834 73.7059 334.834 73.7059C334.834 73.7059 334.834 73.7059 334.834 73.7059C334.834 73.7059 334.834 73.7059 334.834 73.7059C334.834 73.7059 334.834 73.7059 334.834 73.7059C334.834 73.7059 334.834 73.7059 334.834 73.7059C334.834 73.7059 334.834 73.7059 334.834 73.7059C334.834 73.7059 334.834 73.7059 334.834 73.7059C334.834 73.7059 334.834 73.7059 334.834 73.7059C334.834 73.7059 334.834 73.7059 334.834 73.7059C334.834 73.7059 334.834 73.7059 334.834 73.7059C334.834 73.7059 334.834 73.7059 334.834 73.7059C334.834 73.7059 334.834 73.7059 334.834 73.7059C334.834 73.7059 334.834 73.7059 334.834 73.7059C334.834 73.7059 334.834 73.7059 334.834 73.7059C334.834 73.7059 334.834 73.7059 334.834 73.7059C334.834 73.7059 334.834 73.7059 334.834 73.7059C334.834 73.7059 334.834 73.7059 334.834 73.7059C334.834 73.7059 334.834 73.7059 334.834 73.7059C334.834 73.7059 334.834 73.7059 334.834 73.7059C334.834 73.7059 334.834 73.7059 334.834 73.7059C334.834 73.7059 334.834 73.7059 334.834 73.7059C334.834 73.7059 334.834 73.7059 334.834 73.7059C334.834 73.7059 334.834 73.7059 334.834 73.7059C334.834 73.7059 334.834 73.7059 334.834 73.7059C334.834 73.7059 334.834 73.7059 334.834 73.7059C334.834 73.7059 334.834 73.7059 334.834 73.7059C334.834 73.7059 334.834 73.7059 334.834 73.7059C334.834 73.7059 334.834 73.7059 334.834 73.7059C334.834 73.7059 334.834 73.7059 334.834 73.7059C334.834 73.7059 334.834 73.7059 334.834 73.7059C334.834 73.7059 334.834 73.7059 334.834 73.7059C334.834 73.7059 334.834 73.7059 334.834 73.7059C334.834 73.7059 334.834 73.7059 334.834 73.7059C334.834 73.7059 334.834 73.7059 334.834 73.7059C334.834 73.7059 334.834 73.7059 334.834 73.7059C334.834 73.7059 334.834 73.7059 334.834 73.7059C334.834 73.7059 334.834 73.7059 334.834 73.7059C334.834 73.7059 334.834 73.7059 334.834 73.7059C334.834 73.7059 334.834 73.7059 334.834 73.7059C334.834 73.7059 334.834 73.7059 334.834 73.7059C334.834 73.7059 334.834 73.7059 334.834 73.7059C334.834 73.7059 334.834 73.7059 334.834 73.7059C334.834 73.7059 334.834 73.7059 334.834 73.7059C334.834 73.7059 334.834 73.7059 334.834 73.7059C334.834 73.7059 334.834 73.7059 334.834 73.7059C334.834 73.7059 334.834 73.7059 334.834 73.7059C334.834 73.7059 334.834 73.7059 334.834 73.7059C334.834 73.7059 334.834 73.7059 334.834 73.7059C334.834 73.7059 334.834 73.7059 334.834 73.7059C334.834 73.7059 334.834 73.7059 334.834 73.7059C334.834 73.7059 334.834 73.7059 334.834 73.7059C334.834 73.7059 334.834 73.7059 334.834 73.7059C334.834 73.7059 334.834 73.7059 334.834 73.7059C334.834 73.7059 334.834 73.7059 334.834 73.7059C334.834 73.7059 334.834 73.7059 334.834 73.7059C334.834 73.7059 334.834 73.7059 334.834 73.7059C334.834 73.7059 334.834 73.7059 334.834 73.7059C334.834 73.7059 334.834 73.7059 334.834 73.7059C334.834 73.7059 334.834 73.7059 334.834 73.7059C334.834 73.7059 334.834 73.7059 334.834 73.7059C334.834 73.7059 334.834 73.7059 334.834 73.7059C334.834 73.7059 334.834 73.7059 334.834 73.7059C334.834 73.7059 334.834 73.7059 334.834 73.7059C334.834 73.7059 334.834 73.7059 334.834 73.7059C334.834 73.7059 334.834 73.7059 334.834 73.7059C334.834 73.7059 334.834 73.7059 334.834 73.7059C334.834 73.7059 334.834 73.7059 334.834 73.7059C334.834 73.7059 334.834 73.7059 334.834 73.7059C334.834 73.7059 334.834 73.7059 334.834 73.7059C334.834 73.7059 334.834 73.7059 334.834 73.7059C334.834 73.7059 334.834 73.7059 334.834 73.7059C334.834 73.7059 334.834 73.7059 334.834 73.7059C334.834 73.7059 334.834 73.7059 334.834 73.7059C334.834 73.7059 334.834 73.7059 334.834 73.7059C334.834 73.7059 334.834 73.7059 334.834 73.7059C334.834 73.7059 334.834 73.7059 334.834 73.7059C334.834 73.7059 334.834 73.7059 334.834 73.7059C334.834 73.7059 334.834 73.7059 334.834 73.7059C334.834 73.7059 334.834 73.7059 334.834 73.7059C334.834 73.7059 334.834 73.7059 334.834 73.7059C334.834 73.7059 334.834 73.7059 334.834 73.7059C334.834 73.7059 334.834 73.7059 334.834 73.7059C334.834 73.7059 334.834 73.7059 334.834 73.7059C334.834 73.7059 334.834 73.7059 334.834 73.7059C334.834 73.7059 334.834 73.7059 334.834 73.7059C334.834 73.7059 334.834 73.7059 334.834 73.7059C334.834 73.7059 334.834 73.7059 334.834 73.7059C334.834 73.7059 334.834 73.7059 334.834 73.7059C334.834 73.7059 334.834 73.7059 334.834 73.7059C334.834 73.7059 334.834 73.7059 334.834 73.7059C334.834 73.7059 334.834 73.7059 334.834 73.7059C334.834 73.7059 334.834 73.7059 334.834 73.7059C334.834 73.7059 334.834 73.7059 334.834 73.7059C334.834 73.7059 334.834 73.7059 334.834 73.7059C334.834 73.7059 334.834 73.7059 334.834 73.7059C334.834 73.7059 334.834 73.7059 334.834 73.7059C334.834 73.7059 334.834 73.7059 334.834 73.7059C334.834 73.7059 334.834 73.7059 334.834 73.7059C334.834 73.7059 334.834 73.7059 334.834 73.7059C334.834 73.7059 334.834 73.7059 334.834 73.7059C334.834 73.7059 334.834 73.7059 334.834 73.7059C334.834 73.7059 334.834 73.7059 334.834 73.7059C334.834 73.7059 334.834 73.7059 334.834 73.7059C334.834 73.7059 334.834 73.7059 334.834 73.7059C334.834 73.7059 334.834 73.7059 334.834 73.7059C334.834 73.7059 334.834 73.7059 334.834 73.7059C334.834 73.7059 334.834 73.7059 334.834 73.7059C334.834 73.7059 334.834 73.7059 334.834 73.7059C334.834 73.7059 334.834 73.7059 334.834 73.7059C334.834 73.7059 334.834 73.7059 334.834 73.7059C334.834 73.7059 334.834 73.7059 334.834 73.7059C334.834 73.7059 334.834 73.7059 334.834 73.7059C334.834 73.7059 334.834 73.7059 334.834 73.7059C334.834 73.7059 334.834 73.7059 334.834 73.7059C334.834 73.7059 334.834 73.7059 334.834 73.7059C334.834 73.7059 334.834 73.7059 334.834 73.7059C334.834 73.7059 334.834 73.7059 334.834 73.7059C334.834 73.7059 334.834 73.7059 334.834 73.7059C334.834 73.7059 334.834 73.7059 334.834 73.7059C334.834 73.7059 334.834 73.7059 334.834 73.7059C334.834 73.7059 334.834 73.7059 334.834 73.7059C334.834 73.7059 334.834 73.7059 334.834 73.7059C334.834 73.7059 334.834 73.7059 334.834 73.7059C334.834 73.7059 334.834 73.7059 334.834 73.7059C334.834 73.7059 334.834 73.7059 334.834 73.7059C334.834 73.7059 334.834 73.7059 334.834 73.7059C334.834 73.7059 334.834 73.7059 334.834 73.7059C334.834 73.7059 334.834 73.7059 334.834 73.7059C334.834 73.7059 334.834 73.7059 334.834 73.7059C334.834 73.7059 334.834 73.7059 334.834 73.7059C334.834 73.7059 334.834 73.7059 334.834 73.7059C334.834 73.7059 334.834 73.7059 334.834 73.7059C334.834 73.7059 334.834 73.7059 334.834 73.7059C334.834 73.7059 334.834 73.7059 334.834 73.7059C334.834 73.7059 334.834 73.7059 334.834 73.7059C334.834 73.7059 334.834 73.7059 334.834 73.7059C334.834 73.7059 334.834 73.7059 334.834 73.7059C334.834 73.7059 334.834 73.7059 334.834 73.7059C334.834 73.7059 334.834 73.7059 334.834 73.7059C334.834 73.7059 334.834 73.7059 334.834 73.7059C334.834 73.7059 334.834 73.7059 334.834 73.7059C334.834 73.7059 334.834 73.7059 334.834 73.7059C334.834 73.7059 334.834 73.7059 334.834 73.7059C334.834 73.7059 334.834 73.7059 334.834 73.7059C334.834 73.7059 334.834 73.7059 334.834 73.7059C334.834 73.7059 334.834 73.7059 334.834 73.7059C334.834 73.7059 334.834 73.7059 334.834 73.7059C334.834 73.7059 334.834 73.7059 334.834 73.7059C334.834 73.7059 334.834 73.7059 334.834 73.7059C334.834 73.7059 334.834 73.7059 334.834 73.7059C334.834 73.7059 334.834 73.7059 334.834 73.7059C334.834 73.7059 334.834 73.7059 334.834 73.7059C334.834 73.7059 334.834 73.7059 334.834 73.7059C334.834 73.7059 334.834 73.7059 334.834 73.7059C334.834 73.7059 334.834 73.7059 334.834 73.7059C334.834 73.7059 334.834 73.7059 334.834 73.7059C334.834 73.7059 334.834 73.7059 334.834 73.7059C334.834 73.7059 334.834 73.7059 334.834 73.7059C334.834 73.7059 334.834 73.7059 334.834 73.7059C334.834 73.7059 334.834 73.7059 334.834 73.7059C334.834 73.7059 334.834 73.7059 334.834 73.7059C334.834 73.7059 334.834 73.7059 334.834 73.7059C334.834 73.7059 334.834 73.7059 334.834 73.7059C334.834 73.7059 334.834 73.7059 334.834 73.7059C334.834 73.7059 334.834 73.7059 334.834 73.7059C334.834 73.7059 334.834 73.7059 334.834 73.7059C334.834 73.7059 334.834 73.7059 334.834 73.7059C334.834 73.7059 334.834 73.7059 334.834 73.7059C334.834 73.7059 334.834 73.7059 334.834 73.7059C334.834 73.7059 334.834 73.7059 334.834 73.7059C334.834 73.7059 334.834 73.7059 334.834 73.7059C334.834 73.7059 334.834 73.7059 334.834 73.7059C334.834 73.7059 334.834 73.7059 334.834 73.7059C334.834 73.7059 334.834 73.7059 334.834 73.7059C334.834 73.7059 334.834 73.7059 334.834 73.7059C334.834 73.7059 334.834 73.7059 334.834 73.7059C334.834 73.7059 334.834 73.7059 334.834 73.7059C334.834 73.7059 334.834 73.7059 334.834 73.7059C334.834 73.7059 334.834 73.7059 334.834 73.7059C334.834 73.7059 334.834 73.7059 334.834 73.7059C334.834 73.7059 334.834 73.7059 334.834 73.7059C334.834 73.7059 334.834 73.7059 334.834 73.7059C334.834 73.7059 334.834 73.7059 334.834 73.7059C334.834 73.7059 334.834 73.7059 334.834 73.7059C334.834 73.7059 334.834 73.7059 334.834 73.7059C334.834 72.7059 334.834 71.7059 334.834 72.7059C334.834 73.7059 334.834 72.7059 334.834 71.7059C334.834 71.7059 334.834 71.7059 334.834 71.7059C334.834 71.7059 334.834 71.7059 334.834 71.7059C334.834 71.7059 334.834 71.7059 334.834 71.7059C334.834 71.7059 334.834 71.7059 334.834 71.7059C334.834 71.7059 334.834 71.7059 334.834 71.7059C334.834 71.7059 334.834 71.7059 334.834 71.7059C334.834 71.7059 334.834 71.7059 334.834 71.7059C334.834 71.7059 334.834 71.7059 334.834 71.7059C334.834 71.7059 334.834 71.7059 334.834 71.7059C334.834 71.7059 334.834 71.7059 334.834 71.7059C334.834 71.7059 334.834 71.7059 334.834 71.7059C334.834 71.7059 334.834 71.7059 334.834 71.7059C334.834 71.7059 334.834 71.7059 334.834 71.7059C334.834 71.7059 334.834 71.7059 334.834 71.7059C334.834 71.7059 334.834 71.7059 334.834 71.7059C334.834 71.7059 334.834 71.7059 334.834 71.7059C334.834 71.7059 334.834 71.7059 334.834 71.7059C334.834 71.7059 334.834 71.7059 334.834 71.7059C334.834 71.7059 334.834 71.7059 334.834 71.7059C334.834 71.7059 334.834 71.7059 334.834 71.7059C334.834 71.7059 334.834 71.7059 334.834 71.7059C334.834 71.7059 334.834 71.7059 334.834 71.7059C334.834 71.7059 334.834 71.7059 334.834 71.7059C334.834 71.7059 334.834 71.7059 334.834 71.7059C334.834 71.7059 334.834 71.7059 334.834 71.7059C334.834 71.7059 334.834 71.7059 334.834 71.7059C334.834 71.7059 334.834 71.7059 334.834 71.7059C334.834 71.7059 334.834 71.7059 334.834 71.7059C334.834 71.7059 334.834 71.7059 334.834 71.7059C334.834 71.7059 334.834 71.7059 334.834 71.7059C334.834 71.7059 334.834 71.7059 334.834 71.7059C334.834 71.7059 334.834 71.7059 334.834 71.7059C334.834 71.7059 334.834 71.7059 334.834 71.7059C334.834 71.7059 334.834 71.7059 334.834 71.7059C334.834 71.7059 334.834 71.7059 334.834 71.7059C334.834 71.7059 334.834 71.7059 334.834 71.7059C334.834 71.7059 334.834 71.7059 334.834 71.7059C334.834 71.7059 334.834 71.7059 334.834 71.7059C334.834 71.7059 334.834 71.7059 334.834 71.7059C334.834 71.7059 334.834 71.7059 334.834 71.7059C334.834 71.7059 334.834 71.7059 334.834 71.7059C334.834 71.7059 334.834 71.7059 334.834 71.7059C334.834 71.7059 334.834 71.7059 334.834 71.7059C334.834 71.7059 334.834 71.7059 334.834 71.7059C334.834 71.7059 334.834 71.7059 334.834 71.7059C334.834 71.7059 334.834 71.7059 334.834 71.7059C334.834 71.7059 334.834 71.7059 334.834 71.7059C334.834 71.7059 334.834 71.7059 334.834 71.7059C334.834 71.7059 334.834 71.7059 334.834 71.7059C334.834 71.7059 334.834 71.7059 334.834 71.7059C334.834 71.7059 334.834 71.7059 334.834 71.7059C334.834 71.7059 334.834 71.7059 334.834 71.7059C334.834 71.7059 334.834 71.7059 334.834 71.7059C334.834 71.7059 334.834 71.7059 334.834 71.7059C334.834 71.7059 334.834 71.7059 334.834 71.7059C334.834 71.7059 334.834 71.7059 334.834 71.7059C334.834 71.7059 334.834 71.7059 334.834 71.7059C334.834 71.7059 334.834 71.7059 334.834 71.7059C334.834 71.7059 334.834 71.7059 334.834 71.7059C334.834 71.7059 334.834 71.7059 334.834 71.7059C334.834 71.7059 334.834 71.7059 334.834 71.7059C334.834 71.7059 334.834 71.7059 334.834 71.7059C334.834 71.7059 334.834 71.7059 334.834 71.7059C334.834 71.7059 334.834 71.7059 334.834 71.7059C334.834 71.7059 334.834 71.7059 334.834 71.7059C334.834 71.7059 334.834 71.7059 334.834 71.7059C334.834 71.7059 334.834 71.7059 334.834 71.7059C334.834 71.7059 334.834 71.7059 334.834 71.7059C334.834 71.7059 334.834 71.7059 334.834 71.7059C334.834 71.7059 334.834 71.7059 334.834 71.7059C334.834 71.7059 334.834 71.7059 334.834 71.7059C334.834 71.7059 334.834 71.7059 334.834 71.7059C334.834 71.7059 334.834 71.7059 334.834 71.7059C334.834 71.7059 334.834 71.7059 334.834 71.7059C334.834 71.7059 334.834 71.7059 334.834 71.7059C334.834 71.7059 334.834 71.7059 334.834 71.7059C334.834 71.7059 334.834 71.7059 334.834 71.7059C334.834 71.7059 334.834 71.7059 334.834 71.7059C334.834 71.7059 334.834 71.7059 334.834 71.7059C334.834 71.7059 334.834 71.7059 334.834 71.7059C334.834 71.7059 334.834 71.7059 334.834 71.7059C334.834 71.7059 334.834 71.7059 334.834 71.7059C334.834 71.7059 334.834 71.7059 334.834 71.7059C334.834 71.7059 334.834 71.7059 334.834 71.7059C334.834 71.7059 334.834 71.7059 334.834 71.7059C334.834 71.7059 334.834 71.7059 334.834 71.7059C334.834 71.7059 334.834 71.7059 334.834 71.7059C334.834 71.7059 334.834 71.7059 334.834 71.7059C334.834 71.7059 334.834 71.7059 334.834 71.7059C334.834 71.7059 334.834 71.7059 334.834 71.7059C334.834 71.7059 334.834 71.7059 334.834 71.7059C334.834 71.7059 334.834 71.7059 334.834 71.7059C334.834 71.7059 334.834 71.7059 334.834 71.7059C334.834 71.7059 334.834 71.7059 334.834 71.7059C334.834 71.7059 334.834 71.7059 334.834 71.7059C334.834 71.7059 334.834 71.7059 334.834 71.7059C334.834 71.7059 334.834 71.7059 334.834 71.7059C334.834 71.7059 334.834 71.7059 334.834 71.7059C334.834 71.7059 334.834 71.7059 334.834 71.7059C334.834 71.7059 334.834 71.7059 334.834 71.7059C334.834 71.7059 334.834 71.7059 334.834 71.7059C334.834 71.7059 334.834 71.7059 334.834 71.7059C334.834 71.7059 334.834 71.7059 334.834 71.7059C334.834 71.7059 334.834 71.7059 334.834 71.7059C334.834 71.7059 334.834 71.7059 334.834 71.7059C334.834 71.7059 334.834 71.7059 334.834 71.7059C334.834 71.7059 334.834 71.7059 334.834 71.7059C334.834 71.7059 334.834 71.7059 334.834 71.7059C334.834 71.7059 334.834 71.7059 334.834 71.7059C334.834 71.7059 334.834 71.7059 334.834 71.7059C334.834 71.7059 334.834 71.7059 334.834 71.7059C334.834 71.7059 334.834 71.7059 334.834 71.7059C334.834 71.7059 334.834 71.7059 334.834 71.7059C334.834 71.7059 334.834 71.7059 334.834 71.7059C334.834 71.7059 334.834 71.7059 334.834 71.7059C334.834 71.7059 334.834 71.7059 334.834 71.7059C334.834 71.7059 334.834 71.7059 334.834 71.7059C334.834 71.7059 334.834 71.7059 334.834 71.7059C334.834 71.7059 334.834 71.7059 334.834 71.7059C334.834 71.7059 334.834 71.7059 334.834 71.7059C334.834 71.7059 334.834 71.7059 334.834 71.7059C334.834 71.7059 334.834 71.7059 334.834 71.7059C334.834 71.7059 334.834 71.7059 334.834 71.7059C334.834 71.7059 334.834 71.7059 334.834 71.7059C334.834 71.7059 334.834 71.7059 334.834 71.7059C334.834 71.7059 334.834 71.7059 334.834 71.7059C334.834 71.7059 334.834 71.7059 334.834 71.7059C334.834 71.7059 334.834 71.7059 334.834 71.7059C334.834 71.7059 334.834 71.7059 334.834 71.7059C334.834 71.7059 334.834 71.7059 334.834 71.7059C334.834 71.7059 334.834 71.7059 334.834 71.7059C334.834 71.7059 334.834 71.7059 334.834 71.7059C334.834 71.7059 334.834 71.7059 334.834 71.7059C334.834 71.7059 334.834 71.7059 334.834 71.7059C334.834 71.7059 334.834 71.7059 334.834 71.7059C334.834 71.7059 334.834 71.7059 334.834 71.7059C334.834 71.7059 334.834 71.7059 334.834 71.7059C334.834 71.7059 334.834 71.7059 334.834 71.7059C334.834 71.7059 334.834 71.7059 334.834 71.7059C334.834 71.7059 334.834 71.7059 334.834 71.7059C334.834 71.7059 334.834 71.7059 334.834 71.7059C334.834 71.7059 334.834 71.7059 334.834 71.7059C334.834 71.7059 334.834 71.7059 334.834 71.7059C334.834 71.7059 334.834 71.7059 334.834 71.7059C334.834 71.7059 334.834 71.7059 334.834 71.7059C334.834 71.7059 334.834 71.7059 334.834 71.7059C334.834 71.7059 334.834 71.7059 334.834 71.7059C334.834 71.7059 334.834 71.7059 334.834 71.7059C334.834 71.7059 334.834 71.7059 334.834 71.7059C334.834 71.7059 334.834 71.7059 334.834 71.7059C334.834 71.7059 334.834 71.7059 334.834 71.7059C334.834 71.7059 334.834 71.7059 334.834 71.7059C334.834 71.7059 334.834 71.7059 334.834 71.7059C334.834 71.7059 334.834 71.7059 334.834 71.7059C334.834 71.7059 334.834 71.7059 334.834 71.7059C334.834 71.7059 334.834 71.7059 334.834 71.7059C334.834 71.7059 334.834 71.7059 334.834 71.7059C334.834 71.7059 334.834 71.7059 334.834 71.7059C334.834 71.7059 334.834 71.7059 334.834 71.7059C334.834 71.7059 334.834 71.7059 334.834 71.7059C334.834 71.7059 334.834 71.7059 334.834 71.7059C334.834 71.7059 334.834 71.7059 334.834 71.7059C334.834 71.7059 334.834 71.7059 334.834 71.7059C334.834 71.7059 334.834 71.7059 334.834 71.7059C334.834 71.7059 334.834 71.7059 334.834 71.7059C334.834 71.7059 334.834 71.7059 334.834 71.7059C334.834 71.7059 334.834 71.7059 334.834 71.7059C334.834 71.7059 334.834 71.7059 334.834 71.7059C334.834 71.7059 334.834 71.7059 334.834 71.7059C334.834 71.7059 334.834 71.7059 334.834 71.7059C334.834 71.7059 334.834 71.7059 334.834 71.7059C334.834 71.7059 334.834 71.7059 334.834 71.7059C334.834 71.7059 334.834 71.7059 334.834 71.7059C334.834 71.7059 334.834 71.7059 334.834 71.7059C334.834 71.7059 334.834 71.7059 334.834 71.7059C334.834 71.7059 334.834 71.7059 334.834 71.7059C334.834 71.7059 334.834 71.7059 334.834 71.7059C334.834 71.7059 334.834 71.7059 334.834 71.7059C334.834 71.7059 334.834 71.7059 334.834 71.7059C334.834 71.7059 334.834 71.7059 334.834 71.7059C334.834 71.7059 334.834 71.7059 334.834 71.7059C334.834 71.7059 334.834 71.7059 334.834 71.7059C334.834 71.7059 334.834 71.7059 334.834 71.7059C334.834 71.7059 334.834 71.7059 334.834 71.7059C334.834 71.7059 334.834 71.7059 334.834 71.7059C334.834 71.7059 334.834 71.7059 334.834 71.7059C334.834 71.7059 334.834 71.7059 334.834 71.7059C334.834 71.7059 334.834 71.7059 334.834 71.7059C334.834 71.7059 334.834 71.7059 334.834 71.7059C334.834 71.7059 334.834 71.7059 334.834 71.7059C334.834 71.7059 334.834 71.7059 334.834 71.7059C334.834 71.7059 334.834 71.7059 334.834 71.7059C334.834 71.7059 334.834 71.7059 334.834 71.7059C334.834 71.7059 334.834 71.7059 334.834 71.7059C334.834 71.7059 334.834 71.7059 334.834 71.7059C334.834 71.7059 334.834 71.7059 334.834 71.7059C334.834 71.7059 334.834 71.7059 334.834 71.7059C334.834 71.7059 334.834 71.7059 334.834 71.7059C334.834 71.7059 334.834 71.7059 334.834 71.7059C334.834 71.7059 334.834 71.7059 334.834 71.7059C334.834 71.7059 334.834 71.7059 334.834 71.7059C334.834 71.7059 334.834 71.7059 334.834 71.7059C334.834 71.7059 334.834 71.7059 334.834 71.7059C334.834 71.7059 334.834 71.7059 334.834 71.7059C334.834 71.7059 334.834 71.7059 334.834 71.7059C334.834 71.7059 334.834 71.7059 334.834 71.7059C334.834 71.7059 334.834 71.7059 334.834 71.7059C334.834 71.7059 334.834 71.7059 334.834 71.7059C334.834 71.7059 334.834 71.7059 334.834 71.7059C334.834 71.7059 334.834 71.7059 334.834 71.7059C334.834 71.7059 334.834 71.7059 334.834 71.7059C334.834 71.7059 334.834 71.7059 334.834 71.7059C334.834 71.7059 334.834 71.7059 334.834 71.7059C334.834 71.7059 334.834 71.7059 334.834 71.7059C334.834 71.7059 334.834 71.7059 334.834 71.7059C334.834 71.7059 334.834 71.7059 334.834 71.7059C334.834 71.7059 334.834 71.7059 334.834 71.7059C334.834 71.7059 334.834 71.7059 334.834 71.7059C334.834 71.7059 334.834 71.7059 334.834 71.7059C334.834 71.7059 334.834 71.7059 334.834 71.7059C334.834 71.7059 334.834 71.7059 334.833 71.7059C334.833 71.7059 334.833 71.7059 334.833 71.7059C334.833 71.7059 334.833 71.7059 334.833 71.7059C334.833 71.7059 334.833 71.7059 334.833 71.7059C334.833 71.7059 334.833 71.7059 334.833 71.7059C334.833 71.7059 334.833 71.7059 334.833 71.7059C334.833 71.7059 334.833 71.7059 334.833 71.7059C334.833 71.7059 334.833 71.7059 334.833 71.7059C334.833 71.7059 334.833 71.7059 334.833 71.7059C334.833 71.7059 334.833 71.7059 334.833 71.7059C334.833 71.7059 334.833 71.7059 334.833 71.7059C334.833 71.7059 334.833 71.7059 334.833 71.7059C334.833 71.7059 334.833 71.7059 334.833 71.7059C334.833 71.7059 334.833 71.7059 334.833 71.7059C334.833 71.7059 334.833 71.7059 334.833 71.7059C334.833 71.7059 334.833 71.7059 334.833 71.7059C334.833 71.7059 334.833 71.7059 334.833 71.7059C334.833 71.7059 334.833 71.7059 334.833 71.7059C334.833 71.7059 334.833 71.7059 334.833 71.7059C334.833 71.7059 334.833 71.7059 334.833 71.7059C334.833 71.7059 334.833 71.7059 334.833 71.7059C334.833 71.7059 334.833 71.7059 334.833 71.7059C334.833 71.7059 334.833 71.7059 334.833 71.7059C334.833 71.7059 334.833 71.7059 334.833 71.7059C334.833 71.7059 334.833 71.7059 334.833 71.7059C334.833 71.7059 334.833 71.7059 334.833 71.7059C334.833 71.7059 334.833 71.7059 334.833 71.7059C334.833 71.7059 334.833 71.7059 334.833 71.7059C334.833 71.7059 334.833 71.7059 334.833 71.7059C334.833 71.7059 334.833 71.7059 334.833 71.7059C334.833 71.7059 334.833 71.7059 334.833 71.7059C334.833 71.7059 334.833 71.7059 334.833 71.7059C334.833 71.7059 334.833 71.7059 334.833 71.7059C334.833 71.7059 334.833 71.7059 334.833 71.7059C334.833 71.7059 334.833 71.7059 334.833 71.7059C334.833 71.7059 334.833 71.7059 334.833 71.7059C334.833 71.7059 334.833 71.7059 334.833 71.7059C334.833 71.7059 334.833 71.7059 334.833 71.7059C334.833 71.7059 334.833 71.7059 334.833 71.7059C334.833 71.7059 334.833 71.7059 334.833 71.7059C334.833 71.7059 334.833 71.7059 334.833 71.7059C334.833 71.7059 334.833 71.7059 334.833 71.7059C334.833 71.7059 334.833 71.7059 334.833 71.7059C334.833 71.7059 334.833 71.7059 334.833 71.7059C334.833 71.7059 334.833 71.7059 334.833 71.7059C334.833 71.7059 334.833 71.7059 334.833 71.7059C334.833 71.7059 334.833 71.7059 334.833 71.7059C334.833 71.7059 334.833 71.7059 334.833 71.7059C334.833 71.7059 334.833 71.7059 334.833 71.7059C334.833 71.7059 334.833 71.7059 334.833 71.7059C334.833 71.7059 334.833 71.7059 334.833 71.7059C334.833 71.7059 334.833 71.7059 334.833 71.7059C334.833 71.7059 334.833 71.7059 334.833 71.7059C334.833 71.7059 334.833 71.7059 334.833 71.7059C334.833 71.7059 334.833 71.7059 334.833 71.7059C334.833 71.7059 334.833 71.7059 334.833 71.7059C334.833 71.7059 334.833 71.7059 334.833 71.7059C334.833 71.7059 334.833 71.7059 334.833 71.7059C334.833 71.7059 334.833 71.7059 334.833 71.7059C334.833 71.7059 334.833 71.7059 334.833 71.7059C334.833 71.7059 334.833 71.7059 334.833 71.7059C334.833 71.7059 334.833 71.7059 334.833 71.7059C334.833 71.7059 334.833 71.7059 334.833 71.7059C334.833 71.7059 334.833 71.7059 334.833 71.7059C334.833 71.7059 334.833 71.7059 334.833 71.7059C334.833 71.7059 334.833 71.7059 334.833 71.7059C334.833 71.7059 334.833 71.7059 334.833 71.7059C334.833 71.7059 334.833 71.7059 334.833 71.7059C334.833 71.7059 334.833 71.7059 334.833 71.7059C334.833 71.7059 334.833 71.7059 334.833 71.7059C334.833 71.7059 334.833 71.7059 334.833 71.7059C334.833 71.7059 334.833 71.7059 334.833 71.7059C334.833 71.7059 334.833 71.7059 334.833 71.7059C334.833 71.7059 334.833 71.7059 334.833 71.7059C334.833 71.7059 334.833 71.7059 334.833 71.7059C334.833 71.7059 334.833 71.7059 334.833 71.7059C334.833 71.7059 334.833 71.7059 334.833 71.7059C334.833 71.7059 334.833 71.7059 334.833 71.7059C334.833 71.7059 334.833 71.7059 334.833 71.7059C334.833 71.7059 334.833 71.7059 334.833 71.7059C334.833 71.7059 334.833 71.7059 334.833 71.7059C334.833 71.7059 334.833 71.7059 334.833 71.7059C334.833 71.7059 334.833 71.7059 334.833 71.7059C334.833 71.7059 334.833 71.7059 334.833 71.7059C334.833 71.7059 334.833 71.7059 334.833 71.7059C334.833 71.7059 334.833 71.7059 334.833 71.7059C334.833 71.7059 334.833 71.7059 334.833 71.7059C334.833 71.7059 334.833 71.7059 334.833 71.7059C334.832 71.7059 334.832 71.7059 334.832 71.7059C334.832 71.7059 334.832 71.7059 334.832 71.7059C334.832 71.7059 334.832 71.7059 334.832 71.7059C334.832 71.7059 334.832 71.7059 334.832 71.7059C334.832 71.7059 334.832 71.7059 334.832 71.7059C334.832 71.7059 334.832 71.7059 334.832 71.7059C334.832 71.7059 334.832 71.7059 334.832 71.7059C334.832 71.7059 334.832 71.7059 334.832 71.7059C334.832 71.7059 334.832 71.7059 334.832 71.7059C334.832 71.7059 334.832 71.7059 334.832 71.7059C334.832 71.7059 334.832 71.7059 334.832 71.7059C334.832 71.7059 334.832 71.7059 334.832 71.7059C334.832 71.7059 334.832 71.7059 334.832 71.7059C334.832 71.7059 334.832 71.7059 334.832 71.7059C334.832 71.7059 334.832 71.7059 334.832 71.7059C334.832 71.7059 334.832 71.7059 334.832 71.7059C334.832 71.7059 334.832 71.7059 334.832 71.7059C334.832 71.7059 334.832 71.7059 334.832 71.7059C334.832 71.7059 334.832 71.7059 334.832 71.7059C334.832 71.7059 334.832 71.7059 334.832 71.7059C334.832 71.7059 334.832 71.7059 334.832 71.7059C334.832 71.7059 334.832 71.7059 334.832 71.7059C334.832 71.7059 334.832 71.7059 334.832 71.7059C334.832 71.7059 334.832 71.7059 334.832 71.7059C334.832 71.7059 334.832 71.7059 334.832 71.7059C334.832 71.7059 334.832 71.7059 334.832 71.7059C334.832 71.7059 334.832 71.7059 334.832 71.7059C334.832 71.7059 334.832 71.7059 334.832 71.7059C334.832 71.7059 334.832 71.7059 334.832 71.7059C334.832 71.7059 334.832 71.7059 334.832 71.7059C334.832 71.7059 334.832 71.7059 334.832 71.7059C334.832 71.7059 334.832 71.7059 334.832 71.7059C334.832 71.7059 334.832 71.7059 334.832 71.7059C334.832 71.7059 334.832 71.7059 334.832 71.7059C334.832 71.7059 334.832 71.7059 334.832 71.7059C334.832 71.7059 334.832 71.7059 334.832 71.7059C334.832 71.7059 334.832 71.7059 334.832 71.7059C334.832 71.7059 334.832 71.7059 334.832 71.7059C334.832 71.7059 334.832 71.7059 334.832 71.7059C334.832 71.7059 334.832 71.7059 334.832 71.7059C334.832 71.7059 334.832 71.7059 334.832 71.7059C334.832 71.7059 334.832 71.7059 334.832 71.7059C334.832 71.7059 334.832 71.7059 334.832 71.7059C334.832 71.7059 334.832 71.7059 334.832 71.7059C334.832 71.7059 334.832 71.7059 334.832 71.7059C334.832 71.7059 334.832 71.7059 334.832 71.7059C334.832 71.7059 334.832 71.7059 334.832 71.7059C334.832 71.7059 334.832 71.7059 334.832 71.7059C334.832 71.7059 334.832 71.7059 334.832 71.7059C334.832 71.7059 334.832 71.7059 334.832 71.7059C334.832 71.7059 334.832 71.7059 334.832 71.7059C334.832 71.7059 334.832 71.7059 334.832 71.7059C334.832 71.7059 334.832 71.7059 334.832 71.7059C334.832 71.7059 334.832 71.7059 334.832 71.7059C334.832 71.7059 334.832 71.7059 334.831 71.7059C334.831 71.7059 334.831 71.7059 334.831 71.7059C334.831 71.7059 334.831 71.7059 334.831 71.7059C334.831 71.7059 334.831 71.7059 334.831 71.7059C334.831 71.7059 334.831 71.7059 334.831 71.7059C334.831 71.7059 334.831 71.7059 334.831 71.7059C334.831 71.7059 334.831 71.7059 334.831 71.7059C334.831 71.7059 334.831 71.7059 334.831 71.7059C334.831 71.7059 334.831 71.7059 334.831 71.7059C334.831 71.7059 334.831 71.7059 334.831 71.7059C334.831 71.7059 334.831 71.7059 334.831 71.7059C334.831 71.7059 334.831 71.7059 334.831 71.7059C334.831 71.7059 334.831 71.7059 334.831 71.7059C334.831 71.7059 334.831 71.7059 334.831 71.7059C334.831 71.7059 334.831 71.7059 334.831 71.7059C334.831 71.7059 334.831 71.7059 334.831 71.7059C334.831 71.7059 334.831 71.7059 334.831 71.7059C334.831 71.7059 334.831 71.7059 334.831 71.7059C334.831 71.7059 334.831 71.7059 334.831 71.7059C334.831 71.7059 334.831 71.7059 334.831 71.7059C334.831 71.7059 334.831 71.7059 334.831 71.7059C334.831 71.7059 334.831 71.7059 334.831 71.7059C334.831 71.7059 334.831 71.7059 334.831 71.7059C334.831 71.7059 334.831 71.7059 334.831 71.7059C334.831 71.7059 334.831 71.7059 334.831 71.7059C334.831 71.7059 334.831 71.7059 334.831 71.7059C334.831 71.7059 334.831 71.7059 334.831 71.7059C334.831 71.7059 334.831 71.7059 334.831 71.7059C334.831 71.7059 334.831 71.7059 334.831 71.7059C334.831 71.7059 334.831 71.7059 334.831 71.7059C334.831 71.7059 334.831 71.7059 334.831 71.7059C334.831 71.7059 334.831 71.7059 334.831 71.7059C334.831 71.7059 334.831 71.7059 334.831 71.7059C334.831 71.7059 334.831 71.7059 334.831 71.7059C334.831 71.7059 334.831 71.7059 334.831 71.7059C334.831 71.7059 334.831 71.7059 334.831 71.7059C334.831 71.7059 334.831 71.7059 334.831 71.7059C334.831 71.7059 334.831 71.7059 334.831 71.7059C334.831 71.7059 334.831 71.7059 334.831 71.7059C334.831 71.7059 334.831 71.7059 334.831 71.7059C334.831 71.7059 334.831 71.7059 334.831 71.7059C334.831 71.7059 334.831 71.7059 334.831 71.7059C334.831 71.7059 334.831 71.7059 334.83 71.7059C334.83 71.7059 334.83 71.7059 334.83 71.7059C334.83 71.7059 334.83 71.7059 334.83 71.7059C334.83 71.7059 334.83 71.7059 334.83 71.7059C334.83 71.7059 334.83 71.7059 334.83 71.7059C334.83 71.7059 334.83 71.7059 334.83 71.7059C334.83 71.7059 334.83 71.7059 334.83 71.7059C334.83 71.7059 334.83 71.7059 334.83 71.7059C334.83 71.7059 334.83 71.7059 334.83 71.7059C334.83 71.7059 334.83 71.7059 334.83 71.7059C334.83 71.7059 334.83 71.7059 334.83 71.7059C334.83 71.7059 334.83 71.7059 334.83 71.7059C334.83 71.7059 334.83 71.7059 334.83 71.7059C334.83 71.7059 334.83 71.7059 334.83 71.7059C334.83 71.7059 334.83 71.7059 334.83 71.7059C334.83 71.7059 334.83 71.7059 334.83 71.7059C334.83 71.7059 334.83 71.7059 334.83 71.7059C334.83 71.7059 334.83 71.7059 334.83 71.7059C334.83 71.7059 334.83 71.7059 334.83 71.7059C334.83 71.7059 334.83 71.7059 334.83 71.7059C334.83 71.7059 334.83 71.7059 334.83 71.7059C334.83 71.7059 334.83 71.7059 334.83 71.7059C334.83 71.7059 334.83 71.7059 334.83 71.7059C334.83 71.7059 334.83 71.7059 334.83 71.7059C334.83 71.7059 334.83 71.7059 334.83 71.7059C334.83 71.7059 334.83 71.7059 334.83 71.7059C334.83 71.7059 334.83 71.7059 334.83 71.7059C334.83 71.7059 334.83 71.7059 334.83 71.7059C334.83 71.7059 334.83 71.7059 334.83 71.7059C334.83 71.7059 334.83 71.7059 334.83 71.7059C334.83 71.7059 334.83 71.7059 334.83 71.7059C334.83 71.7059 334.83 71.7059 334.83 71.7059C334.83 71.7059 334.83 71.7059 334.83 71.7059C334.83 71.7059 334.83 71.7059 334.83 71.7059C334.83 71.7059 334.83 71.7059 334.83 71.7059C334.83 71.7059 334.829 71.7059 334.829 71.7059C334.829 71.7059 334.829 71.7059 334.829 71.7059C334.829 71.7059 334.829 71.7059 334.829 71.7059C334.829 71.7059 334.829 71.7059 334.829 71.7059C334.829 71.7059 334.829 71.7059 334.829 71.7059C334.829 71.7059 334.829 71.7059 334.829 71.7059C334.829 71.7059 334.829 71.7059 334.829 71.7059C334.829 71.7059 334.829 71.7059 334.829 71.7059C334.829 71.7059 334.829 71.7059 334.829 71.7059C334.829 71.7059 334.829 71.7059 334.829 71.7059C334.829 71.7059 334.829 71.7059 334.829 71.7059C334.829 71.7059 334.829 71.7059 334.829 71.7059C334.829 71.7059 334.829 71.7059 334.829 71.7059C334.829 71.7059 334.829 71.7059 334.829 71.7059C334.829 71.7059 334.829 71.7059 334.829 71.7059C334.829 71.7059 334.829 71.7059 334.829 71.7059C334.829 71.7059 334.829 71.7059 334.829 71.7059C334.829 71.7059 334.829 71.7059 334.829 71.7059C334.829 71.7059 334.829 71.7059 334.829 71.7059C334.829 71.7059 334.829 71.7059 334.829 71.7059C334.829 71.7059 334.829 71.7059 334.829 71.7059C334.829 71.7059 334.829 71.7059 334.829 71.7059C334.829 71.7059 334.829 71.7059 334.829 71.7059C334.829 71.7059 334.829 71.7059 334.829 71.7059C334.829 71.7059 334.829 71.7059 334.829 71.7059C334.829 71.7059 334.829 71.7059 334.829 71.7059C334.829 71.7059 334.829 71.7059 334.829 71.7059C334.829 71.7059 334.829 71.7059 334.829 71.7059C334.829 71.7059 334.829 71.7059 334.829 71.7059C334.829 71.7059 334.829 71.7059 334.829 71.7059C334.829 71.7059 334.828 71.7059 334.828 71.7059C334.828 71.7059 334.828 71.7059 334.828 71.7059C334.828 71.7059 334.828 71.7059 334.828 71.7059C334.828 71.7059 334.828 71.7059 334.828 71.7059C334.828 71.7059 334.828 71.7059 334.828 71.7059C334.828 71.7059 334.828 71.7059 334.828 71.7059C334.828 71.7059 334.828 71.7059 334.828 71.7059C334.828 71.7059 334.828 71.7059 334.828 71.7059C334.828 71.7059 334.828 71.7059 334.828 71.7059C334.828 71.7059 334.828 71.7059 334.828 71.7059C334.828 71.7059 334.828 71.7059 334.828 71.7059C334.828 71.7059 334.828 71.7059 334.828 71.7059C334.828 71.7059 334.828 71.7059 334.828 71.7059C334.828 71.7059 334.828 71.7059 334.828 71.7059C334.828 71.7059 334.828 71.7059 334.828 71.7059C334.828 71.7059 334.828 71.7059 334.828 71.7059C334.828 71.7059 334.828 71.7059 334.828 71.7059C334.828 71.7059 334.828 71.7059 334.828 71.7059C334.828 71.7059 334.828 71.7059 334.828 71.7059C334.828 71.7059 334.828 71.7059 334.828 71.7059C334.828 71.7059 334.828 71.7059 334.828 71.7059C334.828 71.7059 334.828 71.7059 334.828 71.7059C334.828 71.7059 334.828 71.7059 334.828 71.7059C334.828 71.7059 334.828 71.7059 334.828 71.7059C334.828 71.7059 334.828 71.7059 334.828 71.7059C334.828 71.7059 334.828 71.7059 334.828 71.7059C334.828 71.7059 334.828 71.7059 334.827 71.7059C334.827 71.7059 334.827 71.7059 334.827 71.7059C334.827 71.7059 334.827 71.7059 334.827 71.7059C334.827 71.7059 334.827 71.7059 334.827 71.7059C334.827 71.7059 334.827 71.7059 334.827 71.7059C334.827 71.7059 334.827 71.7059 334.827 71.7059C334.827 71.7059 334.827 71.7059 334.827 71.7059C334.827 71.7059 334.827 71.7059 334.827 71.7059C334.827 71.7059 334.827 71.7059 334.827 71.7059C334.827 71.7059 334.827 71.7059 334.827 71.7059C334.827 71.7059 334.827 71.7059 334.827 71.7059C334.827 71.7059 334.827 71.7059 334.827 71.7059C334.827 71.7059 334.827 71.7059 334.827 71.7059C334.827 71.7059 334.827 71.7059 334.827 71.7059C334.827 71.7059 334.827 71.7059 334.827 71.7059C334.827 71.7059 334.827 71.7059 334.827 71.7059V73.7059ZM334.387 71.8115C334.353 71.8282 334.326 71.8438 334.31 71.8532C334.294 71.8625 334.28 71.8715 334.276 71.8741C334.268 71.8787 334.271 71.877 334.275 71.8744C334.28 71.8717 334.296 71.8624 334.318 71.8511L335.213 73.64C335.246 73.6232 335.273 73.6076 335.289 73.5982C335.305 73.5889 335.32 73.5799 335.324 73.5773C335.331 73.5727 335.329 73.5745 335.324 73.577C335.32 73.5797 335.304 73.589 335.281 73.6003L334.387 71.8115ZM334.251 71.888C334.327 71.8428 334.39 71.8201 334.408 71.8139C334.413 71.8123 334.416 71.8113 334.415 71.8116C334.414 71.8119 334.414 71.8118 334.412 71.8125C334.41 71.813 334.408 71.8138 334.405 71.8148C334.395 71.8182 334.37 71.8267 334.34 71.8387L335.083 73.6956C335.062 73.704 335.046 73.7093 335.045 73.7097C335.034 73.7133 335.058 73.7053 335.069 73.7015C335.105 73.689 335.187 73.6591 335.28 73.603L334.251 71.888ZM335.691 72.9711C335.699 72.9303 335.708 72.89 335.717 72.8473C335.726 72.8053 335.735 72.7609 335.745 72.7152L333.787 72.3073C333.778 72.3482 333.77 72.3885 333.76 72.4311C333.752 72.4732 333.742 72.5175 333.733 72.5632L335.691 72.9711ZM335.662 72.955C335.845 72.5853 336.033 72.2054 336.214 71.8204L334.405 70.968C334.233 71.3325 334.054 71.6949 333.869 72.0676L335.662 72.955ZM334.478 70.8395C334.452 70.8774 334.433 70.9115 334.419 70.9382C334.406 70.9651 334.395 70.9883 334.388 71.0054C334.38 71.0226 334.374 71.0368 334.371 71.0457C334.368 71.054 334.365 71.0615 334.365 71.0624C334.364 71.0652 334.365 71.0613 334.367 71.0564C334.369 71.0511 334.373 71.0403 334.379 71.0266C334.385 71.0129 334.394 70.9929 334.407 70.9691C334.419 70.9456 334.436 70.9143 334.46 70.8791L336.124 71.9885C336.149 71.9506 336.168 71.9164 336.182 71.8898C336.196 71.8629 336.207 71.8397 336.214 71.8226C336.221 71.8054 336.227 71.7912 336.231 71.7823C336.234 71.7739 336.237 71.7664 336.237 71.7656C336.238 71.7628 336.236 71.7667 336.235 71.7715C336.233 71.7769 336.228 71.7876 336.222 71.8014C336.216 71.8151 336.207 71.8351 336.195 71.8588C336.183 71.8824 336.165 71.9136 336.142 71.9489L334.478 70.8395ZM336.139 71.9654C336.245 71.7961 336.351 71.6267 336.458 71.4573C336.564 71.288 336.67 71.1186 336.777 70.9492L335.083 69.886C334.976 70.0553 334.87 70.2247 334.764 70.3941C334.657 70.5635 334.551 70.7328 334.445 70.9022L336.139 71.9654ZM336.754 70.9829C339.683 66.7092 342.988 62.791 346.302 58.721L344.75 57.4584C341.469 61.4892 338.093 65.4917 335.105 69.8523L336.754 70.9829ZM346.301 58.7216C349.232 55.127 352.035 51.5266 355.045 48.0647L353.535 46.7525C350.498 50.2455 347.644 53.91 344.751 57.4578L346.301 58.7216ZM355.024 48.0875C355.941 47.0957 356.884 46.1312 357.85 45.1866L356.452 43.7567C355.465 44.722 354.498 45.7106 353.556 46.7297L355.024 48.0875ZM357.804 45.2294C358.573 44.5669 359.351 43.9212 360.141 43.2812L358.882 41.727C358.08 42.3771 357.286 43.0359 356.499 43.7139L357.804 45.2294ZM360.137 43.284C362.983 41.0005 363.383 36.659 360.72 33.9952L359.305 35.4094C361.081 37.1852 360.854 40.1446 358.886 41.7241L360.137 43.284ZM360.72 33.9952C358.44 31.7159 354.243 31.4491 351.908 34.0317L353.392 35.3729C354.856 33.7537 357.722 33.8256 359.305 35.4094L360.72 33.9952ZM351.908 34.0319C350.288 35.8252 348.486 37.6842 347.041 39.8084L348.695 40.9331C350.04 38.9564 351.705 37.2406 353.392 35.3727L351.908 34.0319ZM347.041 39.809C345.561 41.9888 344.18 44.2368 342.965 46.6019L344.743 47.5162C345.913 45.2399 347.249 43.0626 348.696 40.9325L347.041 39.809ZM342.966 46.599C341.719 49.0062 340.609 51.4439 339.539 53.9073L341.373 54.7045C342.435 52.2597 343.524 49.8686 344.742 47.5191L342.966 46.599ZM339.538 53.9087C338.526 56.2466 337.449 58.643 336.567 61.0994L338.449 61.7754C339.304 59.3958 340.345 57.0787 341.373 54.703L339.538 53.9087ZM336.568 61.0966C335.7 63.4894 334.865 65.915 334.219 68.4239L336.156 68.923C336.778 66.5094 337.586 64.1566 338.448 61.7782L336.568 61.0966ZM334.219 68.4229C334.064 69.0238 333.822 69.8155 333.667 70.5537C333.507 71.3193 333.404 72.1724 333.536 73.04L335.513 72.7393C335.432 72.2088 335.487 71.6222 335.625 70.9635C335.769 70.2774 335.965 69.66 336.155 68.924L334.219 68.4229ZM333.533 73.0218C333.564 73.2516 333.671 73.5053 333.893 73.7008C334.112 73.8927 334.374 73.969 334.607 73.969V71.969C334.801 71.969 335.025 72.0326 335.214 72.1984C335.406 72.3678 335.492 72.5818 335.515 72.7575L333.533 73.0218Z" fill="black" mask="url(#path-12-inside-1_135_66)"/>
<path d="M311.5 108C384 137 381 217.5 330.5 266" stroke="black" stroke-width="2" stroke-linecap="round"/>
<path d="M303 106C386.123 135.367 385.899 218.386 328 267.5" stroke="black" stroke-width="2" stroke-linecap="round"/>
<path d="M365 164C373 183.5 374.5 222 339.5 258.5" stroke="black" stroke-width="2" stroke-linecap="round"/>
<path d="M364.5 164C372.5 183.5 373 222 338 258.5" stroke="black" stroke-width="2" stroke-linecap="round"/>
</svg>
