<svg width="120" height="120" viewBox="0 0 120 120" fill="none" xmlns="http://www.w3.org/2000/svg">
<path d="M60.0043 119.996C46.1228 119.997 32.6704 115.185 21.9393 106.379C11.2082 97.5738 3.86245 85.3201 1.15359 71.7059C-1.55527 58.0918 0.54042 43.9596 7.08358 31.7173C13.6267 19.4751 24.2125 9.88031 37.0372 4.56785C49.8618 -0.744615 64.1318 -1.44604 77.4157 2.58308C90.6995 6.61221 102.175 15.1226 109.888 26.6641C117.6 38.2056 121.072 52.0642 119.711 65.8784C118.35 79.6925 112.242 92.6076 102.426 102.423C96.8682 108.011 90.257 112.442 82.9753 115.458C75.6936 118.474 67.886 120.017 60.0043 119.996V119.996Z" fill="url(#paint0_linear_132_4421)"/>
<path style="mix-blend-mode:screen" opacity="0.5" d="M23.184 101.29C22.5956 101.291 22.0128 101.175 21.4693 100.95C20.9257 100.724 20.432 100.394 20.0166 99.9772C14.049 93.9926 9.49918 86.7462 6.7018 78.7712C3.90443 70.7962 2.93069 62.2955 3.85224 53.8945C4.77378 45.4935 7.56715 37.406 12.0268 30.227C16.4865 23.048 22.4991 16.9602 29.6221 12.4114C36.7451 7.86261 44.7974 4.9686 53.1865 3.94232C61.5756 2.91604 70.0881 3.78358 78.0977 6.48112C86.1073 9.17865 93.4101 13.6375 99.469 19.5297C105.528 25.422 110.189 32.5976 113.108 40.5286C113.517 41.6439 113.465 42.8757 112.965 43.9531C112.465 45.0304 111.558 45.865 110.442 46.2733C109.327 46.6816 108.095 46.6301 107.018 46.1302C105.94 45.6303 105.106 44.7228 104.697 43.6075C102.246 36.923 98.3264 30.8737 93.2267 25.9052C88.1271 20.9367 81.9777 17.1756 75.2315 14.8991C68.4853 12.6226 61.3142 11.8887 54.2467 12.7514C47.1792 13.6142 40.3954 16.0515 34.3949 19.884C28.3945 23.7165 23.3305 28.8464 19.5759 34.8957C15.8213 40.945 13.4718 47.7597 12.7007 54.8375C11.9295 61.9153 12.7562 69.076 15.12 75.7919C17.4837 82.5078 21.3242 88.6079 26.3585 93.6426C26.9839 94.2691 27.4097 95.0668 27.5821 95.9351C27.7545 96.8034 27.6658 97.7033 27.3272 98.5212C26.9885 99.3391 26.4152 100.038 25.6795 100.531C24.9437 101.023 24.0786 101.286 23.1934 101.287L23.184 101.29Z" fill="url(#paint1_linear_132_4421)"/>
<path style="mix-blend-mode:screen" opacity="0.8" d="M2.7553 64.4289C2.7553 48.7714 9.01108 34.0495 20.3729 22.9789C31.7348 11.9084 46.8389 5.80875 62.9041 5.80875C75.7555 5.80875 87.9901 9.71381 98.1859 16.9421C89.8895 9.58546 79.6444 4.78208 68.6827 3.10962C57.7211 1.43716 46.5097 2.96685 36.3968 7.51473C26.2839 12.0626 17.7002 19.435 11.678 28.7453C5.65574 38.0557 2.45145 48.9074 2.45044 59.9955C2.45149 62.0814 2.56413 64.1657 2.78789 66.2395C2.76694 65.6437 2.7553 65.034 2.7553 64.4289Z" fill="url(#paint2_radial_132_4421)"/>
<path style="mix-blend-mode:multiply" opacity="0.5" d="M102.426 17.5799C92.6114 7.76636 79.6975 1.65938 65.8848 0.299494C52.072 -1.06039 38.2151 2.41097 26.6749 10.1221C15.1347 17.8332 6.62532 29.307 2.59659 42.5885C-1.43214 55.87 -0.730949 70.1375 4.5807 82.96C9.89234 95.7825 19.4858 106.367 31.7265 112.909C43.9672 119.452 58.0978 121.548 71.7106 118.84C85.3235 116.132 97.5763 108.788 106.381 98.0599C115.187 87.3313 119.999 73.8817 120 60.0026C120.021 52.1207 118.479 44.3128 115.463 37.0309C112.446 29.749 108.015 23.1378 102.426 17.5799V17.5799ZM100.39 98.2434C89.4189 108.825 74.8315 114.653 59.3154 114.653C43.7994 114.653 29.2142 108.834 18.241 98.2434C7.26786 87.6522 1.22854 73.5935 1.22854 58.6272C1.22854 43.6609 7.27949 29.593 18.241 19.0111C29.2026 8.4293 43.8017 2.60196 59.3154 2.60196C74.8291 2.60196 89.4189 8.41999 100.39 19.0111C111.361 29.6023 117.405 43.6633 117.405 58.6272C117.405 73.5912 111.363 87.6615 100.39 98.2434Z" fill="url(#paint3_linear_132_4421)"/>
<path style="mix-blend-mode:multiply" d="M100.916 99.2438C89.945 109.826 74.9084 115.883 59.3923 115.883C44.3278 115.883 28.707 109.93 19.1953 100.617C19.1953 101.762 19.2256 102.907 19.2698 104.054C27.5525 111.712 37.8265 116.881 48.9129 118.966C59.9993 121.051 71.4489 119.969 81.9482 115.843C92.4474 111.717 101.571 104.716 108.272 95.6408C114.973 86.5661 118.979 75.7862 119.832 64.5381C119.241 63.6336 118.634 62.7415 118.01 61.8618C116.539 78.9808 111.323 89.1972 100.916 99.2438Z" fill="url(#paint4_radial_132_4421)"/>
<path style="mix-blend-mode:multiply" opacity="0.3" d="M60.1742 108.7C48.0467 108.7 36.6453 103.775 28.0716 94.834C19.4978 85.8929 14.7734 74.0055 14.7734 61.3594C14.7734 48.7133 19.4955 36.8282 28.0716 27.8871C36.6477 18.946 47.7116 14.9688 59.8391 14.9688C71.9666 14.9688 83.6938 18.9553 92.2792 27.8871C100.865 36.8189 105.577 48.7156 105.577 61.3594C105.577 74.0031 101.87 86.1884 93.294 95.1295C84.7179 104.071 72.3018 108.7 60.1742 108.7Z" fill="url(#paint5_linear_132_4421)"/>
<path style="mix-blend-mode:multiply" opacity="0.5" d="M60.174 107.173C48.4421 107.173 37.413 102.409 29.1163 93.7585C20.8195 85.1083 16.251 73.6072 16.251 61.3754C16.251 49.1436 20.8195 37.6378 29.1163 28.9922C37.413 20.3467 48.1186 16.4951 59.8505 16.4951C71.5824 16.4951 82.9372 20.342 91.2317 28.9922C99.5261 37.6425 104.097 49.1436 104.097 61.3754C104.097 73.6072 100.511 85.3945 92.2138 94.0448C83.917 102.695 71.9058 107.173 60.174 107.173Z" fill="url(#paint6_linear_132_4421)"/>
<path style="mix-blend-mode:multiply" d="M87.4175 84.4265C80.1656 91.3755 70.4725 95.8764 59.0245 95.646C48.7728 95.4412 31.4671 90.7867 20.7825 75.5226C21.0943 78.0034 26.5821 87.3262 31.1366 90.8822C37.1572 96.5116 44.6918 100.259 52.814 101.663C60.9361 103.067 69.2916 102.067 76.8528 98.786C84.4141 95.5047 90.8516 90.0852 95.3736 83.1939C99.8955 76.3026 102.305 68.2401 102.305 59.9977C102.305 58.6635 102.243 57.3401 102.119 56.0275C102.1 53.1278 100.166 45.697 98.8934 43.2046C102.289 65.853 94.6577 77.4774 87.4175 84.4265Z" fill="url(#paint7_radial_132_4421)"/>
<ellipse cx="60.7999" cy="61.5999" rx="41.6" ry="43.2" fill="#D2AACF"/>
<path style="mix-blend-mode:screen" opacity="0.6" d="M59.0011 59.9662C50.9924 60.2692 43.4536 58.5294 37.7864 55.0656C32.1192 51.6019 29 46.8333 29 41.6329C29 36.4325 32.1213 31.4268 37.7864 27.5359C43.4515 23.645 50.9882 21.3369 59.0011 21.0338C67.014 20.7308 74.5464 22.4721 80.2136 25.9343C85.8808 29.3965 89 34.1683 89 39.3671C89 44.5659 85.8808 49.5732 80.2136 53.4641C74.5464 57.355 67.014 59.6647 59.0011 59.9662Z" fill="url(#paint8_linear_132_4421)"/>
<path d="M48.859 24.4332C46.029 23.7351 40.767 27.1793 40.6157 29.1645C40.4156 31.7709 43.974 31.3032 47.7908 29.3181C50.8349 27.7356 50.6906 24.8894 48.859 24.4332Z" fill="#E5FFFF"/>
<path d="M35.5373 32.6347C33.4963 32.786 31.9882 34.3871 32.3233 35.7439C32.7632 37.5242 34.6809 37.2449 36.1424 35.7974C37.846 34.1055 36.8616 32.537 35.5373 32.6347Z" fill="#E5FFFF"/>
<g clip-path="url(#clip0_132_4421)">
<path fill-rule="evenodd" clip-rule="evenodd" d="M46.7999 60.5998C47.9661 60.5998 49.1208 60.3702 50.1982 59.9239C51.2755 59.4776 52.2544 58.8235 53.079 57.999C53.9036 57.1744 54.5577 56.1954 55.004 55.1181C55.4502 54.0407 55.6799 52.886 55.6799 51.7198C55.6799 50.5537 55.4502 49.399 55.004 48.3216C54.5577 47.2442 53.9036 46.2653 53.079 45.4407C52.2544 44.6162 51.2755 43.9621 50.1982 43.5158C49.1208 43.0695 47.9661 42.8398 46.7999 42.8398C44.4448 42.8398 42.1861 43.7754 40.5208 45.4407C38.8555 47.1061 37.9199 49.3647 37.9199 51.7198C37.9199 54.075 38.8555 56.3336 40.5208 57.999C42.1861 59.6643 44.4448 60.5998 46.7999 60.5998Z" fill="#583BAE"/>
<path fill-rule="evenodd" clip-rule="evenodd" d="M43.4078 57.3321C43.5456 57.4696 43.655 57.6329 43.7296 57.8127C43.8042 57.9925 43.8426 58.1853 43.8426 58.3799C43.8426 58.5746 43.8042 58.7674 43.7296 58.9472C43.655 59.127 43.5456 59.2903 43.4078 59.4278L51.5522 58.3799C49.6268 60.3058 57.7983 64.9629 57.7981 67.6862L51.0091 74.2264C51.0091 74.619 50.7776 75.2224 50.5 75.4999C50.2224 75.7775 38.3925 75.4999 38 75.4999C37.6075 75.4999 37.151 74.504 36.8734 74.2264C36.5959 73.9489 36.4399 73.5724 36.4399 73.1799V67.6862C36.4404 64.1779 37.8341 60.8135 40.3146 58.3326L41.3121 57.3321C41.4496 57.1943 41.6129 57.0849 41.7927 57.0103C41.9725 56.9357 42.1653 56.8973 42.3599 56.8973C42.5546 56.8973 42.7474 56.9357 42.9272 57.0103C43.107 57.0849 43.2703 57.1943 43.4078 57.3321ZM78.3121 56.4441C78.1743 56.5816 78.0649 56.7449 77.9903 56.9247C77.9157 57.1045 77.8773 57.2973 77.8773 57.4919C77.8773 57.6866 77.9157 57.8794 77.9903 58.0592C78.0649 58.239 78.1743 58.4023 78.3121 58.5398L67.5742 58.9472C68.5277 59.9007 64.3426 64.7103 64.8586 65.9561C65.3746 67.2019 62.6862 66.3377 62.6862 67.6862L67.5742 71.5942C67.5742 71.9867 69.2224 74.7224 69.5 74.9999C69.7776 75.2775 83.6075 74.9999 84 74.9999C84.3925 74.9999 84.5689 74.504 84.8465 74.2264C85.124 73.9489 85.2799 73.5724 85.2799 73.1799V66.7982C85.2795 63.2899 83.8858 59.9255 81.4053 57.4446L80.4078 56.4441C80.2703 56.3063 80.107 56.1969 79.9272 56.1223C79.7474 56.0477 79.5546 56.0093 79.3599 56.0093C79.1653 56.0093 78.9725 56.0477 78.7927 56.1223C78.6129 56.1969 78.4496 56.3063 78.3121 56.4441Z" fill="#583BAE"/>
<path fill-rule="evenodd" clip-rule="evenodd" d="M73.4399 57.6398C71.8698 57.6398 70.364 57.0161 69.2538 55.9059C68.1436 54.7957 67.5199 53.2899 67.5199 51.7198C67.5199 50.1498 68.1436 48.644 69.2538 47.5338C70.364 46.4236 71.8698 45.7998 73.4399 45.7998C75.01 45.7998 76.5157 46.4236 77.626 47.5338C78.7362 48.644 79.3599 50.1498 79.3599 51.7198C79.3599 53.2899 78.7362 54.7957 77.626 55.9059C76.5157 57.0161 75.01 57.6398 73.4399 57.6398ZM73.4399 60.5998C72.2738 60.5998 71.119 60.3702 70.0417 59.9239C68.9643 59.4776 67.9854 58.8235 67.1608 57.999C66.3362 57.1744 65.6821 56.1954 65.2358 55.1181C64.7896 54.0407 64.5599 52.886 64.5599 51.7198C64.5599 50.5537 64.7896 49.399 65.2358 48.3216C65.6821 47.2442 66.3362 46.2653 67.1608 45.4407C67.9854 44.6162 68.9643 43.9621 70.0417 43.5158C71.119 43.0695 72.2738 42.8398 73.4399 42.8398C75.795 42.8398 78.0537 43.7754 79.719 45.4407C81.3843 47.1061 82.3199 49.3647 82.3199 51.7198C82.3199 54.075 81.3843 56.3336 79.719 57.999C78.0537 59.6643 75.795 60.5998 73.4399 60.5998ZM67.8458 82.8703C67.8458 82.8703 51.6324 82.9478 51.2399 82.9478C50.8474 82.9478 50.4709 82.7919 50.1934 82.5144C49.9158 82.2368 49.7599 81.8604 49.7599 81.4678V77.6198C49.7599 74.8722 50.8514 72.2371 52.7943 70.2942C54.7371 68.3513 57.3722 67.2598 60.1199 67.2598C62.8675 67.2598 65.5026 68.3513 67.4455 70.2942C69.3884 72.2371 70.4799 74.8722 70.4799 77.6198V81.4678C70.4799 81.8604 70.324 82.2368 70.0464 82.5144C69.7689 82.7919 69.3924 82.9478 68.9999 82.9478C68.6074 82.9478 67.8458 82.8703 67.8458 82.8703Z" fill="#583BAE"/>
<path fill-rule="evenodd" clip-rule="evenodd" d="M73.467 60.5998C74.6332 60.5998 75.7879 60.3702 76.8653 59.9239C77.9426 59.4776 78.9216 58.8235 79.7461 57.999C80.5707 57.1744 81.2248 56.1954 81.6711 55.1181C82.1173 54.0407 82.347 52.886 82.347 51.7198C82.347 50.5537 82.1173 49.399 81.6711 48.3216C81.2248 47.2442 80.5707 46.2653 79.7461 45.4407C78.9216 44.6162 77.9426 43.9621 76.8653 43.5158C75.7879 43.0695 74.6332 42.8398 73.467 42.8398C71.1119 42.8398 68.8533 43.7754 67.1879 45.4407C65.5226 47.1061 64.587 49.3647 64.587 51.7198C64.587 54.075 65.5226 56.3336 67.1879 57.999C68.8533 59.6643 71.1119 60.5998 73.467 60.5998Z" fill="#583BAE"/>
<path fill-rule="evenodd" clip-rule="evenodd" d="M60.12 65.78C61.6901 65.78 63.1958 65.1563 64.3061 64.0461C65.4163 62.9358 66.04 61.4301 66.04 59.86C66.04 58.2899 65.4163 56.7841 64.3061 55.6739C63.1958 54.5637 61.6901 53.94 60.12 53.94C58.5499 53.94 57.0441 54.5637 55.9339 55.6739C54.8237 56.7841 54.2 58.2899 54.2 59.86C54.2 61.4301 54.8237 62.9358 55.9339 64.0461C57.0441 65.1563 58.5499 65.78 60.12 65.78ZM60.12 68.74C62.4751 68.74 64.7338 67.8044 66.3991 66.1391C68.0644 64.4738 69 62.2151 69 59.86C69 57.5049 68.0644 55.2462 66.3991 53.5809C64.7338 51.9155 62.4751 50.98 60.12 50.98C57.7649 50.98 55.5062 51.9155 53.8409 53.5809C52.1756 55.2462 51.24 57.5049 51.24 59.86C51.24 62.2151 52.1756 64.4738 53.8409 66.1391C55.5062 67.8044 57.7649 68.74 60.12 68.74Z" fill="#583BAE"/>
<path fill-rule="evenodd" clip-rule="evenodd" d="M60.4322 66.802C61.5984 66.802 62.7531 66.5723 63.8305 66.126C64.9078 65.6798 65.8868 65.0257 66.7114 64.2011C67.5359 63.3765 68.19 62.3976 68.6363 61.3202C69.0826 60.2429 69.3122 59.0881 69.3122 57.922C69.3122 56.7559 69.0826 55.6011 68.6363 54.5238C68.19 53.4464 67.5359 52.4675 66.7114 51.6429C65.8868 50.8183 64.9078 50.1642 63.8305 49.7179C62.7531 49.2717 61.5984 49.042 60.4322 49.042C58.0771 49.042 55.8185 49.9776 54.1531 51.6429C52.4878 53.3082 51.5522 55.5669 51.5522 57.922C51.5522 60.2771 52.4878 62.5358 54.1531 64.2011C55.8185 65.8664 58.0771 66.802 60.4322 66.802Z" fill="#583BAE"/>
<path fill-rule="evenodd" clip-rule="evenodd" d="M46.36 58.8C47.9301 58.8 49.4358 58.1763 50.5461 57.0661C51.6563 55.9559 52.28 54.4501 52.28 52.88C52.28 51.3099 51.6563 49.8041 50.5461 48.6939C49.4358 47.5837 47.9301 46.96 46.36 46.96C44.7899 46.96 43.2841 47.5837 42.1739 48.6939C41.0637 49.8041 40.44 51.3099 40.44 52.88C40.44 54.4501 41.0637 55.9559 42.1739 57.0661C43.2841 58.1763 44.7899 58.8 46.36 58.8ZM46.36 61.76C47.5261 61.76 48.6808 61.5303 49.7582 61.0841C50.8356 60.6378 51.8145 59.9837 52.6391 59.1591C53.4637 58.3345 54.1178 57.3556 54.564 56.2782C55.0103 55.2009 55.24 54.0461 55.24 52.88C55.24 51.7139 55.0103 50.5591 54.564 49.4818C54.1178 48.4044 53.4637 47.4255 52.6391 46.6009C51.8145 45.7763 50.8356 45.1222 49.7582 44.676C48.6808 44.2297 47.5261 44 46.36 44C44.0049 44 41.7462 44.9356 40.0809 46.6009C38.4155 48.2662 37.48 50.5249 37.48 52.88C37.48 55.2351 38.4155 57.4938 40.0809 59.1591C41.7462 60.8244 44.0049 61.76 46.36 61.76Z" fill="white"/>
<path fill-rule="evenodd" clip-rule="evenodd" d="M42.9678 58.4922C43.1057 58.6297 43.215 58.793 43.2896 58.9728C43.3642 59.1527 43.4026 59.3454 43.4026 59.5401C43.4026 59.7348 43.3642 59.9275 43.2896 60.1073C43.215 60.2871 43.1057 60.4504 42.9678 60.5879L41.9674 61.5854C40.042 63.5113 38.9603 66.123 38.96 68.8463V74.3401C38.96 74.7326 38.8041 75.109 38.5265 75.3866C38.249 75.6642 37.8725 75.8201 37.48 75.8201C37.0875 75.8201 36.711 75.6642 36.4335 75.3866C36.1559 75.109 36 74.7326 36 74.3401V68.8463C36.0004 65.3381 37.3941 61.9736 39.8746 59.4927L40.8722 58.4922C41.0096 58.3544 41.173 58.2451 41.3528 58.1705C41.5326 58.0958 41.7253 58.0574 41.92 58.0574C42.1147 58.0574 42.3074 58.0958 42.4872 58.1705C42.667 58.2451 42.8304 58.3544 42.9678 58.4922ZM77.8722 57.6042C77.7343 57.7417 77.625 57.905 77.5504 58.0848C77.4758 58.2646 77.4374 58.4574 77.4374 58.6521C77.4374 58.8467 77.4758 59.0395 77.5504 59.2193C77.625 59.3991 77.7343 59.5624 77.8722 59.6999L78.8726 60.6974C79.8261 61.651 80.5825 62.783 81.0985 64.0288C81.6145 65.2746 81.88 66.6099 81.88 67.9583V74.3401C81.88 74.7326 82.0359 75.109 82.3135 75.3866C82.591 75.6642 82.9675 75.8201 83.36 75.8201C83.7525 75.8201 84.129 75.6642 84.4065 75.3866C84.6841 75.109 84.84 74.7326 84.84 74.3401V67.9583C84.8396 64.4501 83.4459 61.0856 80.9654 58.6047L79.9678 57.6042C79.8304 57.4664 79.667 57.3571 79.4872 57.2825C79.3074 57.2078 79.1147 57.1694 78.92 57.1694C78.7253 57.1694 78.5326 57.2078 78.3528 57.2825C78.173 57.3571 78.0096 57.4664 77.8722 57.6042Z" fill="white"/>
<path fill-rule="evenodd" clip-rule="evenodd" d="M72.9999 58.8C71.4299 58.8 69.9241 58.1763 68.8139 57.0661C67.7037 55.9559 67.0799 54.4501 67.0799 52.88C67.0799 51.3099 67.7037 49.8041 68.8139 48.6939C69.9241 47.5837 71.4299 46.96 72.9999 46.96C74.57 46.96 76.0758 47.5837 77.186 48.6939C78.2962 49.8041 78.9199 51.3099 78.9199 52.88C78.9199 54.4501 78.2962 55.9559 77.186 57.0661C76.0758 58.1763 74.57 58.8 72.9999 58.8ZM72.9999 61.76C71.8338 61.76 70.6791 61.5303 69.6017 61.0841C68.5243 60.6378 67.5454 59.9837 66.7208 59.1591C65.8963 58.3345 65.2422 57.3556 64.7959 56.2782C64.3496 55.2009 64.1199 54.0461 64.1199 52.88C64.1199 51.7139 64.3496 50.5591 64.7959 49.4818C65.2422 48.4044 65.8963 47.4255 66.7208 46.6009C67.5454 45.7763 68.5243 45.1222 69.6017 44.676C70.6791 44.2297 71.8338 44 72.9999 44C75.3551 44 77.6137 44.9356 79.2791 46.6009C80.9444 48.2662 81.8799 50.5249 81.8799 52.88C81.8799 55.2351 80.9444 57.4938 79.2791 59.1591C77.6137 60.8244 75.3551 61.76 72.9999 61.76ZM59.6799 71.38C57.7173 71.38 55.8351 72.1596 54.4474 73.5474C53.0596 74.9352 52.2799 76.8174 52.2799 78.78V82.628C52.2799 83.0205 52.124 83.397 51.8465 83.6745C51.5689 83.9521 51.1925 84.108 50.7999 84.108C50.4074 84.108 50.031 83.9521 49.7534 83.6745C49.4759 83.397 49.3199 83.0205 49.3199 82.628V78.78C49.3199 76.0324 50.4114 73.3973 52.3543 71.4544C54.2972 69.5115 56.9323 68.42 59.6799 68.42C62.4276 68.42 65.0627 69.5115 67.0056 71.4544C68.9484 73.3973 70.0399 76.0324 70.0399 78.78V82.628C70.0399 83.0205 69.884 83.397 69.6065 83.6745C69.3289 83.9521 68.9525 84.108 68.5599 84.108C68.1674 84.108 67.791 83.9521 67.5134 83.6745C67.2359 83.397 67.0799 83.0205 67.0799 82.628V78.78C67.0799 77.8082 66.8885 76.846 66.5167 75.9481C66.1448 75.0503 65.5997 74.2346 64.9125 73.5474C64.2254 72.8603 63.4096 72.3152 62.5118 71.9433C61.614 71.5714 60.6517 71.38 59.6799 71.38Z" fill="white"/>
<path fill-rule="evenodd" clip-rule="evenodd" d="M59.68 66.9401C61.2501 66.9401 62.7559 66.3164 63.8661 65.2062C64.9763 64.096 65.6 62.5902 65.6 61.0201C65.6 59.4501 64.9763 57.9443 63.8661 56.8341C62.7559 55.7239 61.2501 55.1001 59.68 55.1001C58.11 55.1001 56.6042 55.7239 55.494 56.8341C54.3838 57.9443 53.76 59.4501 53.76 61.0201C53.76 62.5902 54.3838 64.096 55.494 65.2062C56.6042 66.3164 58.11 66.9401 59.68 66.9401ZM59.68 69.9001C62.0352 69.9001 64.2938 68.9646 65.9592 67.2992C67.6245 65.6339 68.56 63.3753 68.56 61.0201C68.56 58.665 67.6245 56.4064 65.9592 54.741C64.2938 53.0757 62.0352 52.1401 59.68 52.1401C57.3249 52.1401 55.0663 53.0757 53.4009 54.741C51.7356 56.4064 50.8 58.665 50.8 61.0201C50.8 63.3753 51.7356 65.6339 53.4009 67.2992C55.0663 68.9646 57.3249 69.9001 59.68 69.9001Z" fill="white"/>
</g>
<defs>
<linearGradient id="paint0_linear_132_4421" x1="260905" y1="112676" x2="260905" y2="150813" gradientUnits="userSpaceOnUse">
<stop stop-color="#8D77CD"/>
<stop offset="1" stop-color="#0C1234"/>
</linearGradient>
<linearGradient id="paint1_linear_132_4421" x1="227599" y1="78278.8" x2="238349" y2="101434" gradientUnits="userSpaceOnUse">
<stop stop-color="#FFD37E"/>
<stop offset="1"/>
</linearGradient>
<radialGradient id="paint2_radial_132_4421" cx="0" cy="0" r="1" gradientUnits="userSpaceOnUse" gradientTransform="translate(196785 50526.6) scale(23377.6 15576.5)">
<stop stop-color="#FFD37E"/>
<stop offset="1"/>
</radialGradient>
<linearGradient id="paint3_linear_132_4421" x1="247403" y1="69373.6" x2="265111" y2="135485" gradientUnits="userSpaceOnUse">
<stop stop-color="white"/>
<stop offset="1" stop-color="#BD6519"/>
</linearGradient>
<radialGradient id="paint4_radial_132_4421" cx="0" cy="0" r="1" gradientUnits="userSpaceOnUse" gradientTransform="translate(228528 72653.7) scale(24917.7 14395)">
<stop stop-color="#A95C19"/>
<stop offset="1" stop-color="white"/>
</radialGradient>
<linearGradient id="paint5_linear_132_4421" x1="204106" y1="102823" x2="216924" y2="118826" gradientUnits="userSpaceOnUse">
<stop stop-color="#8B4519"/>
<stop offset="1" stop-color="white"/>
</linearGradient>
<linearGradient id="paint6_linear_132_4421" x1="195823" y1="98435.1" x2="208346" y2="116866" gradientUnits="userSpaceOnUse">
<stop stop-color="#8B4519"/>
<stop offset="1" stop-color="white"/>
</linearGradient>
<radialGradient id="paint7_radial_132_4421" cx="0" cy="0" r="1" gradientUnits="userSpaceOnUse" gradientTransform="translate(182464 67323.9) scale(21094 15286.1)">
<stop stop-color="#00639F"/>
<stop offset="1" stop-color="white"/>
</radialGradient>
<linearGradient id="paint8_linear_132_4421" x1="128161" y1="33415.9" x2="128915" y2="38473.8" gradientUnits="userSpaceOnUse">
<stop stop-color="#AFD8A0"/>
<stop offset="1"/>
</linearGradient>
<clipPath id="clip0_132_4421">
<rect width="59.2" height="59.2" fill="white" transform="translate(32 30)"/>
</clipPath>
</defs>
</svg>
