<svg width="490" height="167" viewBox="0 0 490 167" fill="none" xmlns="http://www.w3.org/2000/svg">
<rect x="1" y="9" width="489" height="158" rx="79" fill="#774936"/>
<rect width="489" height="158" rx="79" fill="#CD9777"/>
<rect x="12" y="7" width="467" height="143" rx="71.5" fill="url(#paint0_linear_132_4413)"/>
<ellipse cx="444.053" cy="38.6204" rx="11.5" ry="18" transform="rotate(-47.6955 444.053 38.6204)" fill="white"/>
<ellipse cx="465.422" cy="64.1668" rx="6.78543" ry="10.6207" transform="rotate(-25.8654 465.422 64.1668)" fill="white"/>
<g filter="url(#filter0_dd_132_4413)">
<path d="M173.929 104.04C172.889 104.4 171.669 104.68 170.269 104.88C168.909 105.08 167.529 105.18 166.129 105.18C164.769 105.18 163.449 105.1 162.169 104.94C160.929 104.82 159.889 104.6 159.049 104.28C158.569 103.64 158.209 102.88 157.969 102C157.729 101.16 157.569 100.24 157.489 99.24C157.409 98.24 157.369 97.2 157.369 96.12C157.369 95 157.369 93.88 157.369 92.76C157.369 89.2 157.449 85.66 157.609 82.14C157.769 78.62 157.849 75.08 157.849 71.52C157.849 70.88 157.849 70.26 157.849 69.66C157.889 69.02 157.869 68.38 157.789 67.74C157.749 67.38 157.589 67.06 157.309 66.78C157.029 66.5 156.729 66.16 156.409 65.76C156.129 65.32 155.869 64.76 155.629 64.08C155.389 63.4 155.269 62.44 155.269 61.2C155.269 59.96 155.309 59 155.389 58.32C155.509 57.6 155.669 57.04 155.869 56.64C156.069 56.24 156.309 55.96 156.589 55.8C156.909 55.6 157.289 55.42 157.729 55.26C158.089 55.1 158.709 54.96 159.589 54.84C160.469 54.68 161.429 54.54 162.469 54.42C163.549 54.3 164.589 54.22 165.589 54.18C166.589 54.1 167.389 54.06 167.989 54.06C170.589 54.06 173.209 54.08 175.849 54.12C178.529 54.16 181.109 54.34 183.589 54.66C186.109 54.98 188.469 55.54 190.669 56.34C192.869 57.1 194.789 58.22 196.429 59.7C198.069 61.14 199.369 63.02 200.329 65.34C201.289 67.66 201.769 70.54 201.769 73.98C201.769 76.98 201.329 79.48 200.449 81.48C199.609 83.48 198.489 85.12 197.089 86.4C195.729 87.64 194.169 88.58 192.409 89.22C190.649 89.86 188.869 90.32 187.069 90.6C185.269 90.84 183.509 90.96 181.789 90.96C180.069 90.96 178.569 90.96 177.289 90.96C176.489 90.96 175.849 91 175.369 91.08C174.929 91.12 174.589 91.26 174.349 91.5C174.149 91.74 174.009 92.08 173.929 92.52C173.889 92.96 173.869 93.56 173.869 94.32C173.869 94.8 173.889 95.4 173.929 96.12C173.969 96.84 174.009 97.6 174.049 98.4C174.089 99.16 174.129 99.9 174.169 100.62C174.209 101.34 174.229 101.94 174.229 102.42C174.229 103.1 174.129 103.64 173.929 104.04ZM174.169 73.56C174.169 74.76 174.229 75.7 174.349 76.38C174.469 77.02 174.709 77.5 175.069 77.82C175.429 78.14 175.929 78.34 176.569 78.42C177.249 78.5 178.109 78.54 179.149 78.54C179.909 78.54 180.749 78.46 181.669 78.3C182.629 78.14 183.509 77.86 184.309 77.46C185.109 77.02 185.789 76.44 186.349 75.72C186.909 74.96 187.189 74 187.189 72.84C187.189 72.24 187.069 71.64 186.829 71.04C186.589 70.4 186.169 69.84 185.569 69.36C185.009 68.88 184.249 68.5 183.289 68.22C182.329 67.9 181.129 67.74 179.689 67.74C178.529 67.74 177.589 67.82 176.869 67.98C176.149 68.14 175.589 68.44 175.189 68.88C174.789 69.32 174.509 69.92 174.349 70.68C174.229 71.4 174.169 72.36 174.169 73.56ZM206.433 55.14C207.673 54.74 209.053 54.46 210.573 54.3C212.133 54.14 213.673 54.1 215.193 54.18C216.713 54.22 218.153 54.38 219.513 54.66C220.873 54.9 221.993 55.24 222.873 55.68C223.313 56.48 223.553 57.36 223.593 58.32C223.673 59.24 223.713 60.22 223.713 61.26C223.713 63.02 223.633 64.92 223.473 66.96C223.313 68.96 223.133 70.98 222.933 73.02C222.773 75.06 222.613 77.08 222.453 79.08C222.293 81.08 222.213 82.94 222.213 84.66C222.213 85.54 222.233 86.28 222.273 86.88C222.313 87.48 222.453 87.96 222.693 88.32C222.973 88.68 223.393 88.94 223.953 89.1C224.553 89.26 225.373 89.34 226.413 89.34C227.573 89.34 228.693 89.26 229.773 89.1C230.853 88.9 231.893 88.7 232.893 88.5C233.933 88.3 234.973 88.12 236.013 87.96C237.053 87.76 238.113 87.66 239.193 87.66H239.373C240.093 88.38 240.673 89.28 241.113 90.36C241.593 91.4 241.973 92.52 242.253 93.72C242.573 94.92 242.793 96.16 242.913 97.44C243.033 98.68 243.093 99.84 243.093 100.92C242.733 101.2 242.293 101.46 241.773 101.7C240.453 102.42 239.093 103.02 237.693 103.5C236.333 103.98 234.753 104.38 232.953 104.7C231.153 105.02 229.013 105.24 226.533 105.36C224.093 105.52 221.113 105.6 217.593 105.6C214.833 105.6 212.573 105.4 210.813 105C209.093 104.64 207.633 103.94 206.433 102.9C205.633 102.22 205.033 101.28 204.633 100.08C204.273 98.84 204.013 97.3 203.853 95.46C203.693 93.58 203.613 91.38 203.613 88.86C203.653 86.34 203.673 83.46 203.673 80.22C203.673 79.26 203.673 78.1 203.673 76.74C203.713 75.38 203.753 73.94 203.793 72.42C203.833 70.9 203.893 69.34 203.973 67.74C204.093 66.14 204.233 64.62 204.393 63.18C204.553 61.74 204.733 60.44 204.933 59.28C205.173 58.08 205.433 57.14 205.713 56.46C205.793 56.22 205.893 56 206.013 55.8C206.173 55.56 206.313 55.34 206.433 55.14ZM297.984 101.1C297.584 101.66 296.684 102.14 295.284 102.54C293.884 102.94 292.284 103.24 290.484 103.44C288.724 103.64 286.924 103.72 285.084 103.68C283.284 103.64 281.764 103.46 280.524 103.14C280.084 101.94 279.584 100.74 279.024 99.54C278.464 98.3 278.024 97.12 277.704 96C277.544 95.32 277.284 94.8 276.924 94.44C276.604 94.08 276.164 93.82 275.604 93.66C275.084 93.46 274.404 93.34 273.564 93.3C272.764 93.26 271.784 93.24 270.624 93.24C270.064 93.24 269.404 93.24 268.644 93.24C267.884 93.2 267.144 93.2 266.424 93.24C265.704 93.28 265.044 93.36 264.444 93.48C263.844 93.56 263.444 93.72 263.244 93.96C263.044 94.2 262.864 94.44 262.704 94.68C262.544 94.88 262.384 95.14 262.224 95.46C262.064 95.78 261.884 96.18 261.684 96.66C261.524 97.14 261.304 97.78 261.024 98.58C260.784 99.3 260.584 99.94 260.424 100.5C260.264 101.06 260.124 101.56 260.004 102C259.884 102.4 259.764 102.78 259.644 103.14C259.524 103.5 259.364 103.84 259.164 104.16C257.924 104.28 256.544 104.26 255.024 104.1C253.504 103.98 252.004 103.76 250.524 103.44C249.044 103.16 247.664 102.8 246.384 102.36C245.144 101.92 244.164 101.44 243.444 100.92C243.444 100.44 243.504 99.9 243.624 99.3C243.744 98.66 243.864 98.02 243.984 97.38C244.144 96.7 244.304 96.06 244.464 95.46C244.624 94.82 244.764 94.26 244.884 93.78C245.484 91.14 246.204 88.18 247.044 84.9C247.924 81.58 248.924 78.28 250.044 75C251.204 71.68 252.464 68.56 253.824 65.64C255.224 62.72 256.764 60.36 258.444 58.56C259.004 57.96 259.744 57.46 260.664 57.06C261.624 56.66 262.704 56.34 263.904 56.1C265.104 55.82 266.364 55.62 267.684 55.5C269.004 55.38 270.324 55.32 271.644 55.32C272.564 55.32 273.624 55.4 274.824 55.56C276.064 55.72 277.284 55.98 278.484 56.34C279.724 56.7 280.884 57.2 281.964 57.84C283.084 58.44 283.964 59.22 284.604 60.18C285.524 61.5 286.424 63.1 287.304 64.98C288.184 66.82 289.024 68.84 289.824 71.04C290.664 73.24 291.464 75.56 292.224 78C292.984 80.44 293.684 82.88 294.324 85.32C295.004 87.76 295.604 90.16 296.124 92.52C296.684 94.88 297.184 97.08 297.624 99.12C297.704 99.44 297.784 99.78 297.864 100.14C297.984 100.46 298.024 100.78 297.984 101.1ZM266.124 81.24C265.924 82.24 266.144 82.82 266.784 82.98C267.464 83.18 268.144 83.28 268.824 83.28C269.544 83.24 270.244 83.22 270.924 83.22C272.004 83.22 272.884 83.18 273.564 83.1C274.284 82.98 274.824 82.84 275.184 82.68C275.544 82.48 275.764 82.28 275.844 82.08C275.964 81.84 275.984 81.58 275.904 81.3C275.784 80.78 275.604 79.9 275.364 78.66C275.124 77.38 274.804 76.08 274.404 74.76C274.004 73.44 273.504 72.28 272.904 71.28C272.344 70.28 271.664 69.78 270.864 69.78C270.264 69.78 269.704 70.26 269.184 71.22C268.664 72.14 268.204 73.24 267.804 74.52C267.404 75.8 267.044 77.08 266.724 78.36C266.444 79.6 266.244 80.56 266.124 81.24ZM321.458 53.58C322.498 53.46 323.738 53.56 325.178 53.88C326.618 54.16 328.018 54.58 329.378 55.14C330.778 55.66 331.998 56.3 333.038 57.06C334.078 57.82 334.718 58.6 334.958 59.4C334.958 59.48 334.958 59.54 334.958 59.58C334.998 59.62 334.998 59.68 334.958 59.76C334.718 60.76 334.278 62.04 333.638 63.6C333.038 65.12 332.338 66.72 331.538 68.4C330.778 70.08 329.958 71.74 329.078 73.38C328.198 74.98 327.398 76.34 326.678 77.46C325.638 79.1 324.718 80.54 323.918 81.78C323.158 82.98 322.778 83.92 322.778 84.6C322.778 87.6 322.918 90.54 323.198 93.42C323.518 96.3 323.698 99.16 323.738 102C322.538 102.56 321.158 102.98 319.598 103.26C318.078 103.58 316.538 103.76 314.978 103.8C313.418 103.84 311.918 103.74 310.478 103.5C309.038 103.3 307.838 102.96 306.878 102.48C306.598 100.68 306.438 99.04 306.398 97.56C306.398 96.08 306.438 94.7 306.518 93.42C306.598 92.14 306.698 90.92 306.818 89.76C306.938 88.6 306.998 87.4 306.998 86.16C306.998 85.32 306.558 84.36 305.678 83.28C304.838 82.2 303.618 80.74 302.018 78.9C300.858 77.54 299.718 75.86 298.598 73.86C297.518 71.82 296.558 69.76 295.718 67.68C294.878 65.6 294.198 63.62 293.678 61.74C293.158 59.86 292.898 58.4 292.898 57.36C293.458 56.92 294.278 56.48 295.358 56.04C296.438 55.6 297.618 55.22 298.898 54.9C300.178 54.58 301.478 54.36 302.798 54.24C304.158 54.12 305.378 54.16 306.458 54.36C306.898 54.96 307.298 55.72 307.658 56.64C308.058 57.52 308.458 58.5 308.858 59.58C309.298 60.62 309.738 61.7 310.178 62.82C310.658 63.94 311.158 64.98 311.678 65.94C312.158 66.82 312.698 67.64 313.298 68.4C313.938 69.12 314.418 69.48 314.738 69.48C314.978 69.48 315.218 69.28 315.458 68.88C315.738 68.44 315.998 67.92 316.238 67.32C316.478 66.72 316.718 66.08 316.958 65.4C317.238 64.68 317.498 64.02 317.738 63.42C318.058 62.78 318.338 62 318.578 61.08C318.858 60.12 319.138 59.16 319.418 58.2C319.698 57.24 319.998 56.34 320.318 55.5C320.638 54.66 321.018 54.02 321.458 53.58Z" fill="white"/>
</g>
<defs>
<filter id="filter0_dd_132_4413" x="143.269" y="44.3999" width="203.748" height="76.2002" filterUnits="userSpaceOnUse" color-interpolation-filters="sRGB">
<feFlood flood-opacity="0" result="BackgroundImageFix"/>
<feColorMatrix in="SourceAlpha" type="matrix" values="0 0 0 0 0 0 0 0 0 0 0 0 0 0 0 0 0 0 127 0" result="hardAlpha"/>
<feOffset dy="3"/>
<feGaussianBlur stdDeviation="6"/>
<feComposite in2="hardAlpha" operator="out"/>
<feColorMatrix type="matrix" values="0 0 0 0 0 0 0 0 0 0 0 0 0 0 0 0 0 0 0.25 0"/>
<feBlend mode="normal" in2="BackgroundImageFix" result="effect1_dropShadow_132_4413"/>
<feColorMatrix in="SourceAlpha" type="matrix" values="0 0 0 0 0 0 0 0 0 0 0 0 0 0 0 0 0 0 127 0" result="hardAlpha"/>
<feOffset dy="3"/>
<feComposite in2="hardAlpha" operator="out"/>
<feColorMatrix type="matrix" values="0 0 0 0 0.309804 0 0 0 0 0.309804 0 0 0 0 0.309804 0 0 0 0.6 0"/>
<feBlend mode="normal" in2="effect1_dropShadow_132_4413" result="effect2_dropShadow_132_4413"/>
<feBlend mode="normal" in="SourceGraphic" in2="effect2_dropShadow_132_4413" result="shape"/>
</filter>
<linearGradient id="paint0_linear_132_4413" x1="12" y1="78.5" x2="479" y2="78.5" gradientUnits="userSpaceOnUse">
<stop stop-color="#70339B"/>
<stop offset="1" stop-color="#BF87E7"/>
</linearGradient>
</defs>
</svg>
