<svg width="120" height="120" viewBox="0 0 120 120" fill="none" xmlns="http://www.w3.org/2000/svg">
<path d="M60.0043 119.996C46.1228 119.997 32.6704 115.185 21.9393 106.379C11.2082 97.5738 3.86245 85.3201 1.15359 71.7059C-1.55527 58.0918 0.54042 43.9596 7.08358 31.7173C13.6267 19.4751 24.2125 9.88031 37.0372 4.56785C49.8618 -0.744615 64.1318 -1.44604 77.4157 2.58308C90.6995 6.61221 102.175 15.1226 109.888 26.6641C117.6 38.2056 121.072 52.0642 119.711 65.8784C118.35 79.6925 112.242 92.6076 102.426 102.423C96.8682 108.011 90.257 112.442 82.9753 115.458C75.6936 118.474 67.886 120.017 60.0043 119.996V119.996Z" fill="url(#paint0_linear_132_4394)"/>
<path style="mix-blend-mode:screen" opacity="0.5" d="M23.184 101.29C22.5956 101.291 22.0128 101.175 21.4693 100.95C20.9257 100.724 20.432 100.394 20.0166 99.9772C14.049 93.9926 9.49918 86.7462 6.7018 78.7712C3.90443 70.7962 2.93069 62.2955 3.85224 53.8945C4.77378 45.4935 7.56715 37.406 12.0268 30.227C16.4865 23.048 22.4991 16.9602 29.6221 12.4114C36.7451 7.86261 44.7974 4.9686 53.1865 3.94232C61.5756 2.91604 70.0881 3.78358 78.0977 6.48112C86.1073 9.17865 93.4101 13.6375 99.469 19.5297C105.528 25.422 110.189 32.5976 113.108 40.5286C113.517 41.6439 113.465 42.8757 112.965 43.9531C112.465 45.0304 111.558 45.865 110.442 46.2733C109.327 46.6816 108.095 46.6301 107.018 46.1302C105.94 45.6303 105.106 44.7228 104.697 43.6075C102.246 36.923 98.3264 30.8737 93.2267 25.9052C88.1271 20.9367 81.9777 17.1756 75.2315 14.8991C68.4853 12.6226 61.3142 11.8887 54.2467 12.7514C47.1792 13.6142 40.3954 16.0515 34.3949 19.884C28.3945 23.7165 23.3305 28.8464 19.5759 34.8957C15.8213 40.945 13.4718 47.7597 12.7007 54.8375C11.9295 61.9153 12.7562 69.076 15.12 75.7919C17.4837 82.5078 21.3242 88.6079 26.3585 93.6426C26.9839 94.2691 27.4097 95.0668 27.5821 95.9351C27.7545 96.8034 27.6658 97.7033 27.3272 98.5212C26.9885 99.3391 26.4152 100.038 25.6795 100.531C24.9437 101.023 24.0786 101.286 23.1934 101.287L23.184 101.29Z" fill="url(#paint1_linear_132_4394)"/>
<path style="mix-blend-mode:screen" opacity="0.8" d="M2.7553 64.4289C2.7553 48.7714 9.01108 34.0495 20.3729 22.9789C31.7348 11.9084 46.8389 5.80875 62.9041 5.80875C75.7555 5.80875 87.9901 9.71381 98.1859 16.9421C89.8895 9.58546 79.6444 4.78208 68.6827 3.10962C57.7211 1.43716 46.5097 2.96685 36.3968 7.51473C26.2839 12.0626 17.7002 19.435 11.678 28.7453C5.65574 38.0557 2.45145 48.9074 2.45044 59.9955C2.45149 62.0814 2.56413 64.1657 2.78789 66.2395C2.76694 65.6437 2.7553 65.034 2.7553 64.4289Z" fill="url(#paint2_radial_132_4394)"/>
<path style="mix-blend-mode:multiply" opacity="0.5" d="M102.426 17.5799C92.6114 7.76636 79.6975 1.65938 65.8848 0.299494C52.072 -1.06039 38.2151 2.41097 26.6749 10.1221C15.1347 17.8332 6.62532 29.307 2.59659 42.5885C-1.43214 55.87 -0.730949 70.1375 4.5807 82.96C9.89234 95.7825 19.4858 106.367 31.7265 112.909C43.9672 119.452 58.0978 121.548 71.7106 118.84C85.3235 116.132 97.5763 108.788 106.381 98.0599C115.187 87.3313 119.999 73.8817 120 60.0026C120.021 52.1207 118.479 44.3128 115.463 37.0309C112.446 29.749 108.015 23.1378 102.426 17.5799V17.5799ZM100.39 98.2434C89.4189 108.825 74.8315 114.653 59.3154 114.653C43.7994 114.653 29.2142 108.834 18.241 98.2434C7.26786 87.6522 1.22854 73.5935 1.22854 58.6272C1.22854 43.6609 7.27949 29.593 18.241 19.0111C29.2026 8.4293 43.8017 2.60196 59.3154 2.60196C74.8291 2.60196 89.4189 8.41999 100.39 19.0111C111.361 29.6023 117.405 43.6633 117.405 58.6272C117.405 73.5912 111.363 87.6615 100.39 98.2434Z" fill="url(#paint3_linear_132_4394)"/>
<path style="mix-blend-mode:multiply" d="M100.916 99.2438C89.945 109.826 74.9084 115.883 59.3923 115.883C44.3278 115.883 28.707 109.93 19.1953 100.617C19.1953 101.762 19.2256 102.907 19.2698 104.054C27.5525 111.712 37.8265 116.881 48.9129 118.966C59.9993 121.051 71.4489 119.969 81.9482 115.843C92.4474 111.717 101.571 104.716 108.272 95.6408C114.973 86.5661 118.979 75.7862 119.832 64.5381C119.241 63.6336 118.634 62.7415 118.01 61.8618C116.539 78.9808 111.323 89.1972 100.916 99.2438Z" fill="url(#paint4_radial_132_4394)"/>
<path style="mix-blend-mode:multiply" opacity="0.3" d="M60.1742 108.7C48.0467 108.7 36.6453 103.775 28.0716 94.834C19.4978 85.8929 14.7734 74.0055 14.7734 61.3594C14.7734 48.7133 19.4955 36.8282 28.0716 27.8871C36.6477 18.946 47.7116 14.9688 59.8391 14.9688C71.9666 14.9688 83.6938 18.9553 92.2792 27.8871C100.865 36.8189 105.577 48.7156 105.577 61.3594C105.577 74.0031 101.87 86.1884 93.294 95.1295C84.7179 104.071 72.3018 108.7 60.1742 108.7Z" fill="url(#paint5_linear_132_4394)"/>
<path style="mix-blend-mode:multiply" opacity="0.5" d="M60.174 107.173C48.4421 107.173 37.413 102.409 29.1163 93.7585C20.8195 85.1083 16.251 73.6072 16.251 61.3754C16.251 49.1436 20.8195 37.6378 29.1163 28.9922C37.413 20.3467 48.1186 16.4951 59.8505 16.4951C71.5824 16.4951 82.9372 20.342 91.2317 28.9922C99.5261 37.6425 104.097 49.1436 104.097 61.3754C104.097 73.6072 100.511 85.3945 92.2138 94.0448C83.917 102.695 71.9058 107.173 60.174 107.173Z" fill="url(#paint6_linear_132_4394)"/>
<path style="mix-blend-mode:multiply" d="M87.4175 84.4265C80.1656 91.3755 70.4725 95.8764 59.0245 95.646C48.7728 95.4412 31.4671 90.7867 20.7825 75.5226C21.0943 78.0034 26.5821 87.3262 31.1366 90.8822C37.1572 96.5116 44.6918 100.259 52.814 101.663C60.9361 103.067 69.2916 102.067 76.8528 98.786C84.4141 95.5047 90.8516 90.0852 95.3736 83.1939C99.8955 76.3026 102.305 68.2401 102.305 59.9977C102.305 58.6635 102.243 57.3401 102.119 56.0275C102.1 53.1278 100.166 45.697 98.8934 43.2046C102.289 65.853 94.6577 77.4774 87.4175 84.4265Z" fill="url(#paint7_radial_132_4394)"/>
<ellipse cx="60.7999" cy="61.5999" rx="41.6" ry="43.2" fill="#D2AACF"/>
<path style="mix-blend-mode:screen" opacity="0.6" d="M59.0011 59.9662C50.9924 60.2692 43.4536 58.5294 37.7864 55.0656C32.1192 51.6019 29 46.8333 29 41.6329C29 36.4325 32.1213 31.4268 37.7864 27.5359C43.4515 23.645 50.9882 21.3369 59.0011 21.0338C67.014 20.7308 74.5464 22.4721 80.2136 25.9343C85.8808 29.3965 89 34.1683 89 39.3671C89 44.5659 85.8808 49.5732 80.2136 53.4641C74.5464 57.355 67.014 59.6647 59.0011 59.9662Z" fill="url(#paint8_linear_132_4394)"/>
<path d="M48.859 24.4332C46.029 23.7351 40.767 27.1793 40.6157 29.1645C40.4156 31.7709 43.974 31.3032 47.7908 29.3181C50.8349 27.7356 50.6906 24.8894 48.859 24.4332Z" fill="#E5FFFF"/>
<path d="M35.5373 32.6347C33.4963 32.786 31.9882 34.3871 32.3233 35.7439C32.7632 37.5242 34.6809 37.2449 36.1424 35.7974C37.846 34.1055 36.8616 32.537 35.5373 32.6347Z" fill="#E5FFFF"/>
<path d="M59.0057 70C56.6199 70 56 68 54 66.5C53 64.5 51.5 63.3671 51.5 61C52 58.5 52 58.5 53.5 56.5C55.187 54.8262 56.6199 54 59.0057 54C61.3914 54 62.813 53.8262 64.5 55.5C66.187 57.1738 67.5 59.1329 67.5 61.5C67.5 63.8671 67.0534 66.1372 65.3664 67.8109C63.6795 69.4847 61.3914 70 59.0057 70ZM78.1018 63.9735C78.2046 63.1575 78.2817 62.3415 78.2817 61.5C78.2817 60.6585 78.2046 59.817 78.1018 58.95L83.5247 54.7935C84.0131 54.411 84.1416 53.7225 83.8332 53.1615L78.6929 44.3385C78.3845 43.7775 77.6905 43.548 77.1251 43.7775L70.7255 46.3275C69.389 45.333 68.0011 44.466 66.382 43.8285L65.431 37.071C65.3788 36.7707 65.2211 36.4983 64.9859 36.3023C64.7507 36.1063 64.4531 35.9992 64.1459 36H53.8654C53.2229 36 52.6831 36.459 52.5803 37.071L51.6294 43.8285C50.0102 44.466 48.6223 45.333 47.2859 46.3275L40.8862 43.7775C40.3208 43.548 39.6269 43.7775 39.3185 44.3385L34.1782 53.1615C33.8441 53.7225 33.9983 54.411 34.4866 54.7935L39.9096 58.95C39.8068 59.817 39.7297 60.6585 39.7297 61.5C39.7297 62.3415 39.8068 63.1575 39.9096 63.9735L34.4866 68.2065C33.9983 68.589 33.8441 69.2775 34.1782 69.8385L39.3185 78.6615C39.6269 79.2225 40.3208 79.4265 40.8862 79.2225L47.2859 76.647C48.6223 77.667 50.0102 78.534 51.6294 79.1715L52.5803 85.929C52.6831 86.541 53.2229 87 53.8654 87H64.1459C64.7885 87 65.3282 86.541 65.431 85.929L66.382 79.1715C68.0011 78.5085 69.389 77.667 70.7255 76.647L77.1251 79.2225C77.6905 79.4265 78.3845 79.2225 78.6929 78.6615L83.8332 69.8385C84.1416 69.2775 84.0131 68.589 83.5247 68.2065L78.1018 63.9735Z" fill="#583BAE"/>
<path d="M33.0797 53.3022C34.2915 49.5607 36.2812 46.1178 38.9181 43.1998C39.1362 42.9588 39.421 42.788 39.7363 42.7092C40.0517 42.6303 40.3834 42.647 40.6893 42.757L46.9803 45.0071C47.4282 45.167 47.9054 45.2277 48.3791 45.1848C48.8527 45.1419 49.3113 44.9965 49.7232 44.7588C50.135 44.521 50.4903 44.1966 50.7642 43.8079C51.0382 43.4192 51.2244 42.9756 51.3099 42.5077L52.5104 35.9281C52.5684 35.6078 52.7203 35.312 52.947 35.0783C53.1736 34.8447 53.4646 34.6838 53.783 34.6161C57.6253 33.7946 61.5978 33.7946 65.4401 34.6161C65.7585 34.6838 66.0496 34.8447 66.2762 35.0783C66.5028 35.312 66.6548 35.6078 66.7128 35.9281L67.9133 42.5077C67.9987 42.9756 68.1849 43.4192 68.4589 43.8079C68.7329 44.1966 69.0881 44.521 69.5 44.7588C69.9119 44.9965 70.3705 45.1419 70.8441 45.1848C71.3177 45.2277 71.795 45.167 72.2429 45.0071L78.5372 42.757C78.8434 42.6474 79.1752 42.6312 79.4906 42.7107C79.806 42.7901 80.0907 42.9615 80.3084 43.2031C82.9449 46.1201 84.9346 49.5618 86.1468 53.3022C86.2464 53.6115 86.2519 53.9435 86.1625 54.2559C86.0732 54.5683 85.893 54.8472 85.6449 55.057L80.5445 59.3866C80.1822 59.6945 79.8912 60.0776 79.6916 60.5091C79.492 60.9407 79.3886 61.4105 79.3886 61.886C79.3886 62.3615 79.492 62.8313 79.6916 63.2629C79.8912 63.6944 80.1822 64.0774 80.5445 64.3853L85.6449 68.7149C85.8925 68.9252 86.072 69.2042 86.1607 69.5166C86.2495 69.829 86.2435 70.1608 86.1435 70.4697C84.9317 74.2113 82.942 77.6542 80.3051 80.5721C80.087 80.8132 79.8022 80.984 79.4868 81.0628C79.1715 81.1416 78.8398 81.125 78.5339 81.0149L72.2429 78.7649C71.795 78.6049 71.3177 78.5443 70.8441 78.5872C70.3705 78.6301 69.9119 78.7754 69.5 79.0132C69.0881 79.2509 68.7329 79.5754 68.4589 79.9641C68.1849 80.3528 67.9987 80.7964 67.9133 81.2642L66.7128 87.8472C66.6542 88.1669 66.502 88.462 66.2754 88.695C66.0488 88.928 65.7581 89.0884 65.4401 89.1559C61.5978 89.9773 57.6253 89.9773 53.783 89.1559C53.4646 89.0882 53.1736 88.9273 52.947 88.6936C52.7203 88.46 52.5684 88.1642 52.5104 87.8439L51.3099 81.2642C51.2244 80.7964 51.0382 80.3528 50.7642 79.9641C50.4903 79.5754 50.135 79.2509 49.7232 79.0132C49.3113 78.7754 48.8527 78.6301 48.3791 78.5872C47.9054 78.5443 47.4282 78.6049 46.9803 78.7649L40.6893 81.0149C40.3831 81.1246 40.0512 81.1407 39.7358 81.0613C39.4204 80.9819 39.1358 80.8105 38.9181 80.5689C36.2816 77.6519 34.2919 74.2102 33.0797 70.4697C32.9797 70.1608 32.9737 69.829 33.0624 69.5166C33.1512 69.2042 33.3307 68.9252 33.5782 68.7149L38.6786 64.3853C39.0409 64.0774 39.332 63.6944 39.5316 63.2629C39.7312 62.8313 39.8346 62.3615 39.8346 61.886C39.8346 61.4105 39.7312 60.9407 39.5316 60.5091C39.332 60.0776 39.0409 59.6945 38.6786 59.3866L33.5782 55.057C33.3307 54.8468 33.1512 54.5677 33.0624 54.2553C32.9737 53.9429 32.9797 53.6112 33.0797 53.3022ZM36.5565 53.2825L40.8008 56.884C41.5266 57.4998 42.1096 58.2662 42.5095 59.13C42.9094 59.9937 43.1165 60.9342 43.1165 61.886C43.1165 62.8378 42.9094 63.7783 42.5095 64.642C42.1096 65.5058 41.5266 66.2722 40.8008 66.888L36.5597 70.4894C37.5175 73.0544 38.8984 75.4422 40.6401 77.548L45.8749 75.6784C46.2139 75.5581 46.5583 75.4652 46.9081 75.3996C48.6197 75.0878 50.385 75.4687 51.8157 76.4584C53.2465 77.4481 54.2255 78.9656 54.5374 80.6771L55.5345 86.1514C58.2341 86.599 60.989 86.599 63.6886 86.1514L64.6857 80.6738C64.8556 79.7373 65.2274 78.8489 65.7753 78.0706C66.3232 77.2923 67.0341 76.6427 67.8586 76.167C68.683 75.6913 69.6011 75.4008 70.5492 75.3159C71.4972 75.2309 72.4524 75.3535 73.3482 75.6751L78.5831 77.548C80.3275 75.4387 81.7077 73.0531 82.6667 70.4894L78.4224 66.888C77.6956 66.2728 77.1116 65.5066 76.7111 64.6428C76.3105 63.7789 76.103 62.8382 76.103 61.886C76.103 60.9338 76.3105 59.993 76.7111 59.1292C77.1116 58.2654 77.6956 57.4992 78.4224 56.884L82.6667 53.2825C81.7077 50.7189 80.3275 48.3333 78.5831 46.224L73.3482 48.0936C72.4525 48.4134 71.4979 48.5347 70.5507 48.4489C69.6035 48.3632 68.6862 48.0725 67.8625 47.597C67.0388 47.1215 66.3283 46.4725 65.7803 45.6951C65.2324 44.9177 64.86 44.0305 64.689 43.0949L63.6886 37.6205C60.989 37.173 58.2341 37.173 55.5345 37.6205L54.5374 43.0949C54.3669 44.0308 53.9948 44.9184 53.447 45.6962C52.8992 46.4739 52.1888 47.1233 51.365 47.5991C50.5412 48.075 49.6238 48.3659 48.6764 48.4519C47.729 48.5378 46.7742 48.4167 45.8782 48.0969L40.6401 46.224C38.8968 48.3335 37.5145 50.7191 36.5565 53.2825ZM51.4181 61.886C51.4181 59.7112 52.2821 57.6255 53.8199 56.0877C55.3577 54.5499 57.4434 53.686 59.6181 53.686C61.7929 53.686 63.8786 54.5499 65.4164 56.0877C66.9542 57.6255 67.8181 59.7112 67.8181 61.886C67.8181 64.0608 66.9542 66.1465 65.4164 67.6843C63.8786 69.2221 61.7929 70.086 59.6181 70.086C57.4434 70.086 55.3577 69.2221 53.8199 67.6843C52.2821 66.1465 51.4181 64.0608 51.4181 61.886ZM54.6981 61.886C54.6981 63.1909 55.2165 64.4423 56.1392 65.365C57.0619 66.2876 58.3133 66.806 59.6181 66.806C60.923 66.806 62.1744 66.2876 63.0971 65.365C64.0198 64.4423 64.5381 63.1909 64.5381 61.886C64.5381 60.5811 64.0198 59.3297 63.0971 58.407C62.1744 57.4843 60.923 56.966 59.6181 56.966C58.3133 56.966 57.0619 57.4843 56.1392 58.407C55.2165 59.3297 54.6981 60.5811 54.6981 61.886Z" fill="white"/>
<defs>
<linearGradient id="paint0_linear_132_4394" x1="260905" y1="112676" x2="260905" y2="150813" gradientUnits="userSpaceOnUse">
<stop stop-color="#8D77CD"/>
<stop offset="1" stop-color="#0C1234"/>
</linearGradient>
<linearGradient id="paint1_linear_132_4394" x1="227599" y1="78278.8" x2="238349" y2="101434" gradientUnits="userSpaceOnUse">
<stop stop-color="#FFD37E"/>
<stop offset="1"/>
</linearGradient>
<radialGradient id="paint2_radial_132_4394" cx="0" cy="0" r="1" gradientUnits="userSpaceOnUse" gradientTransform="translate(196785 50526.6) scale(23377.6 15576.5)">
<stop stop-color="#FFD37E"/>
<stop offset="1"/>
</radialGradient>
<linearGradient id="paint3_linear_132_4394" x1="247403" y1="69373.6" x2="265111" y2="135485" gradientUnits="userSpaceOnUse">
<stop stop-color="white"/>
<stop offset="1" stop-color="#BD6519"/>
</linearGradient>
<radialGradient id="paint4_radial_132_4394" cx="0" cy="0" r="1" gradientUnits="userSpaceOnUse" gradientTransform="translate(228528 72653.7) scale(24917.7 14395)">
<stop stop-color="#A95C19"/>
<stop offset="1" stop-color="white"/>
</radialGradient>
<linearGradient id="paint5_linear_132_4394" x1="204106" y1="102823" x2="216924" y2="118826" gradientUnits="userSpaceOnUse">
<stop stop-color="#8B4519"/>
<stop offset="1" stop-color="white"/>
</linearGradient>
<linearGradient id="paint6_linear_132_4394" x1="195823" y1="98435.1" x2="208346" y2="116866" gradientUnits="userSpaceOnUse">
<stop stop-color="#8B4519"/>
<stop offset="1" stop-color="white"/>
</linearGradient>
<radialGradient id="paint7_radial_132_4394" cx="0" cy="0" r="1" gradientUnits="userSpaceOnUse" gradientTransform="translate(182464 67323.9) scale(21094 15286.1)">
<stop stop-color="#00639F"/>
<stop offset="1" stop-color="white"/>
</radialGradient>
<linearGradient id="paint8_linear_132_4394" x1="128161" y1="33415.9" x2="128915" y2="38473.8" gradientUnits="userSpaceOnUse">
<stop stop-color="#AFD8A0"/>
<stop offset="1"/>
</linearGradient>
</defs>
</svg>
